<?xml version="1.0" encoding="UTF-8"?>
<!DOCTYPE svg PUBLIC "-//W3C//DTD SVG 1.1//EN" "http://www.w3.org/Graphics/SVG/1.1/DTD/svg11.dtd">
<svg version="1.1" xmlns="http://www.w3.org/2000/svg" xmlns:xlink="http://www.w3.org/1999/xlink" x="0" y="0" width="214.315" height="51.582" viewBox="0, 0, 214.315, 51.582">
  <g id="paper-crane-shadow" transform="translate(-1487.148, -498.584)">
    <path d="M1637.777,510.584 L1637.189,510.902 L1689.463,523.005 L1627.173,516.314 L1599.746,531.135 L1599.741,531.147 L1599.729,531.144 L1599.687,531.167 L1599.699,531.136 L1599.11,530.974 L1597.988,536.797 L1594.303,538.126 L1594.29,538.149 L1594.29,538.166 L1594.286,538.158 L1594.281,538.166 L1594.281,538.149 L1594.252,538.098 L1594.267,538.13 L1590.572,536.797 L1589.44,530.922 L1588.871,531.141 L1588.881,531.167 L1561.402,516.318 L1499.148,523.005 L1551.392,510.909 L1550.791,510.584 L1585.074,521.596 L1585.073,521.595 L1590.188,518.38 L1589.708,516.102 L1590.377,515.587 L1594.286,512.268 L1598.813,516.113 L1598.749,516.22 L1598.305,518.331 L1603.497,521.595 L1637.777,510.584 z M1585.197,521.817 L1586.718,525.677 L1585.241,521.896 L1585.197,521.817 z" fill="#808080"/>
  </g>
</svg>
