<?xml version="1.0" encoding="UTF-8"?>
<!DOCTYPE svg PUBLIC "-//W3C//DTD SVG 1.1//EN" "http://www.w3.org/Graphics/SVG/1.1/DTD/svg11.dtd">
<svg version="1.1" xmlns="http://www.w3.org/2000/svg" xmlns:xlink="http://www.w3.org/1999/xlink" x="0" y="0" width="144.159" height="141.797" viewBox="0, 0, 144.159, 141.797">
  <g id="OK" transform="translate(-53.198, -504.517)">
    <g>
      <path d="M127.505,641.81 C142.743,641.63 157.985,636.037 170.042,624.872 C187.11,609.066 193.564,586.096 189.067,564.882 L192.857,561.659 C192.529,560.337 192.184,559.021 191.774,557.715 L181.411,566.506 C185.355,585.115 179.703,605.259 164.731,619.123 C154.156,628.917 140.794,633.841 127.427,633.998 C120.273,634.082 113.105,632.788 106.365,630.157 L96.001,638.948 C97.219,639.564 98.443,640.137 99.688,640.675 L103.503,637.453 C111.187,640.452 119.348,641.906 127.505,641.81 z" fill-opacity="0" stroke="#FFFFFF" stroke-width="2" id="path3374"/>
      <path d="M124.05,510.022 C108.812,510.201 93.57,515.794 81.513,526.959 C64.445,542.765 57.991,565.735 62.487,586.949 L58.698,590.172 C59.026,591.495 59.371,592.81 59.781,594.116 L70.144,585.325 C66.2,566.717 71.852,546.573 86.824,532.708 C97.399,522.914 110.761,517.99 124.128,517.833 C131.282,517.749 138.45,519.044 145.19,521.674 L155.553,512.883 C154.336,512.268 153.112,511.694 151.867,511.156 L148.051,514.378 C140.368,511.38 132.207,509.926 124.05,510.022 z" fill-opacity="0" stroke="#FFFFFF" stroke-width="2" id="path3363"/>
      <g id="path3415">
        <path d="M109.703,537.57 C130.64,528.602 154.885,538.288 163.88,559.214 C172.875,580.141 163.22,604.398 142.305,613.42 C121.391,622.442 97.121,612.818 88.072,591.915 C79.023,571.012 88.615,546.73 109.507,537.654" fill="#89DAFF" fill-opacity="0.419"/>
        <path d="M109.703,537.57 C130.64,528.602 154.885,538.288 163.88,559.214 C172.875,580.141 163.22,604.398 142.305,613.42 C121.391,622.442 97.121,612.818 88.072,591.915 C79.023,571.012 88.615,546.73 109.507,537.654" fill-opacity="0" stroke="#FFFFFF" stroke-width="2"/>
      </g>
      <g id="path3366">
        <path d="M101.33,551.152 L107.641,553.72 C107.84,553.556 108.04,553.399 108.244,553.24 C108.277,553.214 108.313,553.19 108.346,553.164 C108.555,553.003 108.768,552.852 108.982,552.696 C109.009,552.676 109.034,552.651 109.061,552.631 C109.126,552.584 109.195,552.542 109.26,552.495 C109.67,552.205 110.09,551.919 110.519,551.649 C110.525,551.644 110.534,551.643 110.54,551.639 C110.983,551.361 111.431,551.1 111.893,550.845 C111.952,550.812 112.004,550.769 112.063,550.736 C112.362,550.574 112.672,550.427 112.979,550.274 C113.205,550.161 113.433,550.043 113.662,549.936 C113.722,549.908 113.782,549.878 113.843,549.85 C114.254,549.663 114.663,549.499 115.078,549.333 C115.152,549.304 115.224,549.271 115.298,549.242 C115.641,549.109 115.991,548.98 116.335,548.861 C116.549,548.787 116.762,548.708 116.977,548.639 C117.182,548.574 117.386,548.506 117.591,548.445 C117.669,548.422 117.744,548.399 117.822,548.377 C117.953,548.34 118.084,548.309 118.215,548.273 C118.371,548.231 118.53,548.2 118.687,548.16 C118.973,548.089 119.261,548.022 119.547,547.96 C119.742,547.917 119.941,547.87 120.137,547.832 C120.236,547.813 120.341,547.79 120.44,547.771 C120.658,547.731 120.879,547.702 121.097,547.667 C121.17,547.655 121.242,547.644 121.315,547.633 C121.348,547.629 121.382,547.617 121.416,547.612 C121.678,547.574 121.938,547.548 122.201,547.517 C122.364,547.498 122.526,547.481 122.689,547.465 C122.825,547.452 122.962,547.435 123.098,547.423 C123.387,547.399 123.677,547.373 123.966,547.357 C123.973,547.357 123.981,547.347 123.987,547.347 C124.4,547.325 124.82,547.326 125.235,547.323 C125.658,547.319 126.079,547.328 126.504,547.343 C126.876,547.357 127.254,547.377 127.627,547.406 C127.675,547.41 127.724,547.416 127.772,547.42 C128.195,547.455 128.615,547.497 129.039,547.552 C129.785,547.649 130.522,547.774 131.268,547.934 C131.35,547.952 131.431,547.965 131.513,547.983 C131.541,547.989 131.568,548.007 131.596,548.013 C131.975,548.099 132.359,548.186 132.737,548.288 C133.464,548.485 134.193,548.712 134.915,548.971 C135.015,549.006 135.115,549.041 135.215,549.078 C135.537,549.197 135.853,549.325 136.169,549.455 C136.268,549.495 136.365,549.536 136.463,549.577 C136.776,549.709 137.084,549.839 137.389,549.982 C137.491,550.03 137.592,550.079 137.693,550.128 C137.99,550.272 138.294,550.424 138.584,550.577 C138.689,550.632 138.796,550.689 138.9,550.746 C138.968,550.783 139.036,550.819 139.104,550.856 C139.431,551.038 139.748,551.231 140.066,551.424 C140.324,551.581 140.582,551.74 140.833,551.904 C140.956,551.984 141.076,552.064 141.197,552.146 C141.435,552.307 141.672,552.475 141.903,552.642 C142.037,552.739 142.173,552.836 142.305,552.935 C142.515,553.093 142.717,553.255 142.922,553.418 C143.073,553.538 143.224,553.662 143.373,553.785 L149.689,551.231 C149.588,551.13 149.483,551.034 149.382,550.934 C149.287,550.841 149.203,550.74 149.108,550.648 C149.056,550.599 149.006,550.549 148.955,550.5 C148.63,550.193 148.298,549.896 147.961,549.601 C147.776,549.44 147.589,549.278 147.4,549.12 C147.329,549.06 147.252,549.007 147.18,548.948 C146.987,548.789 146.794,548.632 146.597,548.477 C146.327,548.265 146.064,548.054 145.788,547.851 C145.512,547.647 145.232,547.447 144.95,547.252 C143.544,546.278 142.069,545.416 140.541,544.667 C140.277,544.538 140.004,544.409 139.738,544.287 C139.695,544.267 139.653,544.243 139.61,544.224 C139.3,544.083 138.992,543.967 138.679,543.835 C138.483,543.755 138.287,543.666 138.091,543.588 C137.97,543.541 137.851,543.488 137.73,543.442 C137.659,543.415 137.585,543.392 137.514,543.365 C136.948,543.153 136.368,542.953 135.793,542.769 C135.306,542.613 134.824,542.475 134.331,542.342 C133.837,542.209 133.344,542.092 132.845,541.982 C132.444,541.893 132.041,541.813 131.636,541.739 C131.537,541.719 131.44,541.689 131.341,541.671 C131.207,541.648 131.069,541.623 130.934,541.601 C130.558,541.54 130.184,541.492 129.808,541.444 C129.778,541.44 129.749,541.434 129.719,541.43 C129.235,541.369 128.757,541.311 128.274,541.271 C128.17,541.263 128.065,541.261 127.961,541.254 C127.552,541.223 127.138,541.205 126.727,541.189 C126.211,541.169 125.696,541.159 125.178,541.163 C124.668,541.167 124.173,541.177 123.662,541.204 C123.655,541.204 123.647,541.214 123.64,541.214 C123.224,541.236 122.803,541.274 122.386,541.311 C122.283,541.321 122.18,541.323 122.078,541.333 C121.812,541.359 121.542,541.39 121.276,541.423 C120.88,541.472 120.486,541.52 120.093,541.583 C119.721,541.642 119.34,541.711 118.97,541.783 C118.951,541.787 118.929,541.795 118.908,541.799 C118.811,541.818 118.719,541.846 118.622,541.866 C118.335,541.924 118.037,541.977 117.751,542.043 C117.636,542.07 117.518,542.098 117.403,542.126 C117.131,542.192 116.865,542.27 116.593,542.344 C116.211,542.447 115.84,542.556 115.462,542.673 C115.08,542.791 114.697,542.904 114.32,543.035 C113.948,543.164 113.585,543.306 113.215,543.449 C113.077,543.502 112.94,543.547 112.803,543.602 C112.409,543.76 112.021,543.93 111.63,544.104 C111.521,544.152 111.406,544.198 111.297,544.248 C111.206,544.29 111.116,544.334 111.026,544.377 C110.726,544.517 110.441,544.646 110.145,544.795 C110.088,544.823 110.037,544.858 109.981,544.886 C109.669,545.045 109.344,545.208 109.037,545.376 C108.997,545.398 108.958,545.424 108.918,545.446 C108.231,545.826 107.551,546.23 106.891,546.657 C106.888,546.66 106.889,546.669 106.885,546.672 C106.539,546.896 106.191,547.119 105.853,547.356 C105.541,547.574 105.243,547.797 104.939,548.025 C104.917,548.043 104.889,548.056 104.866,548.073 C104.573,548.294 104.286,548.531 104.001,548.76 C103.968,548.787 103.932,548.81 103.899,548.836 C103.426,549.221 102.969,549.622 102.516,550.033 C102.411,550.128 102.295,550.215 102.191,550.311 C102.149,550.35 102.113,550.398 102.071,550.437 C101.946,550.555 101.823,550.674 101.7,550.793 C101.578,550.912 101.45,551.029 101.329,551.149 z M111.225,606.39 C111.424,606.481 111.621,606.572 111.823,606.66 C112.067,606.764 112.308,606.876 112.555,606.977 C112.746,607.054 112.939,607.127 113.132,607.2 C113.591,607.377 114.042,607.552 114.509,607.709 C114.542,607.72 114.575,607.733 114.609,607.744 C115.154,607.928 115.716,608.087 116.271,608.243 C116.762,608.381 117.253,608.504 117.75,608.62 C117.982,608.674 118.214,608.725 118.446,608.774 C118.75,608.838 119.056,608.894 119.36,608.949 C119.6,608.993 119.837,609.054 120.078,609.093 C120.405,609.145 120.731,609.193 121.059,609.236 C121.366,609.276 121.674,609.307 121.98,609.339 C122.241,609.366 122.5,609.39 122.762,609.411 C123.042,609.434 123.323,609.452 123.605,609.468 C124.044,609.492 124.486,609.499 124.924,609.506 C125.028,609.508 125.132,609.523 125.237,609.524 C125.824,609.529 126.404,609.519 126.993,609.493 C127.044,609.491 127.094,609.493 127.144,609.49 C128.311,609.434 129.485,609.306 130.653,609.127 C131.254,609.035 131.855,608.937 132.454,608.811 C132.504,608.801 132.551,608.78 132.601,608.77 C133.004,608.683 133.41,608.588 133.809,608.487 C134.2,608.389 134.586,608.282 134.973,608.17 C135.096,608.134 135.222,608.114 135.344,608.077 C135.725,607.962 136.094,607.837 136.47,607.709 C136.921,607.555 137.368,607.382 137.811,607.211 C137.847,607.197 137.883,607.188 137.918,607.174 C138.004,607.14 138.092,607.112 138.177,607.078 C138.678,606.878 139.166,606.67 139.661,606.444 L130.899,602.852 C130.588,602.913 130.275,602.955 129.962,603.006 C129.696,603.048 129.432,603.1 129.166,603.135 C129.095,603.144 129.023,603.144 128.953,603.153 C128.68,603.186 128.407,603.211 128.135,603.236 C127.921,603.257 127.71,603.275 127.496,603.29 C127.14,603.316 126.778,603.345 126.421,603.358 C126.377,603.357 126.331,603.365 126.286,603.366 C125.615,603.386 124.944,603.37 124.268,603.341 C123.908,603.326 123.546,603.304 123.185,603.274 C122.833,603.245 122.487,603.205 122.135,603.163 C121.425,603.078 120.711,602.976 120,602.834 L111.225,606.389 z" fill="#FEFEFE"/>
        <path d="M101.33,551.152 L107.641,553.72 C107.84,553.556 108.04,553.399 108.244,553.24 C108.277,553.214 108.313,553.19 108.346,553.164 C108.555,553.003 108.768,552.852 108.982,552.696 C109.009,552.676 109.034,552.651 109.061,552.631 C109.126,552.584 109.195,552.542 109.26,552.495 C109.67,552.205 110.09,551.919 110.519,551.649 C110.525,551.644 110.534,551.643 110.54,551.639 C110.983,551.361 111.431,551.1 111.893,550.845 C111.952,550.812 112.004,550.769 112.063,550.736 C112.362,550.574 112.672,550.427 112.979,550.274 C113.205,550.161 113.433,550.043 113.662,549.936 C113.722,549.908 113.782,549.878 113.843,549.85 C114.254,549.663 114.663,549.499 115.078,549.333 C115.152,549.304 115.224,549.271 115.298,549.242 C115.641,549.109 115.991,548.98 116.335,548.861 C116.549,548.787 116.762,548.708 116.977,548.639 C117.182,548.574 117.386,548.506 117.591,548.445 C117.669,548.422 117.744,548.399 117.822,548.377 C117.953,548.34 118.084,548.309 118.215,548.273 C118.371,548.231 118.53,548.2 118.687,548.16 C118.973,548.089 119.261,548.022 119.547,547.96 C119.742,547.917 119.941,547.87 120.137,547.832 C120.236,547.813 120.341,547.79 120.44,547.771 C120.658,547.731 120.879,547.702 121.097,547.667 C121.17,547.655 121.242,547.644 121.315,547.633 C121.348,547.629 121.382,547.617 121.416,547.612 C121.678,547.574 121.938,547.548 122.201,547.517 C122.364,547.498 122.526,547.481 122.689,547.465 C122.825,547.452 122.962,547.435 123.098,547.423 C123.387,547.399 123.677,547.373 123.966,547.357 C123.973,547.357 123.981,547.347 123.987,547.347 C124.4,547.325 124.82,547.326 125.235,547.323 C125.658,547.319 126.079,547.328 126.504,547.343 C126.876,547.357 127.254,547.377 127.627,547.406 C127.675,547.41 127.724,547.416 127.772,547.42 C128.195,547.455 128.615,547.497 129.039,547.552 C129.785,547.649 130.522,547.774 131.268,547.934 C131.35,547.952 131.431,547.965 131.513,547.983 C131.541,547.989 131.568,548.007 131.596,548.013 C131.975,548.099 132.359,548.186 132.737,548.288 C133.464,548.485 134.193,548.712 134.915,548.971 C135.015,549.006 135.115,549.041 135.215,549.078 C135.537,549.197 135.853,549.325 136.169,549.455 C136.268,549.495 136.365,549.536 136.463,549.577 C136.776,549.709 137.084,549.839 137.389,549.982 C137.491,550.03 137.592,550.079 137.693,550.128 C137.99,550.272 138.294,550.424 138.584,550.577 C138.689,550.632 138.796,550.689 138.9,550.746 C138.968,550.783 139.036,550.819 139.104,550.856 C139.431,551.038 139.748,551.231 140.066,551.424 C140.324,551.581 140.582,551.74 140.833,551.904 C140.956,551.984 141.076,552.064 141.197,552.146 C141.435,552.307 141.672,552.475 141.903,552.642 C142.037,552.739 142.173,552.836 142.305,552.935 C142.515,553.093 142.717,553.255 142.922,553.418 C143.073,553.538 143.224,553.662 143.373,553.785 L149.689,551.231 C149.588,551.13 149.483,551.034 149.382,550.934 C149.287,550.841 149.203,550.74 149.108,550.648 C149.056,550.599 149.006,550.549 148.955,550.5 C148.63,550.193 148.298,549.896 147.961,549.601 C147.776,549.44 147.589,549.278 147.4,549.12 C147.329,549.06 147.252,549.007 147.18,548.948 C146.987,548.789 146.794,548.632 146.597,548.477 C146.327,548.265 146.064,548.054 145.788,547.851 C145.512,547.647 145.232,547.447 144.95,547.252 C143.544,546.278 142.069,545.416 140.541,544.667 C140.277,544.538 140.004,544.409 139.738,544.287 C139.695,544.267 139.653,544.243 139.61,544.224 C139.3,544.083 138.992,543.967 138.679,543.835 C138.483,543.755 138.287,543.666 138.091,543.588 C137.97,543.541 137.851,543.488 137.73,543.442 C137.659,543.415 137.585,543.392 137.514,543.365 C136.948,543.153 136.368,542.953 135.793,542.769 C135.306,542.613 134.824,542.475 134.331,542.342 C133.837,542.209 133.344,542.092 132.845,541.982 C132.444,541.893 132.041,541.813 131.636,541.739 C131.537,541.719 131.44,541.689 131.341,541.671 C131.207,541.648 131.069,541.623 130.934,541.601 C130.558,541.54 130.184,541.492 129.808,541.444 C129.778,541.44 129.749,541.434 129.719,541.43 C129.235,541.369 128.757,541.311 128.274,541.271 C128.17,541.263 128.065,541.261 127.961,541.254 C127.552,541.223 127.138,541.205 126.727,541.189 C126.211,541.169 125.696,541.159 125.178,541.163 C124.668,541.167 124.173,541.177 123.662,541.204 C123.655,541.204 123.647,541.214 123.64,541.214 C123.224,541.236 122.803,541.274 122.386,541.311 C122.283,541.321 122.18,541.323 122.078,541.333 C121.812,541.359 121.542,541.39 121.276,541.423 C120.88,541.472 120.486,541.52 120.093,541.583 C119.721,541.642 119.34,541.711 118.97,541.783 C118.951,541.787 118.929,541.795 118.908,541.799 C118.811,541.818 118.719,541.846 118.622,541.866 C118.335,541.924 118.037,541.977 117.751,542.043 C117.636,542.07 117.518,542.098 117.403,542.126 C117.131,542.192 116.865,542.27 116.593,542.344 C116.211,542.447 115.84,542.556 115.462,542.673 C115.08,542.791 114.697,542.904 114.32,543.035 C113.948,543.164 113.585,543.306 113.215,543.449 C113.077,543.502 112.94,543.547 112.803,543.602 C112.409,543.76 112.021,543.93 111.63,544.104 C111.521,544.152 111.406,544.198 111.297,544.248 C111.206,544.29 111.116,544.334 111.026,544.377 C110.726,544.517 110.441,544.646 110.145,544.795 C110.088,544.823 110.037,544.858 109.981,544.886 C109.669,545.045 109.344,545.208 109.037,545.376 C108.997,545.398 108.958,545.424 108.918,545.446 C108.231,545.826 107.551,546.23 106.891,546.657 C106.888,546.66 106.889,546.669 106.885,546.672 C106.539,546.896 106.191,547.119 105.853,547.356 C105.541,547.574 105.243,547.797 104.939,548.025 C104.917,548.043 104.889,548.056 104.866,548.073 C104.573,548.294 104.286,548.531 104.001,548.76 C103.968,548.787 103.932,548.81 103.899,548.836 C103.426,549.221 102.969,549.622 102.516,550.033 C102.411,550.128 102.295,550.215 102.191,550.311 C102.149,550.35 102.113,550.398 102.071,550.437 C101.946,550.555 101.823,550.674 101.7,550.793 C101.578,550.912 101.45,551.029 101.329,551.149 z M111.225,606.39 C111.424,606.481 111.621,606.572 111.823,606.66 C112.067,606.764 112.308,606.876 112.555,606.977 C112.746,607.054 112.939,607.127 113.132,607.2 C113.591,607.377 114.042,607.552 114.509,607.709 C114.542,607.72 114.575,607.733 114.609,607.744 C115.154,607.928 115.716,608.087 116.271,608.243 C116.762,608.381 117.253,608.504 117.75,608.62 C117.982,608.674 118.214,608.725 118.446,608.774 C118.75,608.838 119.056,608.894 119.36,608.949 C119.6,608.993 119.837,609.054 120.078,609.093 C120.405,609.145 120.731,609.193 121.059,609.236 C121.366,609.276 121.674,609.307 121.98,609.339 C122.241,609.366 122.5,609.39 122.762,609.411 C123.042,609.434 123.323,609.452 123.605,609.468 C124.044,609.492 124.486,609.499 124.924,609.506 C125.028,609.508 125.132,609.523 125.237,609.524 C125.824,609.529 126.404,609.519 126.993,609.493 C127.044,609.491 127.094,609.493 127.144,609.49 C128.311,609.434 129.485,609.306 130.653,609.127 C131.254,609.035 131.855,608.937 132.454,608.811 C132.504,608.801 132.551,608.78 132.601,608.77 C133.004,608.683 133.41,608.588 133.809,608.487 C134.2,608.389 134.586,608.282 134.973,608.17 C135.096,608.134 135.222,608.114 135.344,608.077 C135.725,607.962 136.094,607.837 136.47,607.709 C136.921,607.555 137.368,607.382 137.811,607.211 C137.847,607.197 137.883,607.188 137.918,607.174 C138.004,607.14 138.092,607.112 138.177,607.078 C138.678,606.878 139.166,606.67 139.661,606.444 L130.899,602.852 C130.588,602.913 130.275,602.955 129.962,603.006 C129.696,603.048 129.432,603.1 129.166,603.135 C129.095,603.144 129.023,603.144 128.953,603.153 C128.68,603.186 128.407,603.211 128.135,603.236 C127.921,603.257 127.71,603.275 127.496,603.29 C127.14,603.316 126.778,603.345 126.421,603.358 C126.377,603.357 126.331,603.365 126.286,603.366 C125.615,603.386 124.944,603.37 124.268,603.341 C123.908,603.326 123.546,603.304 123.185,603.274 C122.833,603.245 122.487,603.205 122.135,603.163 C121.425,603.078 120.711,602.976 120,602.834 L111.225,606.389 z" fill-opacity="0" stroke="#FFFFFF" stroke-width="2"/>
      </g>
      <path d="M139.159,571.667 C139.393,571.433 139.515,571.14 139.526,570.805 C139.531,570.459 139.414,570.176 139.159,569.937 L136.507,567.211 C136.235,566.971 135.937,566.854 135.602,566.854 C135.272,566.854 134.979,566.971 134.723,567.211 L123.201,578.754 C122.961,578.994 122.674,579.111 122.349,579.111 C122.013,579.111 121.726,578.994 121.47,578.754 L115.832,573.121 C115.592,572.887 115.31,572.764 114.98,572.764 C114.644,572.764 114.341,572.887 114.048,573.121 L111.396,575.82 C111.157,576.06 111.045,576.353 111.045,576.688 C111.045,577.029 111.157,577.322 111.396,577.556 L119.527,585.692 C119.767,585.926 120.091,586.134 120.496,586.315 C120.906,586.491 121.284,586.581 121.619,586.581 L123.052,586.581 C123.387,586.581 123.755,586.496 124.159,586.326 C124.559,586.155 124.883,585.942 125.139,585.692 z M125.293,555.049 C128.11,555.049 130.756,555.582 133.216,556.647 C135.682,557.706 137.838,559.154 139.696,561.002 C141.544,562.844 142.998,565.001 144.052,567.477 C145.101,569.947 145.633,572.599 145.633,575.416 C145.633,578.232 145.101,580.884 144.052,583.355 C142.998,585.825 141.544,587.987 139.696,589.829 C137.838,591.677 135.682,593.125 133.216,594.185 C130.756,595.25 128.11,595.782 125.293,595.782 C122.466,595.782 119.82,595.25 117.349,594.185 C114.873,593.125 112.717,591.677 110.875,589.829 C109.032,587.987 107.579,585.825 106.519,583.355 C105.454,580.884 104.922,578.232 104.922,575.416 C104.922,572.599 105.454,569.947 106.519,567.477 C107.579,565.001 109.032,562.844 110.875,561.002 C112.717,559.154 114.873,557.706 117.349,556.647 C119.82,555.582 122.466,555.049 125.293,555.049" fill="#FFFFFF"/>
    </g>
  </g>
</svg>
