<?xml version="1.0" encoding="UTF-8"?>
<!DOCTYPE svg PUBLIC "-//W3C//DTD SVG 1.1//EN" "http://www.w3.org/Graphics/SVG/1.1/DTD/svg11.dtd">
<svg version="1.1" xmlns="http://www.w3.org/2000/svg" xmlns:xlink="http://www.w3.org/1999/xlink" x="0" y="0" width="147.077" height="147.05" viewBox="0, 0, 147.077, 147.05">
  <g id="top-down" transform="translate(-599.533, -501.891)">
    <g id="path16007">
      <path d="M621.838,587.935 C622.678,591.529 623.89,595.046 625.478,598.422 L630.907,595.871 C629.503,592.875 628.427,589.755 627.688,586.569 L621.838,587.935 z" fill="#CFBD04"/>
      <path d="M621.838,587.935 C622.678,591.529 623.89,595.046 625.478,598.422 L630.907,595.871 C629.503,592.875 628.427,589.755 627.688,586.569 L621.838,587.935 z" fill-opacity="0" stroke="#FFFFFF" stroke-width="2"/>
    </g>
    <g id="path16011">
      <path d="M719.848,613.077 C727.739,603.38 732.361,591.433 733.056,578.951 L726.782,578.601 C726.158,589.872 721.926,600.535 714.965,609.104 L719.848,613.077 z" fill="#FF0000"/>
      <path d="M719.848,613.077 C727.739,603.38 732.361,591.433 733.056,578.951 L726.782,578.601 C726.158,589.872 721.926,600.535 714.965,609.104 L719.848,613.077 z" fill-opacity="0" stroke="#FFFFFF" stroke-width="2"/>
    </g>
    <g id="path16013">
      <path d="M621.43,547.591 C615.399,558.542 612.985,571.122 614.532,583.528 L620.768,582.751 C619.368,571.549 621.626,560.303 626.945,550.628 L621.43,547.591 z" fill="#B1E700"/>
      <path d="M621.43,547.591 C615.399,558.542 612.985,571.122 614.532,583.528 L620.768,582.751 C619.368,571.549 621.626,560.303 626.945,550.628 L621.43,547.591 z" fill-opacity="0" stroke="#FFFFFF" stroke-width="2"/>
    </g>
    <g id="path16015">
      <path d="M720.228,581.129 L726.222,581.81 C727.486,570.669 725.185,559.413 719.648,549.664 L714.399,552.645 C714.403,552.652 714.407,552.658 714.411,552.665 C719.507,561.647 721.317,571.599 720.228,581.129 z" fill="#FF0070"/>
      <path d="M720.228,581.129 L726.222,581.81 C727.486,570.669 725.185,559.413 719.648,549.664 L714.399,552.645 C714.403,552.652 714.407,552.658 714.411,552.665 C719.507,561.647 721.317,571.599 720.228,581.129 z" fill-opacity="0" stroke="#FFFFFF" stroke-width="2"/>
    </g>
    <g id="path16017">
      <path d="M711.84,530.529 C702.331,522.413 690.497,517.51 678.034,516.523 L677.537,522.786 C688.791,523.675 699.351,528.157 707.754,535.318 L711.84,530.529 z" fill="#7B00F5"/>
      <path d="M711.84,530.529 C702.331,522.413 690.497,517.51 678.034,516.523 L677.537,522.786 C688.791,523.675 699.351,528.157 707.754,535.318 L711.84,530.529 z" fill-opacity="0" stroke="#FFFFFF" stroke-width="2"/>
    </g>
    <g id="path16019">
      <path d="M732.419,568.102 C730.852,555.699 725.401,544.107 716.85,534.986 L712.266,539.284 C719.989,547.517 724.781,557.939 726.174,568.892 L732.419,568.102 z" fill="#FF00DF"/>
      <path d="M732.419,568.102 C730.852,555.699 725.401,544.107 716.85,534.986 L712.266,539.284 C719.989,547.517 724.781,557.939 726.174,568.892 L732.419,568.102 z" fill-opacity="0" stroke="#FFFFFF" stroke-width="2"/>
    </g>
    <g id="path16021">
      <path d="M626.57,576.907 L632.596,576.781 C632.594,576.678 632.589,576.573 632.588,576.47 C632.282,553.835 650.382,535.238 673.017,534.932 C677.323,534.874 681.484,535.484 685.4,536.663 L687.133,530.904 C682.416,529.483 677.505,528.81 672.58,528.914 C646.622,529.461 626.023,550.949 626.57,576.907 z" fill="#00CAF8"/>
      <path d="M626.57,576.907 L632.596,576.781 C632.594,576.678 632.589,576.573 632.588,576.47 C632.282,553.835 650.382,535.238 673.017,534.932 C677.323,534.874 681.484,535.484 685.4,536.663 L687.133,530.904 C682.416,529.483 677.505,528.81 672.58,528.914 C646.622,529.461 626.023,550.949 626.57,576.907 z" fill-opacity="0" stroke="#FFFFFF" stroke-width="2"/>
    </g>
    <path d="M672.645,507.397 C710.492,506.878 741.592,537.142 742.103,574.989 C742.615,612.836 712.345,643.93 674.498,644.434 C636.651,644.953 605.551,614.689 605.039,576.842 C604.527,538.995 634.798,507.901 672.645,507.397 z" fill-opacity="0" stroke="#FFFFFF" stroke-width="2" id="path16023"/>
    <g id="path16025">
      <path d="M709.644,614.771 C712.342,612.254 714.789,609.452 716.927,606.394 L712.01,602.955 C710.112,605.664 707.942,608.151 705.546,610.379 L709.644,614.771 z" fill="#FFA600"/>
      <path d="M709.644,614.771 C712.342,612.254 714.789,609.452 716.927,606.394 L712.01,602.955 C710.112,605.664 707.942,608.151 705.546,610.379 L709.644,614.771 z" fill-opacity="0" stroke="#FFFFFF" stroke-width="2"/>
    </g>
    <g id="path16027">
      <path d="M661.138,524.35 C657.55,525.216 654.042,526.453 650.677,528.065 L653.268,533.476 C656.253,532.051 659.365,530.953 662.546,530.19 L661.138,524.35 z" fill="#007EF8"/>
      <path d="M661.138,524.35 C657.55,525.216 654.042,526.453 650.677,528.065 L653.268,533.476 C656.253,532.051 659.365,530.953 662.546,530.19 L661.138,524.35 z" fill-opacity="0" stroke="#FFFFFF" stroke-width="2"/>
    </g>
    <g id="path16029">
      <path d="M622.721,560.666 L628.464,562.383 L628.468,562.383 C628.518,562.218 628.565,562.051 628.617,561.886 C628.627,561.854 628.638,561.821 628.648,561.789 C628.651,561.778 628.656,561.768 628.659,561.757 C628.718,561.572 628.779,561.388 628.84,561.203 C628.893,561.041 628.946,560.879 629.001,560.717 C629.012,560.684 629.024,560.65 629.036,560.617 C629.037,560.613 629.038,560.609 629.039,560.605 C629.106,560.412 629.175,560.222 629.243,560.03 C629.3,559.874 629.355,559.716 629.413,559.56 C629.427,559.524 629.442,559.488 629.456,559.452 C629.528,559.259 629.601,559.066 629.676,558.873 C629.735,558.721 629.792,558.568 629.853,558.415 C629.868,558.377 629.884,558.341 629.9,558.303 C629.961,558.151 630.022,558 630.085,557.849 L624.542,555.549 C623.85,557.216 623.241,558.925 622.721,560.666 z" fill="#40CA00"/>
      <path d="M622.721,560.666 L628.464,562.383 L628.468,562.383 C628.518,562.218 628.565,562.051 628.617,561.886 C628.627,561.854 628.638,561.821 628.648,561.789 C628.651,561.778 628.656,561.768 628.659,561.757 C628.718,561.572 628.779,561.388 628.84,561.203 C628.893,561.041 628.946,560.879 629.001,560.717 C629.012,560.684 629.024,560.65 629.036,560.617 C629.037,560.613 629.038,560.609 629.039,560.605 C629.106,560.412 629.175,560.222 629.243,560.03 C629.3,559.874 629.355,559.716 629.413,559.56 C629.427,559.524 629.442,559.488 629.456,559.452 C629.528,559.259 629.601,559.066 629.676,558.873 C629.735,558.721 629.792,558.568 629.853,558.415 C629.868,558.377 629.884,558.341 629.9,558.303 C629.961,558.151 630.022,558 630.085,557.849 L624.542,555.549 C623.85,557.216 623.241,558.925 622.721,560.666 z" fill-opacity="0" stroke="#FFFFFF" stroke-width="2"/>
    </g>
  </g>
</svg>
