<?xml version="1.0" encoding="UTF-8"?>
<!DOCTYPE svg PUBLIC "-//W3C//DTD SVG 1.1//EN" "http://www.w3.org/Graphics/SVG/1.1/DTD/svg11.dtd">
<svg version="1.1" xmlns="http://www.w3.org/2000/svg" xmlns:xlink="http://www.w3.org/1999/xlink" x="0" y="0" width="144.159" height="141.797" viewBox="0, 0, 144.159, 141.797">
  <g id="ui-buy" transform="translate(-329.584, -610.129)">
    <g>
      <path d="M403.891,747.421 C419.129,747.242 434.371,741.649 446.428,730.484 C463.496,714.678 469.95,691.708 465.453,670.494 L469.243,667.271 C468.915,665.948 468.57,664.633 468.16,663.327 L457.797,672.118 C461.741,690.726 456.089,710.87 441.117,724.735 C430.542,734.529 417.18,739.453 403.813,739.61 C396.659,739.694 389.491,738.399 382.751,735.769 L372.387,744.56 C373.605,745.175 374.829,745.749 376.074,746.287 L379.889,743.064 C387.573,746.063 395.734,747.517 403.891,747.421 z" fill-opacity="0" stroke="#FFFFFF" stroke-width="2" id="path3374"/>
      <path d="M400.436,615.633 C385.198,615.813 369.956,621.406 357.899,632.571 C340.831,648.377 334.377,671.347 338.873,692.561 L335.084,695.783 C335.412,697.106 335.757,698.422 336.167,699.728 L346.53,690.937 C342.586,672.328 348.238,652.184 363.21,638.32 C373.785,628.526 387.147,623.602 400.514,623.445 C407.668,623.36 414.836,624.655 421.576,627.286 L431.939,618.495 C430.722,617.879 429.498,617.306 428.253,616.768 L424.437,619.99 C416.754,616.991 408.593,615.537 400.436,615.633 z" fill-opacity="0" stroke="#FFFFFF" stroke-width="2" id="path3363"/>
      <g id="path3415">
        <path d="M386.089,643.181 C407.026,634.214 431.271,643.9 440.266,664.826 C449.261,685.752 439.606,710.009 418.691,719.031 C397.777,728.053 373.507,718.43 364.458,697.527 C355.409,676.624 365.001,652.342 385.892,643.266" fill="#89DAFF" fill-opacity="0.419"/>
        <path d="M386.089,643.181 C407.026,634.214 431.271,643.9 440.266,664.826 C449.261,685.752 439.606,710.009 418.691,719.031 C397.777,728.053 373.507,718.43 364.458,697.527 C355.409,676.624 365.001,652.342 385.892,643.266" fill-opacity="0" stroke="#FFFFFF" stroke-width="2"/>
      </g>
      <g id="path3366">
        <path d="M377.716,656.763 L384.027,659.332 C384.226,659.168 384.426,659.011 384.63,658.852 C384.663,658.826 384.699,658.802 384.732,658.776 C384.941,658.615 385.153,658.464 385.368,658.308 C385.395,658.288 385.42,658.262 385.447,658.243 C385.512,658.196 385.581,658.153 385.646,658.107 C386.056,657.817 386.476,657.531 386.905,657.26 C386.911,657.256 386.92,657.255 386.926,657.25 C387.369,656.972 387.817,656.712 388.279,656.456 C388.338,656.424 388.39,656.38 388.449,656.348 C388.748,656.185 389.058,656.038 389.364,655.886 C389.591,655.773 389.819,655.654 390.048,655.547 C390.108,655.52 390.168,655.489 390.229,655.462 C390.64,655.274 391.049,655.111 391.464,654.945 C391.538,654.915 391.61,654.883 391.684,654.854 C392.026,654.72 392.377,654.592 392.721,654.473 C392.935,654.399 393.148,654.32 393.363,654.251 C393.568,654.186 393.772,654.117 393.977,654.057 C394.055,654.034 394.13,654.011 394.207,653.989 C394.339,653.951 394.47,653.92 394.601,653.885 C394.757,653.843 394.916,653.811 395.073,653.772 C395.359,653.7 395.647,653.634 395.933,653.571 C396.128,653.529 396.327,653.482 396.523,653.444 C396.622,653.424 396.727,653.401 396.826,653.383 C397.044,653.343 397.265,653.313 397.483,653.279 C397.556,653.267 397.628,653.255 397.701,653.244 C397.734,653.241 397.768,653.229 397.802,653.224 C398.064,653.185 398.324,653.159 398.587,653.128 C398.75,653.109 398.912,653.093 399.075,653.077 C399.211,653.063 399.348,653.047 399.484,653.035 C399.773,653.01 400.063,652.984 400.352,652.969 C400.359,652.969 400.367,652.959 400.373,652.959 C400.786,652.937 401.206,652.938 401.621,652.934 C402.044,652.931 402.465,652.939 402.89,652.955 C403.262,652.969 403.64,652.988 404.013,653.017 C404.061,653.021 404.11,653.027 404.158,653.031 C404.581,653.066 405.001,653.109 405.425,653.164 C406.171,653.26 406.908,653.386 407.654,653.545 C407.736,653.563 407.817,653.577 407.899,653.595 C407.927,653.601 407.954,653.619 407.982,653.625 C408.361,653.71 408.745,653.798 409.123,653.9 C409.85,654.096 410.579,654.324 411.301,654.582 C411.401,654.618 411.501,654.652 411.601,654.689 C411.923,654.809 412.239,654.936 412.555,655.067 C412.653,655.106 412.751,655.148 412.849,655.189 C413.162,655.32 413.47,655.451 413.775,655.594 C413.877,655.641 413.978,655.691 414.079,655.74 C414.376,655.884 414.68,656.036 414.97,656.189 C415.075,656.244 415.182,656.301 415.286,656.358 C415.354,656.395 415.422,656.43 415.49,656.468 C415.817,656.65 416.134,656.842 416.452,657.036 C416.71,657.193 416.968,657.351 417.219,657.516 C417.342,657.596 417.462,657.676 417.583,657.758 C417.821,657.919 418.058,658.086 418.289,658.253 C418.423,658.35 418.559,658.448 418.691,658.547 C418.901,658.705 419.103,658.866 419.308,659.03 C419.459,659.149 419.61,659.273 419.759,659.397 L426.075,656.843 C425.974,656.741 425.869,656.645 425.768,656.545 C425.673,656.453 425.589,656.351 425.494,656.26 C425.442,656.211 425.392,656.16 425.341,656.112 C425.016,655.805 424.684,655.508 424.347,655.213 C424.162,655.052 423.975,654.889 423.786,654.732 C423.715,654.672 423.638,654.619 423.566,654.559 C423.373,654.4 423.18,654.243 422.983,654.089 C422.713,653.877 422.45,653.666 422.174,653.463 C421.898,653.259 421.618,653.058 421.336,652.864 C419.93,651.89 418.455,651.028 416.927,650.279 C416.663,650.149 416.39,650.021 416.124,649.898 C416.081,649.879 416.039,649.855 415.996,649.835 C415.686,649.695 415.378,649.579 415.065,649.447 C414.869,649.367 414.673,649.278 414.477,649.2 C414.356,649.153 414.237,649.099 414.116,649.054 C414.045,649.027 413.971,649.004 413.9,648.977 C413.334,648.764 412.754,648.564 412.178,648.381 C411.692,648.225 411.21,648.087 410.716,647.954 C410.223,647.821 409.73,647.704 409.231,647.593 C408.83,647.504 408.427,647.425 408.022,647.35 C407.923,647.33 407.826,647.3 407.727,647.283 C407.593,647.259 407.455,647.235 407.32,647.213 C406.944,647.151 406.57,647.104 406.194,647.055 C406.164,647.051 406.135,647.045 406.105,647.041 C405.621,646.98 405.143,646.923 404.66,646.883 C404.556,646.874 404.451,646.873 404.347,646.865 C403.938,646.835 403.524,646.816 403.113,646.801 C402.597,646.781 402.082,646.771 401.564,646.774 C401.054,646.778 400.559,646.789 400.048,646.816 C400.041,646.816 400.033,646.826 400.026,646.826 C399.61,646.848 399.189,646.885 398.772,646.923 C398.669,646.932 398.566,646.934 398.464,646.945 C398.198,646.971 397.928,647.001 397.662,647.034 C397.266,647.084 396.872,647.131 396.479,647.194 C396.107,647.254 395.726,647.323 395.356,647.395 C395.337,647.399 395.315,647.406 395.294,647.41 C395.197,647.43 395.104,647.457 395.008,647.477 C394.721,647.536 394.423,647.589 394.137,647.655 C394.022,647.682 393.904,647.709 393.789,647.737 C393.517,647.804 393.251,647.882 392.979,647.956 C392.597,648.059 392.226,648.168 391.848,648.284 C391.466,648.402 391.083,648.516 390.706,648.647 C390.334,648.776 389.971,648.918 389.601,649.06 C389.463,649.113 389.326,649.159 389.189,649.214 C388.795,649.372 388.407,649.542 388.016,649.715 C387.907,649.764 387.792,649.81 387.683,649.86 C387.592,649.901 387.502,649.946 387.412,649.988 C387.112,650.128 386.827,650.258 386.531,650.406 C386.474,650.435 386.423,650.469 386.367,650.498 C386.055,650.657 385.729,650.819 385.423,650.987 C385.383,651.009 385.344,651.036 385.304,651.057 C384.617,651.438 383.937,651.841 383.277,652.268 C383.274,652.272 383.275,652.281 383.271,652.284 C382.925,652.508 382.577,652.731 382.239,652.967 C381.927,653.186 381.629,653.408 381.325,653.636 C381.303,653.654 381.275,653.668 381.252,653.685 C380.959,653.906 380.672,654.143 380.387,654.372 C380.354,654.399 380.318,654.421 380.285,654.448 C379.812,654.832 379.355,655.234 378.902,655.644 C378.797,655.74 378.681,655.826 378.577,655.923 C378.535,655.962 378.499,656.009 378.457,656.049 C378.332,656.166 378.209,656.286 378.086,656.405 C377.964,656.523 377.836,656.64 377.715,656.761 z M387.611,712.002 C387.81,712.093 388.007,712.184 388.209,712.272 C388.453,712.376 388.694,712.488 388.941,712.589 C389.132,712.666 389.325,712.739 389.518,712.812 C389.977,712.989 390.428,713.163 390.895,713.32 C390.928,713.332 390.961,713.345 390.995,713.356 C391.54,713.539 392.102,713.699 392.657,713.854 C393.148,713.992 393.639,714.115 394.136,714.232 C394.368,714.285 394.6,714.336 394.832,714.386 C395.136,714.45 395.442,714.505 395.746,714.561 C395.986,714.605 396.223,714.666 396.464,714.705 C396.791,714.757 397.117,714.805 397.445,714.848 C397.752,714.888 398.06,714.919 398.366,714.951 C398.627,714.978 398.886,715.002 399.147,715.023 C399.428,715.046 399.709,715.064 399.991,715.079 C400.43,715.104 400.872,715.111 401.31,715.118 C401.414,715.12 401.518,715.134 401.623,715.135 C402.21,715.14 402.79,715.13 403.379,715.105 C403.43,715.103 403.48,715.105 403.53,715.102 C404.697,715.046 405.871,714.917 407.039,714.738 C407.639,714.646 408.241,714.548 408.84,714.423 C408.89,714.413 408.937,714.392 408.987,714.381 C409.39,714.295 409.796,714.199 410.195,714.099 C410.586,714 410.972,713.894 411.359,713.782 C411.482,713.746 411.608,713.726 411.73,713.689 C412.111,713.574 412.48,713.448 412.856,713.32 C413.307,713.167 413.754,712.994 414.197,712.822 C414.233,712.809 414.269,712.799 414.304,712.785 C414.39,712.752 414.478,712.724 414.563,712.69 C415.064,712.49 415.552,712.281 416.047,712.055 L407.285,708.463 C406.974,708.524 406.661,708.567 406.348,708.617 C406.082,708.66 405.818,708.711 405.552,708.746 C405.481,708.756 405.409,708.755 405.339,708.764 C405.066,708.798 404.793,708.822 404.521,708.848 C404.307,708.869 404.096,708.886 403.882,708.902 C403.526,708.928 403.164,708.957 402.807,708.969 C402.763,708.969 402.717,708.976 402.672,708.978 C402.001,708.998 401.33,708.982 400.654,708.953 C400.294,708.937 399.932,708.915 399.57,708.886 C399.219,708.857 398.873,708.817 398.521,708.775 C397.811,708.689 397.097,708.587 396.386,708.445 L387.611,712 z" fill="#FEFEFE"/>
        <path d="M377.716,656.763 L384.027,659.332 C384.226,659.168 384.426,659.011 384.63,658.852 C384.663,658.826 384.699,658.802 384.732,658.776 C384.941,658.615 385.153,658.464 385.368,658.308 C385.395,658.288 385.42,658.262 385.447,658.243 C385.512,658.196 385.581,658.153 385.646,658.107 C386.056,657.817 386.476,657.531 386.905,657.26 C386.911,657.256 386.92,657.255 386.926,657.25 C387.369,656.972 387.817,656.712 388.279,656.456 C388.338,656.424 388.39,656.38 388.449,656.348 C388.748,656.185 389.058,656.038 389.364,655.886 C389.591,655.773 389.819,655.654 390.048,655.547 C390.108,655.52 390.168,655.489 390.229,655.462 C390.64,655.274 391.049,655.111 391.464,654.945 C391.538,654.915 391.61,654.883 391.684,654.854 C392.026,654.72 392.377,654.592 392.721,654.473 C392.935,654.399 393.148,654.32 393.363,654.251 C393.568,654.186 393.772,654.117 393.977,654.057 C394.055,654.034 394.13,654.011 394.207,653.989 C394.339,653.951 394.47,653.92 394.601,653.885 C394.757,653.843 394.916,653.811 395.073,653.772 C395.359,653.7 395.647,653.634 395.933,653.571 C396.128,653.529 396.327,653.482 396.523,653.444 C396.622,653.424 396.727,653.401 396.826,653.383 C397.044,653.343 397.265,653.313 397.483,653.279 C397.556,653.267 397.628,653.255 397.701,653.244 C397.734,653.241 397.768,653.229 397.802,653.224 C398.064,653.185 398.324,653.159 398.587,653.128 C398.75,653.109 398.912,653.093 399.075,653.077 C399.211,653.063 399.348,653.047 399.484,653.035 C399.773,653.01 400.063,652.984 400.352,652.969 C400.359,652.969 400.367,652.959 400.373,652.959 C400.786,652.937 401.206,652.938 401.621,652.934 C402.044,652.931 402.465,652.939 402.89,652.955 C403.262,652.969 403.64,652.988 404.013,653.017 C404.061,653.021 404.11,653.027 404.158,653.031 C404.581,653.066 405.001,653.109 405.425,653.164 C406.171,653.26 406.908,653.386 407.654,653.545 C407.736,653.563 407.817,653.577 407.899,653.595 C407.927,653.601 407.954,653.619 407.982,653.625 C408.361,653.71 408.745,653.798 409.123,653.9 C409.85,654.096 410.579,654.324 411.301,654.582 C411.401,654.618 411.501,654.652 411.601,654.689 C411.923,654.809 412.239,654.936 412.555,655.067 C412.653,655.106 412.751,655.148 412.849,655.189 C413.162,655.32 413.47,655.451 413.775,655.594 C413.877,655.641 413.978,655.691 414.079,655.74 C414.376,655.884 414.68,656.036 414.97,656.189 C415.075,656.244 415.182,656.301 415.286,656.358 C415.354,656.395 415.422,656.43 415.49,656.468 C415.817,656.65 416.134,656.842 416.452,657.036 C416.71,657.193 416.968,657.351 417.219,657.516 C417.342,657.596 417.462,657.676 417.583,657.758 C417.821,657.919 418.058,658.086 418.289,658.253 C418.423,658.35 418.559,658.448 418.691,658.547 C418.901,658.705 419.103,658.866 419.308,659.03 C419.459,659.149 419.61,659.273 419.759,659.397 L426.075,656.843 C425.974,656.741 425.869,656.645 425.768,656.545 C425.673,656.453 425.589,656.351 425.494,656.26 C425.442,656.211 425.392,656.16 425.341,656.112 C425.016,655.805 424.684,655.508 424.347,655.213 C424.162,655.052 423.975,654.889 423.786,654.732 C423.715,654.672 423.638,654.619 423.566,654.559 C423.373,654.4 423.18,654.243 422.983,654.089 C422.713,653.877 422.45,653.666 422.174,653.463 C421.898,653.259 421.618,653.058 421.336,652.864 C419.93,651.89 418.455,651.028 416.927,650.279 C416.663,650.149 416.39,650.021 416.124,649.898 C416.081,649.879 416.039,649.855 415.996,649.835 C415.686,649.695 415.378,649.579 415.065,649.447 C414.869,649.367 414.673,649.278 414.477,649.2 C414.356,649.153 414.237,649.099 414.116,649.054 C414.045,649.027 413.971,649.004 413.9,648.977 C413.334,648.764 412.754,648.564 412.178,648.381 C411.692,648.225 411.21,648.087 410.716,647.954 C410.223,647.821 409.73,647.704 409.231,647.593 C408.83,647.504 408.427,647.425 408.022,647.35 C407.923,647.33 407.826,647.3 407.727,647.283 C407.593,647.259 407.455,647.235 407.32,647.213 C406.944,647.151 406.57,647.104 406.194,647.055 C406.164,647.051 406.135,647.045 406.105,647.041 C405.621,646.98 405.143,646.923 404.66,646.883 C404.556,646.874 404.451,646.873 404.347,646.865 C403.938,646.835 403.524,646.816 403.113,646.801 C402.597,646.781 402.082,646.771 401.564,646.774 C401.054,646.778 400.559,646.789 400.048,646.816 C400.041,646.816 400.033,646.826 400.026,646.826 C399.61,646.848 399.189,646.885 398.772,646.923 C398.669,646.932 398.566,646.934 398.464,646.945 C398.198,646.971 397.928,647.001 397.662,647.034 C397.266,647.084 396.872,647.131 396.479,647.194 C396.107,647.254 395.726,647.323 395.356,647.395 C395.337,647.399 395.315,647.406 395.294,647.41 C395.197,647.43 395.104,647.457 395.008,647.477 C394.721,647.536 394.423,647.589 394.137,647.655 C394.022,647.682 393.904,647.709 393.789,647.737 C393.517,647.804 393.251,647.882 392.979,647.956 C392.597,648.059 392.226,648.168 391.848,648.284 C391.466,648.402 391.083,648.516 390.706,648.647 C390.334,648.776 389.971,648.918 389.601,649.06 C389.463,649.113 389.326,649.159 389.189,649.214 C388.795,649.372 388.407,649.542 388.016,649.715 C387.907,649.764 387.792,649.81 387.683,649.86 C387.592,649.901 387.502,649.946 387.412,649.988 C387.112,650.128 386.827,650.258 386.531,650.406 C386.474,650.435 386.423,650.469 386.367,650.498 C386.055,650.657 385.729,650.819 385.423,650.987 C385.383,651.009 385.344,651.036 385.304,651.057 C384.617,651.438 383.937,651.841 383.277,652.268 C383.274,652.272 383.275,652.281 383.271,652.284 C382.925,652.508 382.577,652.731 382.239,652.967 C381.927,653.186 381.629,653.408 381.325,653.636 C381.303,653.654 381.275,653.668 381.252,653.685 C380.959,653.906 380.672,654.143 380.387,654.372 C380.354,654.399 380.318,654.421 380.285,654.448 C379.812,654.832 379.355,655.234 378.902,655.644 C378.797,655.74 378.681,655.826 378.577,655.923 C378.535,655.962 378.499,656.009 378.457,656.049 C378.332,656.166 378.209,656.286 378.086,656.405 C377.964,656.523 377.836,656.64 377.715,656.761 z M387.611,712.002 C387.81,712.093 388.007,712.184 388.209,712.272 C388.453,712.376 388.694,712.488 388.941,712.589 C389.132,712.666 389.325,712.739 389.518,712.812 C389.977,712.989 390.428,713.163 390.895,713.32 C390.928,713.332 390.961,713.345 390.995,713.356 C391.54,713.539 392.102,713.699 392.657,713.854 C393.148,713.992 393.639,714.115 394.136,714.232 C394.368,714.285 394.6,714.336 394.832,714.386 C395.136,714.45 395.442,714.505 395.746,714.561 C395.986,714.605 396.223,714.666 396.464,714.705 C396.791,714.757 397.117,714.805 397.445,714.848 C397.752,714.888 398.06,714.919 398.366,714.951 C398.627,714.978 398.886,715.002 399.147,715.023 C399.428,715.046 399.709,715.064 399.991,715.079 C400.43,715.104 400.872,715.111 401.31,715.118 C401.414,715.12 401.518,715.134 401.623,715.135 C402.21,715.14 402.79,715.13 403.379,715.105 C403.43,715.103 403.48,715.105 403.53,715.102 C404.697,715.046 405.871,714.917 407.039,714.738 C407.639,714.646 408.241,714.548 408.84,714.423 C408.89,714.413 408.937,714.392 408.987,714.381 C409.39,714.295 409.796,714.199 410.195,714.099 C410.586,714 410.972,713.894 411.359,713.782 C411.482,713.746 411.608,713.726 411.73,713.689 C412.111,713.574 412.48,713.448 412.856,713.32 C413.307,713.167 413.754,712.994 414.197,712.822 C414.233,712.809 414.269,712.799 414.304,712.785 C414.39,712.752 414.478,712.724 414.563,712.69 C415.064,712.49 415.552,712.281 416.047,712.055 L407.285,708.463 C406.974,708.524 406.661,708.567 406.348,708.617 C406.082,708.66 405.818,708.711 405.552,708.746 C405.481,708.756 405.409,708.755 405.339,708.764 C405.066,708.798 404.793,708.822 404.521,708.848 C404.307,708.869 404.096,708.886 403.882,708.902 C403.526,708.928 403.164,708.957 402.807,708.969 C402.763,708.969 402.717,708.976 402.672,708.978 C402.001,708.998 401.33,708.982 400.654,708.953 C400.294,708.937 399.932,708.915 399.57,708.886 C399.219,708.857 398.873,708.817 398.521,708.775 C397.811,708.689 397.097,708.587 396.386,708.445 L387.611,712 z" fill-opacity="0" stroke="#FFFFFF" stroke-width="2"/>
      </g>
      <g>
        <path d="M410.048,696.506 L410.565,696.556 C411.651,697.025 411.233,696.736 411.892,697.301 C412.404,697.828 412.663,698.455 412.663,699.169 C412.663,699.887 412.404,700.505 411.892,701.027 C411.379,701.545 410.761,701.808 410.048,701.808 C409.324,701.808 408.706,701.545 408.189,701.027 C407.672,700.505 407.408,699.887 407.408,699.169 C407.408,698.455 407.667,697.828 408.175,697.301 C408.686,696.75 409.33,696.573 410.048,696.506 z" fill="#FFFFFF"/>
        <path d="M395.637,696.556 C396.75,697.023 396.324,696.733 396.995,697.301 C397.522,697.828 397.776,698.455 397.776,699.169 C397.776,699.887 397.522,700.505 396.995,701.027 C396.478,701.545 395.845,701.808 395.098,701.808 C394.375,701.808 393.757,701.545 393.249,701.027 C392.737,700.505 392.483,699.887 392.483,699.169 C392.483,698.455 392.737,697.828 393.249,697.301 C393.757,696.774 394.375,696.506 395.098,696.506 L395.637,696.556 z" fill="#FFFFFF"/>
        <path d="M383.404,665.714 C383.648,665.714 383.941,665.747 384.276,665.81 C384.611,665.867 384.884,665.929 385.1,665.992 C385.195,666.054 385.301,666.164 385.43,666.322 C385.564,666.48 385.679,666.667 385.789,666.863 C385.895,667.065 385.991,667.266 386.062,667.467 C386.139,667.673 386.197,667.845 386.225,667.965 L386.843,670.829 L417.734,670.829 C418.265,670.83 418.711,671.036 419.06,671.452 C419.41,671.859 419.535,672.31 419.424,672.803 L416.953,686.052 C416.857,686.435 416.656,686.761 416.345,687.02 C416.028,687.278 415.65,687.408 415.205,687.408 L390.354,687.407 L391.154,691.259 C391.216,691.503 391.351,691.709 391.557,691.867 C391.763,692.025 391.988,692.111 392.232,692.111 L414.43,692.111 C414.674,692.111 414.885,692.198 415.062,692.375 C415.235,692.552 415.326,692.758 415.326,693.007 L415.325,694.794 C415.326,695.033 415.239,695.239 415.072,695.402 C414.904,695.56 414.688,695.637 414.43,695.637 L390.79,695.637 C390.541,695.637 390.263,695.613 389.952,695.56 C389.636,695.507 389.368,695.431 389.138,695.344 C389.042,695.311 388.936,695.21 388.817,695.043 C388.692,694.875 388.577,694.688 388.457,694.482 C388.347,694.276 388.247,694.07 388.175,693.86 C388.093,693.654 388.041,693.491 388.017,693.371 L383.083,670.068 C383.026,669.828 382.887,669.632 382.681,669.474 C382.475,669.321 382.245,669.249 382.005,669.249 L378.106,669.249 C377.508,669.249 377.215,668.947 377.215,668.353 L377.215,666.61 C377.215,666.016 377.508,665.714 378.106,665.714 L383.404,665.714 z M414.176,680.079 L407.294,680.079 L407.294,684.684 L413.187,684.718 L414.176,680.079 z M405.392,680.079 L396.926,680.079 L396.926,684.623 L405.392,684.673 L405.392,680.079 z M394.795,680.079 L389.136,680.079 L390.259,684.584 L394.795,684.611 L394.795,680.079 z M394.795,674.29 L387.699,674.311 L388.597,677.915 L394.795,677.915 L394.795,674.29 z M405.392,674.259 L396.926,674.284 L396.926,677.915 L405.392,677.915 L405.392,674.259 z M415.424,674.229 L407.294,674.253 L407.294,677.915 L414.638,677.915 L415.424,674.229 z" fill="#FFFFFF"/>
      </g>
    </g>
  </g>
</svg>
