<?xml version="1.0" encoding="UTF-8"?>
<!DOCTYPE svg PUBLIC "-//W3C//DTD SVG 1.1//EN" "http://www.w3.org/Graphics/SVG/1.1/DTD/svg11.dtd">
<svg version="1.1" xmlns="http://www.w3.org/2000/svg" xmlns:xlink="http://www.w3.org/1999/xlink" x="0" y="0" width="77.918" height="76.722" viewBox="0, 0, 77.918, 76.722">
  <g id="ui-close" transform="translate(-544.543, -502.879)">
    <g>
      <path d="M584.877,575.099 C592.591,575.008 600.307,572.177 606.411,566.524 C615.052,558.523 618.319,546.894 616.043,536.154 L617.961,534.523 C617.795,533.853 617.62,533.187 617.413,532.526 L612.167,536.977 C614.163,546.397 611.302,556.595 603.722,563.614 C598.369,568.572 591.604,571.065 584.837,571.144 C581.215,571.187 577.587,570.532 574.175,569.2 L568.928,573.65 C569.544,573.962 570.164,574.252 570.794,574.525 L572.726,572.893 C576.616,574.411 580.747,575.148 584.877,575.099 z" fill-opacity="0" stroke="#FFFFFF" stroke-width="2" id="path3374"/>
      <path d="M583.128,508.381 C575.413,508.472 567.697,511.304 561.593,516.956 C552.953,524.958 549.685,536.586 551.962,547.326 L550.043,548.957 C550.209,549.627 550.384,550.293 550.591,550.954 L555.838,546.504 C553.841,537.083 556.703,526.885 564.282,519.866 C569.636,514.908 576.4,512.415 583.167,512.336 C586.789,512.293 590.418,512.949 593.83,514.28 L599.076,509.83 C598.46,509.518 597.84,509.228 597.21,508.956 L595.278,510.587 C591.389,509.069 587.257,508.333 583.128,508.381 z" fill-opacity="0" stroke="#FFFFFF" stroke-width="2" id="path3363"/>
      <g id="path3415">
        <path d="M575.864,522.327 C586.464,517.788 598.738,522.691 603.292,533.285 C607.845,543.879 602.958,556.159 592.37,560.727 C581.781,565.294 569.495,560.422 564.914,549.84 C560.333,539.258 565.189,526.965 575.765,522.37" fill="#89DAFF" fill-opacity="0.419"/>
        <path d="M575.864,522.327 C586.464,517.788 598.738,522.691 603.292,533.285 C607.845,543.879 602.958,556.159 592.37,560.727 C581.781,565.294 569.495,560.422 564.914,549.84 C560.333,539.258 565.189,526.965 575.765,522.37" fill-opacity="0" stroke="#FFFFFF" stroke-width="2"/>
      </g>
      <g id="path3366">
        <path d="M571.626,529.203 L574.821,530.504 C574.921,530.421 575.022,530.341 575.126,530.261 C575.143,530.248 575.161,530.235 575.177,530.222 C575.283,530.141 575.391,530.064 575.499,529.985 C575.513,529.975 575.526,529.962 575.54,529.952 C575.572,529.929 575.607,529.907 575.64,529.884 C575.848,529.737 576.06,529.592 576.278,529.455 C576.281,529.453 576.285,529.452 576.288,529.45 C576.512,529.309 576.739,529.177 576.973,529.048 C577.003,529.031 577.029,529.009 577.059,528.993 C577.211,528.911 577.367,528.836 577.523,528.759 C577.637,528.702 577.753,528.642 577.869,528.588 C577.899,528.574 577.93,528.558 577.96,528.544 C578.168,528.449 578.376,528.367 578.586,528.283 C578.623,528.268 578.66,528.251 578.697,528.237 C578.87,528.169 579.048,528.104 579.222,528.044 C579.33,528.006 579.438,527.966 579.547,527.932 C579.651,527.898 579.754,527.864 579.858,527.833 C579.897,527.822 579.935,527.81 579.974,527.799 C580.041,527.78 580.107,527.764 580.174,527.746 C580.253,527.725 580.333,527.709 580.413,527.689 C580.557,527.653 580.703,527.619 580.848,527.587 C580.947,527.566 581.047,527.542 581.147,527.523 C581.197,527.513 581.25,527.501 581.3,527.492 C581.41,527.472 581.522,527.457 581.633,527.439 C581.67,527.433 581.706,527.427 581.743,527.422 C581.76,527.42 581.777,527.414 581.794,527.412 C581.927,527.392 582.059,527.379 582.192,527.363 C582.274,527.353 582.356,527.345 582.439,527.337 C582.507,527.33 582.577,527.322 582.646,527.316 C582.792,527.303 582.939,527.29 583.085,527.282 C583.089,527.283 583.093,527.277 583.096,527.277 C583.305,527.266 583.518,527.267 583.728,527.265 C583.942,527.263 584.155,527.267 584.37,527.275 C584.558,527.282 584.75,527.292 584.938,527.307 C584.963,527.309 584.987,527.312 585.012,527.314 C585.226,527.332 585.439,527.353 585.653,527.381 C586.031,527.43 586.404,527.494 586.782,527.574 C586.823,527.583 586.864,527.59 586.906,527.599 C586.92,527.602 586.933,527.612 586.948,527.614 C587.14,527.658 587.334,527.702 587.525,527.754 C587.894,527.853 588.263,527.968 588.628,528.099 C588.679,528.117 588.729,528.135 588.78,528.153 C588.943,528.214 589.103,528.279 589.263,528.344 C589.313,528.364 589.362,528.385 589.412,528.406 C589.57,528.473 589.726,528.539 589.88,528.611 C589.932,528.635 589.983,528.661 590.035,528.685 C590.185,528.758 590.339,528.835 590.486,528.913 C590.539,528.94 590.593,528.969 590.645,528.998 C590.68,529.017 590.714,529.035 590.749,529.054 C590.915,529.146 591.075,529.243 591.236,529.341 C591.366,529.421 591.497,529.501 591.624,529.584 C591.686,529.625 591.747,529.665 591.809,529.707 C591.929,529.788 592.049,529.873 592.166,529.958 C592.234,530.007 592.302,530.056 592.369,530.106 C592.476,530.186 592.578,530.268 592.681,530.351 C592.758,530.411 592.834,530.474 592.91,530.536 L596.107,529.243 C596.057,529.192 596.003,529.144 595.952,529.093 C595.904,529.046 595.862,528.995 595.813,528.949 C595.787,528.924 595.762,528.898 595.736,528.873 C595.571,528.718 595.403,528.568 595.233,528.419 C595.139,528.337 595.044,528.255 594.949,528.175 C594.912,528.144 594.874,528.118 594.837,528.088 C594.739,528.007 594.642,527.928 594.542,527.849 C594.405,527.742 594.272,527.635 594.133,527.532 C593.993,527.429 593.851,527.328 593.708,527.229 C592.996,526.736 592.25,526.3 591.476,525.92 C591.343,525.855 591.205,525.79 591.07,525.728 C591.048,525.718 591.027,525.706 591.005,525.696 C590.848,525.625 590.692,525.566 590.533,525.5 C590.435,525.459 590.335,525.414 590.236,525.374 C590.175,525.351 590.115,525.323 590.053,525.3 C590.017,525.287 589.98,525.275 589.944,525.261 C589.657,525.154 589.364,525.053 589.072,524.96 C588.826,524.881 588.582,524.811 588.332,524.744 C588.082,524.676 587.833,524.617 587.58,524.561 C587.377,524.516 587.173,524.476 586.968,524.438 C586.918,524.428 586.869,524.413 586.819,524.404 C586.751,524.392 586.681,524.38 586.613,524.368 C586.422,524.337 586.233,524.313 586.043,524.289 C586.028,524.287 586.013,524.284 585.998,524.282 C585.753,524.251 585.511,524.222 585.266,524.201 C585.214,524.197 585.16,524.196 585.108,524.192 C584.9,524.177 584.691,524.168 584.483,524.16 C584.222,524.15 583.961,524.144 583.699,524.146 C583.441,524.148 583.19,524.154 582.931,524.167 C582.928,524.167 582.924,524.173 582.92,524.172 C582.709,524.184 582.496,524.203 582.285,524.222 C582.233,524.226 582.181,524.227 582.129,524.233 C581.995,524.246 581.858,524.261 581.723,524.278 C581.523,524.303 581.323,524.327 581.124,524.359 C580.936,524.389 580.743,524.424 580.556,524.461 C580.546,524.463 580.535,524.466 580.525,524.468 C580.476,524.478 580.429,524.492 580.38,524.502 C580.235,524.532 580.084,524.559 579.939,524.592 C579.88,524.606 579.821,524.62 579.763,524.634 C579.625,524.667 579.49,524.707 579.353,524.744 C579.159,524.797 578.972,524.852 578.78,524.911 C578.586,524.971 578.393,525.028 578.202,525.094 C578.013,525.16 577.83,525.232 577.642,525.304 C577.573,525.33 577.503,525.354 577.434,525.381 C577.235,525.461 577.038,525.547 576.84,525.635 C576.785,525.66 576.726,525.683 576.672,525.708 C576.625,525.729 576.58,525.752 576.534,525.773 C576.382,525.844 576.238,525.91 576.088,525.985 C576.06,525.999 576.034,526.017 576.005,526.031 C575.847,526.112 575.682,526.194 575.527,526.279 C575.507,526.29 575.487,526.304 575.467,526.315 C575.119,526.507 574.775,526.712 574.441,526.928 C574.439,526.929 574.44,526.934 574.438,526.936 C574.263,527.049 574.087,527.162 573.916,527.282 C573.757,527.392 573.607,527.505 573.453,527.62 C573.442,527.63 573.427,527.636 573.416,527.645 C573.267,527.757 573.122,527.877 572.978,527.993 C572.961,528.006 572.943,528.018 572.926,528.031 C572.687,528.226 572.455,528.429 572.226,528.637 C572.173,528.685 572.114,528.729 572.062,528.778 C572.04,528.798 572.022,528.822 572.001,528.842 C571.938,528.901 571.875,528.962 571.813,529.022 C571.751,529.082 571.687,529.141 571.625,529.202 z M576.635,557.168 C576.736,557.214 576.836,557.26 576.938,557.304 C577.061,557.357 577.183,557.414 577.308,557.465 C577.405,557.504 577.503,557.541 577.6,557.578 C577.833,557.668 578.061,557.756 578.297,557.835 C578.314,557.841 578.331,557.848 578.348,557.853 C578.624,557.946 578.909,558.027 579.189,558.106 C579.438,558.176 579.687,558.238 579.938,558.297 C580.056,558.324 580.173,558.35 580.291,558.375 C580.445,558.407 580.599,558.435 580.753,558.463 C580.875,558.486 580.995,558.516 581.117,558.536 C581.282,558.563 581.448,558.587 581.614,558.609 C581.769,558.629 581.925,558.645 582.08,558.661 C582.212,558.674 582.343,558.687 582.475,558.697 C582.617,558.709 582.76,558.718 582.902,558.726 C583.125,558.738 583.348,558.742 583.57,558.745 C583.623,558.746 583.676,558.754 583.728,558.754 C584.026,558.757 584.319,558.752 584.618,558.739 C584.643,558.738 584.669,558.739 584.694,558.737 C585.285,558.709 585.879,558.644 586.47,558.553 C586.774,558.507 587.079,558.457 587.382,558.394 C587.407,558.388 587.431,558.378 587.456,558.372 C587.66,558.329 587.866,558.28 588.068,558.229 C588.266,558.18 588.462,558.126 588.657,558.069 C588.72,558.051 588.783,558.041 588.845,558.022 C589.038,557.964 589.225,557.9 589.415,557.835 C589.643,557.758 589.87,557.67 590.094,557.583 C590.112,557.576 590.131,557.572 590.148,557.565 C590.192,557.548 590.237,557.533 590.28,557.516 C590.533,557.415 590.78,557.309 591.031,557.195 L586.595,555.376 C586.437,555.407 586.279,555.429 586.121,555.454 C585.986,555.476 585.852,555.502 585.717,555.52 C585.682,555.525 585.645,555.524 585.61,555.529 C585.472,555.546 585.333,555.558 585.195,555.571 C585.087,555.582 584.981,555.591 584.872,555.599 C584.692,555.612 584.509,555.626 584.328,555.633 C584.306,555.632 584.282,555.636 584.26,555.637 C583.92,555.647 583.58,555.639 583.238,555.624 C583.056,555.616 582.872,555.605 582.69,555.59 C582.512,555.576 582.337,555.555 582.158,555.534 C581.799,555.491 581.437,555.439 581.078,555.367 L576.635,557.167 z" fill="#FEFEFE"/>
        <path d="M571.626,529.203 L574.821,530.504 C574.921,530.421 575.022,530.341 575.126,530.261 C575.143,530.248 575.161,530.235 575.177,530.222 C575.283,530.141 575.391,530.064 575.499,529.985 C575.513,529.975 575.526,529.962 575.54,529.952 C575.572,529.929 575.607,529.907 575.64,529.884 C575.848,529.737 576.06,529.592 576.278,529.455 C576.281,529.453 576.285,529.452 576.288,529.45 C576.512,529.309 576.739,529.177 576.973,529.048 C577.003,529.031 577.029,529.009 577.059,528.993 C577.211,528.911 577.367,528.836 577.523,528.759 C577.637,528.702 577.753,528.642 577.869,528.588 C577.899,528.574 577.93,528.558 577.96,528.544 C578.168,528.449 578.376,528.367 578.586,528.283 C578.623,528.268 578.66,528.251 578.697,528.237 C578.87,528.169 579.048,528.104 579.222,528.044 C579.33,528.006 579.438,527.966 579.547,527.932 C579.651,527.898 579.754,527.864 579.858,527.833 C579.897,527.822 579.935,527.81 579.974,527.799 C580.041,527.78 580.107,527.764 580.174,527.746 C580.253,527.725 580.333,527.709 580.413,527.689 C580.557,527.653 580.703,527.619 580.848,527.587 C580.947,527.566 581.047,527.542 581.147,527.523 C581.197,527.513 581.25,527.501 581.3,527.492 C581.41,527.472 581.522,527.457 581.633,527.439 C581.67,527.433 581.706,527.427 581.743,527.422 C581.76,527.42 581.777,527.414 581.794,527.412 C581.927,527.392 582.059,527.379 582.192,527.363 C582.274,527.353 582.356,527.345 582.439,527.337 C582.507,527.33 582.577,527.322 582.646,527.316 C582.792,527.303 582.939,527.29 583.085,527.282 C583.089,527.283 583.093,527.277 583.096,527.277 C583.305,527.266 583.518,527.267 583.728,527.265 C583.942,527.263 584.155,527.267 584.37,527.275 C584.558,527.282 584.75,527.292 584.938,527.307 C584.963,527.309 584.987,527.312 585.012,527.314 C585.226,527.332 585.439,527.353 585.653,527.381 C586.031,527.43 586.404,527.494 586.782,527.574 C586.823,527.583 586.864,527.59 586.906,527.599 C586.92,527.602 586.933,527.612 586.948,527.614 C587.14,527.658 587.334,527.702 587.525,527.754 C587.894,527.853 588.263,527.968 588.628,528.099 C588.679,528.117 588.729,528.135 588.78,528.153 C588.943,528.214 589.103,528.279 589.263,528.344 C589.313,528.364 589.362,528.385 589.412,528.406 C589.57,528.473 589.726,528.539 589.88,528.611 C589.932,528.635 589.983,528.661 590.035,528.685 C590.185,528.758 590.339,528.835 590.486,528.913 C590.539,528.94 590.593,528.969 590.645,528.998 C590.68,529.017 590.714,529.035 590.749,529.054 C590.915,529.146 591.075,529.243 591.236,529.341 C591.366,529.421 591.497,529.501 591.624,529.584 C591.686,529.625 591.747,529.665 591.809,529.707 C591.929,529.788 592.049,529.873 592.166,529.958 C592.234,530.007 592.302,530.056 592.369,530.106 C592.476,530.186 592.578,530.268 592.681,530.351 C592.758,530.411 592.834,530.474 592.91,530.536 L596.107,529.243 C596.057,529.192 596.003,529.144 595.952,529.093 C595.904,529.046 595.862,528.995 595.813,528.949 C595.787,528.924 595.762,528.898 595.736,528.873 C595.571,528.718 595.403,528.568 595.233,528.419 C595.139,528.337 595.044,528.255 594.949,528.175 C594.912,528.144 594.874,528.118 594.837,528.088 C594.739,528.007 594.642,527.928 594.542,527.849 C594.405,527.742 594.272,527.635 594.133,527.532 C593.993,527.429 593.851,527.328 593.708,527.229 C592.996,526.736 592.25,526.3 591.476,525.92 C591.343,525.855 591.205,525.79 591.07,525.728 C591.048,525.718 591.027,525.706 591.005,525.696 C590.848,525.625 590.692,525.566 590.533,525.5 C590.435,525.459 590.335,525.414 590.236,525.374 C590.175,525.351 590.115,525.323 590.053,525.3 C590.017,525.287 589.98,525.275 589.944,525.261 C589.657,525.154 589.364,525.053 589.072,524.96 C588.826,524.881 588.582,524.811 588.332,524.744 C588.082,524.676 587.833,524.617 587.58,524.561 C587.377,524.516 587.173,524.476 586.968,524.438 C586.918,524.428 586.869,524.413 586.819,524.404 C586.751,524.392 586.681,524.38 586.613,524.368 C586.422,524.337 586.233,524.313 586.043,524.289 C586.028,524.287 586.013,524.284 585.998,524.282 C585.753,524.251 585.511,524.222 585.266,524.201 C585.214,524.197 585.16,524.196 585.108,524.192 C584.9,524.177 584.691,524.168 584.483,524.16 C584.222,524.15 583.961,524.144 583.699,524.146 C583.441,524.148 583.19,524.154 582.931,524.167 C582.928,524.167 582.924,524.173 582.92,524.172 C582.709,524.184 582.496,524.203 582.285,524.222 C582.233,524.226 582.181,524.227 582.129,524.233 C581.995,524.246 581.858,524.261 581.723,524.278 C581.523,524.303 581.323,524.327 581.124,524.359 C580.936,524.389 580.743,524.424 580.556,524.461 C580.546,524.463 580.535,524.466 580.525,524.468 C580.476,524.478 580.429,524.492 580.38,524.502 C580.235,524.532 580.084,524.559 579.939,524.592 C579.88,524.606 579.821,524.62 579.763,524.634 C579.625,524.667 579.49,524.707 579.353,524.744 C579.159,524.797 578.972,524.852 578.78,524.911 C578.586,524.971 578.393,525.028 578.202,525.094 C578.013,525.16 577.83,525.232 577.642,525.304 C577.573,525.33 577.503,525.354 577.434,525.381 C577.235,525.461 577.038,525.547 576.84,525.635 C576.785,525.66 576.726,525.683 576.672,525.708 C576.625,525.729 576.58,525.752 576.534,525.773 C576.382,525.844 576.238,525.91 576.088,525.985 C576.06,525.999 576.034,526.017 576.005,526.031 C575.847,526.112 575.682,526.194 575.527,526.279 C575.507,526.29 575.487,526.304 575.467,526.315 C575.119,526.507 574.775,526.712 574.441,526.928 C574.439,526.929 574.44,526.934 574.438,526.936 C574.263,527.049 574.087,527.162 573.916,527.282 C573.757,527.392 573.607,527.505 573.453,527.62 C573.442,527.63 573.427,527.636 573.416,527.645 C573.267,527.757 573.122,527.877 572.978,527.993 C572.961,528.006 572.943,528.018 572.926,528.031 C572.687,528.226 572.455,528.429 572.226,528.637 C572.173,528.685 572.114,528.729 572.062,528.778 C572.04,528.798 572.022,528.822 572.001,528.842 C571.938,528.901 571.875,528.962 571.813,529.022 C571.751,529.082 571.687,529.141 571.625,529.202 z M576.635,557.168 C576.736,557.214 576.836,557.26 576.938,557.304 C577.061,557.357 577.183,557.414 577.308,557.465 C577.405,557.504 577.503,557.541 577.6,557.578 C577.833,557.668 578.061,557.756 578.297,557.835 C578.314,557.841 578.331,557.848 578.348,557.853 C578.624,557.946 578.909,558.027 579.189,558.106 C579.438,558.176 579.687,558.238 579.938,558.297 C580.056,558.324 580.173,558.35 580.291,558.375 C580.445,558.407 580.599,558.435 580.753,558.463 C580.875,558.486 580.995,558.516 581.117,558.536 C581.282,558.563 581.448,558.587 581.614,558.609 C581.769,558.629 581.925,558.645 582.08,558.661 C582.212,558.674 582.343,558.687 582.475,558.697 C582.617,558.709 582.76,558.718 582.902,558.726 C583.125,558.738 583.348,558.742 583.57,558.745 C583.623,558.746 583.676,558.754 583.728,558.754 C584.026,558.757 584.319,558.752 584.618,558.739 C584.643,558.738 584.669,558.739 584.694,558.737 C585.285,558.709 585.879,558.644 586.47,558.553 C586.774,558.507 587.079,558.457 587.382,558.394 C587.407,558.388 587.431,558.378 587.456,558.372 C587.66,558.329 587.866,558.28 588.068,558.229 C588.266,558.18 588.462,558.126 588.657,558.069 C588.72,558.051 588.783,558.041 588.845,558.022 C589.038,557.964 589.225,557.9 589.415,557.835 C589.643,557.758 589.87,557.67 590.094,557.583 C590.112,557.576 590.131,557.572 590.148,557.565 C590.192,557.548 590.237,557.533 590.28,557.516 C590.533,557.415 590.78,557.309 591.031,557.195 L586.595,555.376 C586.437,555.407 586.279,555.429 586.121,555.454 C585.986,555.476 585.852,555.502 585.717,555.52 C585.682,555.525 585.645,555.524 585.61,555.529 C585.472,555.546 585.333,555.558 585.195,555.571 C585.087,555.582 584.981,555.591 584.872,555.599 C584.692,555.612 584.509,555.626 584.328,555.633 C584.306,555.632 584.282,555.636 584.26,555.637 C583.92,555.647 583.58,555.639 583.238,555.624 C583.056,555.616 582.872,555.605 582.69,555.59 C582.512,555.576 582.337,555.555 582.158,555.534 C581.799,555.491 581.437,555.439 581.078,555.367 L576.635,557.167 z" fill-opacity="0" stroke="#FFFFFF" stroke-width="2"/>
      </g>
      <path d="M588.824,538.119 C589.021,537.919 589.021,537.72 588.824,537.509 L587.315,536.03 C587.099,535.814 586.897,535.814 586.708,536.03 L583.573,539.178 L580.708,536.323 C580.622,536.24 580.525,536.194 580.411,536.194 C580.301,536.194 580.196,536.24 580.101,536.323 L578.681,537.782 C578.465,537.981 578.465,538.181 578.681,538.388 L581.508,541.213 L578.387,544.362 C578.301,544.451 578.255,544.548 578.255,544.661 C578.255,544.774 578.301,544.876 578.387,544.968 L579.87,546.467 C579.956,546.553 580.055,546.599 580.171,546.602 C580.29,546.604 580.39,546.561 580.476,546.467 L583.624,543.332 L586.449,546.184 C586.536,546.267 586.635,546.31 586.754,546.31 C586.87,546.31 586.97,546.267 587.059,546.184 L588.517,544.725 C588.714,544.526 588.714,544.327 588.517,544.119 L585.649,541.294 z M590.892,533.949 C591.897,534.954 592.649,536.092 593.148,537.356 C593.646,538.623 593.897,539.914 593.897,541.24 C593.897,542.564 593.646,543.86 593.148,545.127 C592.649,546.389 591.897,547.523 590.892,548.532 C589.883,549.537 588.746,550.294 587.476,550.796 C586.207,551.3 584.913,551.551 583.595,551.551 C582.271,551.551 580.977,551.3 579.708,550.796 C578.438,550.294 577.303,549.537 576.295,548.532 C575.29,547.523 574.535,546.389 574.036,545.127 C573.538,543.86 573.287,542.564 573.287,541.24 C573.287,539.914 573.54,538.62 574.044,537.35 C574.546,536.081 575.295,534.949 576.295,533.949 C577.303,532.943 578.438,532.188 579.708,531.684 C580.977,531.18 582.271,530.93 583.595,530.93 C584.913,530.93 586.207,531.18 587.476,531.684 C588.746,532.188 589.883,532.943 590.892,533.949" fill="#FFFFFF"/>
    </g>
  </g>
</svg>
