<svg xmlns="http://www.w3.org/2000/svg" width="744.094" height="1052.362"><defs><filter id="f" width="1.287" height="1.185" x="-.143" y="-.092"><feGaussianBlur stdDeviation="18.151"/></filter><filter id="e" width="1.291" height="1.184" x="-.146" y="-.092"><feGaussianBlur stdDeviation="18.151"/></filter><filter id="d" width="1.293" height="1.183" x="-.146" y="-.092"><feGaussianBlur stdDeviation="18.151"/></filter><filter id="c" width="1.28" height="1.174" x="-.14" y="-.087"><feGaussianBlur stdDeviation="18.151"/></filter><filter id="b" width="1.281" height="1.174" x="-.14" y="-.087"><feGaussianBlur stdDeviation="18.151"/></filter><filter id="a" width="1.286" height="1.175" x="-.143" y="-.087"><feGaussianBlur stdDeviation="18.151"/></filter></defs><g><path fill="#dae1df" d="M190.36 506.65c0-83.17 0-166.34 0-249.5 101.66 0 203.33 0 305 0 0 166.33 0 332.66 0 499-101.67 0-203.34 0-305 0 0-83.17 0-166.34 0-249.5z" transform="matrix(2.558 0 0 2.307 -508.052 -651.252)" filter="url(#a)"/><path fill="#f8f791" d="M313.36 755.14c-30.2 6.06-47.42-33.32-77.72-26.64-15.35 26.13-60.17 2.16-50.1-25.26 7.6-33.68-1.7-69.07 6.36-102.87 19.12-15.58 49.02-40.82 15.43-59.12-6.8-22.12 20.18-35.7 28-54.3 15.48-22.44 29.18-54.9 11.46-79.85-16.43-20.46-50.86-22.73-58.53-50.77-5.52-29.42-5.23-64.48 15.4-88.2 25.9-20.73 60.73-9.1 90.87-9.66 49.98 1.34 99.94-1.7 149.92-1.67 17.1.57 46.4-9.54 49.8 15.66.22 160.76.04 321.8.1 482.65-60.34.4-120.67.47-181 .04zm170-50.88c-1.3-10.4-2.3 5.76 0 0zm-14-2.1l.1-.5-.1.5zm-151-20.03c4.08 16 9.58-9.45 0 0zm62.95-2.42c10.28 11.43 3.73-10.05 0 0zm-64.85-5.6c9.55 1.22 3.2-8.28 0 0zm-.04-6.95c8.57 2.42 1.76-6.28 0 0zm-19.04-5.38c13.97 4.5-2.84-5.12 0 0zm144 .98c-4.58 5 9.6 5.56 0 0zm-128.68-2.05c9.17-15.44-12.4.04-1.4.48l1.2-.4.2-.08zm-1.32-7.5c9.92-.85-4.6-4.63 0 0zm138.02-5.58c10.26.98-6.2-6.77 0 0zm-29.77-1.15c7.1-8.24-7.6 3.92 0 0zm25.3-1.42c-6.1 3.2 6.25 2.1 0 0zm17.17-.52c-.9-11.46-5 .8 0 0zm-107.7 1.24c10.68.1 1.34-5.37 0 0zm9.08-7.8c-3.05-9.5-5.5 2.1 0 0zm39.5-.25c3.15-4.66-5.05.57 0 0zm24.16 1.84c-5.6-6.37 1.9 5.68 0 0zm51.76 1.6c7.17 2.73.36-6.1 0 0zm-130.5-5c-.52 8.77 8.04-4.42 0 0zm18.2-7.2c1.84-8.47-5.73-.53 0 0zm.8-6.54c-5.27-9.95-.06 5.15 0 0zm28.7-1c-13.5-.07 2.85 4.77 0 0zm-188.7 1.7c1.2-10.48-3.8 7.45 0 0zm76.42-.58c-.07-17.82-9.7 10.04 0 0zm84.38-8.92c-.52 5.57 10.54-6.75 0 0zM259 612.64c15.86-4.2-8.53-7.24 0 0zm55.1-10.07c21.45 2.6-2.42-16.73 0 0zm67.6-11.17c17.14.87-9.48-9.38 0 0zm-93.86-16.87c11.17 1.06-3.58-10.57 0 0zm-3.93-6.13c9.06 4.75-.9-9.66 0 0zm-5.36-2.5c6.42 15.66 6.5-7.77 0 0zm2.4-10.5c-4.38-9.87-1.07 4.5 0 0zm-10.76-1.08c8.38-3.32-7.4-3.04 0 0zm-16-5.65c22.56.12-8.55-15.57 0 0zm22.18 2.98c8.92-5.8-9.27-4.5 0 0zm1.37-6.03c10.3-13.22-12.65 1.92 0 0zm-43.9-7c9.48 11.97 6.16-13.64 0 0zm46.86 1.86c12.65-8.17-10.87-1 0 0zm2.2-6.27c12.6-2.82-9.3-6.6 0 0zm6.46-20.55c9.34 3.45-3.5-8.26 0 0zm12-1.5c24.76-10.9-28.03-21.33-5.74-2.98 1.65 1.5 3.7 2.14 5.74 2.97zm-37.33-9.58c16.22-7.32-7.57-8.33 0 0zm14.87-17.5c7 2.06 1.13-6.02 0 0zm-4.54-2.73l.86-.04-.86.04zm7-8.18c15.8-8.67-12.93-3.72 0 0zm-23.25-5.6c-5.6-6.37 1.9 5.68 0 0zm-7.75-5.9c11.5-13.26-11.48 1.4 0 0zM263 461.6c-8.5 8 10.36 1.5 0 0zm18.14-14.7c14.72 12.64-.14-12.6 0 0zm2.22-13.75c2.2-10.02-3.23 3.85 0 0zm-32-29.94l.3-.3-.3.3zm-49.92-10.05c9.97 5.9 1.86-11.2 0 0zm33.73-9.75c5.28-14.38-9.28.67 0 0zm18-3.46c12.12-16.25-11.33.66 0 0zm-6.1-4.4c11.26 14.9 5.85-14.83 0 0zm10.3-.4c3 7.47 6.67-5.05 0 0zm-22.5-18.95c-4.98 3 13.6 5 0 0zm9.32-5.38c7.83-24.63-14.97 9.1 0 0zm-39.88-2.17c15.34-.6-4.12-10.4 0 0zm32.04 376.3c-4.65-7.2 1.96-4.67 1.32.44l-1.32-.46zm13.44-151.9c-5.1 5.3-3.15-5.2 0 0zm-40.44-16.28c-10.7.1-1.35-5.37 0 0zm-18-42.56c-4.1-13.64 7.2 7.07 0 0zm26.06-1.93c-17.23 3.14 8.8-12.22 0 0zm-15.62-4.22c-13.25-8.27 8.07-6 0 0zm31.77-2.14c-14.6-1.78 1.7-9.78 0 0zm-25.2-17.75c-7.74-3.68 1.73-6.18 0 0zm8.8-1.1l-1.2.17 1.2-.16zm11.74-1.82c-12.6-1.16 10.06-3.9 0 0zm-35.3-1.78c-4.33-11.6 5.73 5.46 0 0zm16.76-5.3c-11.48-7.46 4.8-2.6 0 0zm-18.78-3c4.34 7.06-8.73 2.3 0 0zm40.78-2c-11.48-7.46 4.8-2.6 0 0zm-27.8-2.52c-8.57-2.7.63-6.52 0 0zm31.38-.35c-3.38 14.53-10.14-10.34 0 0zm-19.58-6.63c-7.3.77-.3-6.26 0 0zm9-.1c6.02-2.66-8.52 9.15 0 0zm-17-1.4c-7.73-3.68 1.74-6.18 0 0zm16.88-3.75c-27.42 4.54 10.13-36.54 2.84-6.84-.66 2.4-1.84 4.58-2.84 6.84zm-8.88-1.63c-11.8-10.76 8.77-3.72 0 0zM196.1 404.5c-6.85 1.15-1.5-5.96 0 0z" transform="matrix(2.558 0 0 2.307 -508.052 -651.252)" filter="url(#b)"/><path fill="#e9e067" d="M190.6 693.8c-4.6-39.94-4.76-85.47 22.8-117.8 30.33-5.2-5.46-30.55-11.7-36.57 7.76-27.5 41.57-40.54 39.36-73.03 5.5-19.22 21.06-46.95 44.95-35.68 24.07 13.9 19.36 48.04 3.5 66.45-21.4 24.22-41.53 57.36-32.56 90.9 9.38 22.1 44.73-2.08 19.78-14.68 1.2-33.17 52.12-7.87 47.5 17.23 2.9 20.85 38.4 38.05 37.46 6.76 2.07-27.24 45.02-37.75 53.22-8.68 4.5 24.1 26.6 52.78 51.83 31.9 24.74-9.2 38.48 18.14 19.38 34.2-16.13 24.04-45.32 37.3-73.87 37.4-27.3 4.2-30.8 57.56 2.43 50.97 11.1-7.3 46.1 2.26 20.06 10.76-28.9 5.27-58.24-4.22-87.38 0-18.82.92-38 4.8-56.66 1.4-17.38-13.3-46.66-54.03-62.2-16.83-21.9 23.1-56.03-9.17-41.45-34.2 1.35-3.46 2.8-6.9 3.58-10.53zm155.67 45.7c-2.26-10.97-2.46 7.93 0 0zm-154.23-1.54l-.2.42.2-.42zm151.52-3.55c29.06-13.05 17.7-64.2-13.58-65.26-30.32 9.5-15.17 52.3 7.45 62.3l3 1.63 3.13 1.34zm74.2-47.83c4.65-16.1-11.57 8.28 0 0zm-99.4-4.44c4.08 16 9.58-9.45 0 0zm62.95-2.42c10.28 11.43 3.73-10.05 0 0zm-64.85-5.6c9.55 1.22 3.2-8.28 0 0zm130.84-9.45c-4.16-8.85-5.57 2.34 0 0zm-130.9 2.5c8.57 2.42 1.76-6.28 0 0zm-28.54-1c-.33 6.72 4.3-4.4 0 0zm9.5-4.38c13.97 4.5-2.84-5.12 0 0zm144 .98c-4.58 5 9.6 5.56 0 0zm-128.68-2.05c9.17-15.44-12.4.04-1.4.48l1.2-.4.2-.08zm142.8-6.94c.86-18.03-8.76 6.46-.7 1.04l.7-1.04zm-144.12-.55c9.92-.85-4.6-4.63 0 0zm-7.8-5.1c17.87 4.97-5.56-12.26 0 0zm116.05-1.63c10.58-18.8-22.85 3.5 0 0zm-6.24-18.82c-9.34 3.45 3.48-8.26 0 0zm4.5-7.5c3.1 6.16-5.9-1.88 0 0zm27.05 24.9c-6.1 3.2 6.25 2.1 0 0zm34.46-3.9c7.5-1.24-1.86-5.82 0 0zm-164-5c3 7.46 6.68-5.06 0 0zm157.5-1c7.98-4.98-3.1-5.13 0 0zM366.4 631.6c16.9 3.86-3.78-13.1 0 0zm31.75-1.7c17.22 3.56-2.86-14.48 0 0zm-180.8-5.75c11.48-7.46-4.8-2.6 0 0zm-10-1.03c1.22-10.48-3.8 7.45 0 0zm76.43-.58c-.07-17.82-9.7 10.04 0 0zm-24.8-9.9h1.4-1.4zm55.13-10.07c21.45 2.6-2.42-16.73 0 0zm-80.36-9.6c11.36-5.94-11.95 1.12 0 0zm-8.46-3.42c-10.74-13.57 12.72 2.76 0 0zm156.42 1.85c15.97 2.62-3.86-10 0 0zm-75.8-9.5c12.1-13.88-12.6 1.1 0 0zm59.55-3.14l.8-.3-.8.3zm-77.6-4.23c11.16 1.06-3.6-10.57 0 0zm-3.94-6.13c9.06 4.75-.9-9.66 0 0zm-13.7-14.2c8.7-3.7-8.06-2.55 0 0zm-16-5.53c22.54.12-8.57-15.57 0 0zm22.16 2.98c8.92-5.8-9.27-4.5 0 0zm1.37-6.03c10.3-13.22-12.65 1.92 0 0zm-43.9-7c9.48 11.97 6.16-13.64 0 0zm46.86 1.86c12.65-8.17-10.87-1 0 0zm2.2-6.27c12.6-2.82-9.3-6.6 0 0zm-10.46-24.33c12.9 12.26.36-13.9 0 0zm-8.4-7.3c16.2-7.32-7.58-8.33 0 0zm18.3 1.62c8.3 2.92-2.64-7.64 0 0zm6.1-17.05c10.38-14.9-20.96-2.66-.26-.2l.25.2zm-9.54-2.07c7 2.05 1.13-6.03 0 0zm19.05-2.6c12.6 6.95.88-11.8 0 0zm-23.6-.14l.87-.04-.86.04zm7-8.72c14.63-4.72-7.4-8.98 0 0zm-23-5.58c20.58-12.53-17.34-2.34 0 0zm1.1-7.3c-15.92 4.07 3.8-10.7 0 0zm-9.1 1.92c11.5-13.26-11.48 1.4 0 0zm32-19.12c-6.4 1.58 5.3 3.74 0 0zm-14.16-3c16.26-1.66-7.25-9.4 0 0zm19.6-7.44c-3.34-15.8-6.53 10.35 0 0zm197.56 304.87c-32.67 12.3-3.15-52.2 7.1-16.75 1.86 6 2.15 17.53-7.1 16.75zm-10.5-.82c3.33 6.2-9.4 2.54 0 0zm-238.5-12.2c-4.65-7.2 1.96-4.67 1.32.44l-1.32-.46zm-45.72-97.3c3.26 4.87-7.7-3.86 0 0zm248.5-25.06c-25.47-17.7 37.6-27.24 17-3.94-4.8 4.02-11.3 2.96-17 3.93zM249.8 573.05c-5.1 5.28-3.15-5.2 0 0zm102.85-11.66c-13.07-3.7 5.88-8.63 0 0zm-29.54 1.67c-11.86-.88 8.04-3.8 0 0zm44.9-2.42c-13.5.8 5.6-5.4 0 0zm-158.64-3.88c-10.7.1-1.35-5.37 0 0zm95.56-3.97c-15.74-7.4 15.8-13.12.17-.36l-.18.36zm-113.56-38.6c-3.9-10.78 5.5 5.22 0 0zm26.06-1.93c-17.23 3.14 8.8-12.22 0 0zm-15.62-4.22c-13.25-8.27 8.07-6 0 0zm105.27.47l-.3-.48.3.48zm-73.5-2.6c-14.6-1.8 1.7-9.8 0 0zm82.45-2.44c-14.46-6.84 6.92-6.74 0 0zm-8.16-5.33c-9.68-7.46 7.7 2.42 0 0zm14.7-8.85c-13.98 11.56-3.36-10.37 0 0zm-114.2-1.15c-7.73-3.68 1.74-6.18 0 0zm8.82-1.1l-1.22.17 1.22-.16zm11.73-1.82c-12.6-1.16 10.06-3.9 0 0zm-35.3-1.78c-4.33-11.6 5.73 5.46 0 0zm16.76-5.3c-11.48-7.46 4.8-2.6 0 0zm-18.78-3c4.34 7.07-8.73 2.3 0 0zm40.78-2c-11.48-7.46 4.8-2.6 0 0zm-27.8-2.52c-8.57-2.7.63-6.52 0 0zm31.38-.35c-3.38 14.53-10.14-10.34 0 0zm239.95-3.02c-9.87 6.68.28-5.22 0 0zm-259.54-3.6c-7.3.76-.3-6.27 0 0zm9-.1c6.02-2.67-8.52 9.14 0 0zm-17-1.4c-7.73-3.7 1.74-6.2 0 0zm16.88-3.76c-27.3 3.6 9.16-35.2 4.02-8.8l-1.82 4.48-2.2 4.32zm-8.88-1.63c-11.8-10.76 8.77-3.72 0 0zm218.7-6.9c-24.38-21.13-56.98 3.46-84-8.26-12.44-32.6 35.38-17.37 50.6-28.43-5.46-32.98-46.8 1.7-67.5-9.35-23.25-20.4 14.08-25.27 29.5-22.54 24.2.72 50-2.7 68.52-19.82 19.5-18.72 58.64-17.48 60.16 15.3 4 31.43-19.65 62.86-48.97 72.28l-4.12.66-4.18.17zm9.3-11.22c9.34 3.45-3.5-8.26 0 0zm-87-2.5c17.1-.47-9.33-10.07 0 0zm17-1c13.46.7-6.07-9.8 0 0zm25 .83c12.55 9.9 2.2-11.67 0 0zm71-.95c-4.8 8.4 5.8-3.6 0 0zm-4.27.5c7.77.1.96-6.23 0 0zm-79.74-7.6c12.76-4.42-10.14-7.1 0 0zM428 422.7c14-.58-8.13-10.85 0 0zm41.56-20.75c10.7-14.98-10.43.57 0 0zm-164.67-6.87c17.73.15-8.4-11.85 0 0zm62.78 1.67c12.07-9.72-8.36-5.58 0 0zm40.13.48c9.76-17.03-11.88 2.8 0 0zm-79.35-2.9c21.47 3.28-.97-17.33 0 0zm98.65-4.76c-4.72 5.3 6.18-.64 0 0zm42.95 3.85c-13.48-.07 2.86 4.77 0 0zm-22.7-1.33c5.23-5.23-3.82-4.73 0 0zm-49 .1c6.63 4.34.48-7.67 0 0zm29.7-17.24l-.2.42.2-.42zm43.06-4.4c-5.6-6.37 1.9 5.68 0 0zm5.26-5.4c14.8 2.47-5.92-12.2 0 0zm17.16 66c.66-6.22.66 6.2 0 0zm-248.97-24.78c-32.63 1.27-64.06-33.1-53.62-65.62 14.88-21.14 43.65-4 50.33 15.58 6.17 15.54 4.46 33.68 3.3 50.04zm-43.1-13.23c9.96 5.9 1.85-11.2 0 0zm9.7-6.85c7.3-8.23-5.5-3.14-2.9.88l2.9-.88zm24.02-2.9c5.28-14.38-9.28.67 0 0zm-8.8-26.75l.04-.53-.04.53zm8.5-.46c-4.98 3 13.6 5 0 0zm-38.76 48.3c-6.85 1.15-1.5-5.96 0 0zm78.72-1.3c-12.76-17.45 20.33 2.37 0 0zm5.35-8.3c13.72-2-4.8-8.57 0 0zm213.35 6.25c.66-6.2.66 6.2 0 0zm-250.16-23.42c2.56-18.33 15.32 10.27 0 0zm83.58-12.33c-23.15-22.4 42.77-23.17 17.42-2.8-5.7 1.5-11.65 1.6-17.42 2.8zm31.8-8.13c8.66-5.36-4.3-4.8 0 0zm-33.87-4.1c16.73 5.17-3.46-15.13 0 0zm12.17-4.2l-.2.4.2-.4zm156.4 12.6c2.06 7.38-4.62-4.26 0 0zm.1-5.92c3.15 6.02-4.87-2.65 0 0zm-302.85-28.5c3.95 6.13-7.37.17 0 0zm-.18-11c.66-6.2.66 6.2 0 0zm.03-5.5c3.14 6.02-4.88-2.65 0 0zm91.06-1.16c-16.1-30.46 49.4-2.82 3.64.4l-3.63-.4zm9.76-12.3c-13.74 1.92-1.5 32.7-2.27 9.53l.76-4.85 1.5-4.67zm26.35 11.44c-14.45-19.4 16.9 4.8 0 0zm13.45.26c-17.38-13.35 15.3-4.77 0 0zm20.98.1c-8.9-15.2 19.4.2.23-.1l-.23.1zm17.7.1c.53-19.88 16.55 13.76 0 0zm21.04.07c-2.6-17.65 18.8 9.64 0 0zm10.85-15.52c16.72 4.2-4.56-11.43 0 0zm-115.84-19.32c9.4-14.66 11.64 15.62 0 0zm52.9-.55c7.72-16.1 5.47 15.2 0 0zm40.9-1.27c6.68-16.33 5.9 13.78 0 0zm-189.24-10.94c2.06 7.4-4.62-4.24 0 0zm98.73-4.1c-8.07 1.6 4.4-6.2 0 0z" transform="matrix(2.558 0 0 2.307 -508.052 -651.252)" filter="url(#c)"/><path fill="#6289c7" d="M205.1 754.4c3.22-4.22-.07 6.65 0 0zm29 .1c-6.85 1.15-1.5-5.96 0 0zm82.46-.34c26.23-.17 52.46-.34 78.7-.5 3.5-19.02 22.92 15 1.43 2.04-31.73-3.24-63.6.76-95.37-1.28 5.08-.14 10.15-.23 15.23-.26zm164.8-19.6c-27.3 4.52 7.37-14.9 0 0zm-90-.76c-28.9 5.03 7.56-41.22 9.1-11.9 1.38 5.14-2.2 15.2-9.1 11.9zm-155-8.86c-4.65-7.18 1.96-4.66 1.32.45l-1.32-.46zm94-8.75c-20.77 2.37 7.08-18.44 0 0zm133.36-1.97c2.36-19.58 9.77 13.84 0 0zm-26.86-10.08c.33 6.72-4.32-4.4 0 0zm-10.5-4.13C372.34 698.75 317 664 302.02 610.36c13.32-27.24 39 4.1 48.24 13.85 15.64-3.57 27.3-52.1 40.9-25.18 1.45 26.6 31.32 42.76 28.6 70.3-4.54 9.78-11.62 30.85 6.6 30.7zm-45.05-20.3c10.28 11.4 3.73-10.07 0 0zM317 685.34c-5.37-18.8 14.06 3 0 0zm147.5-6.72c-23.97-7.82-4.24-51.8 16.22-42.92 12.62 15.44-12.15 29.14-16.22 42.93zm15.26-35.48c2.42 8.4 4.94-5.85 0 0zm-166.72 36.33c-28.65-2.75 17.46-17.35 0 0zm-25.06-14.5c-15.28 1.22 3.45-11.05 0 0zm117.4-22.83c-14.82 2.48 5.9-12.2 0 0zm20-5.3c-18.55-10.57 24.4-12.9 1.2-.9l-1.03.78-.17.13zM198.2 623.8c-15.97-27.83 26.92-57.9 50.1-39.1 20.1 26.6-23.17 41.85-43.84 36.94-2.17.47-4.2 1.4-6.27 2.16zm9.16-.63c6.32-14.14-10.16-.34 0 0zM232 608.7c11.5-8.4-13-4.36 0 0zm8.36-5.05c23.6 4.05-12.3-13.6 0 0zm39.6 21.64c-1.67-16.82 9.78 10.17 0 0zm74.4-1.27c-8.43-.26 3.48-6.4 0 0zm-86.7-3c6.2-4.42-1.33 6.72 0 0zm8.4-2.9c-7.1-14.4 9.8 4.12 0 0zm-19.9-2.67c-8.06 1.6 4.42-6.2 0 0zm3.23-2.25c-11.28-2.42 9.74-2.5 0 0zm181.27-12.06c-11.26-24.23 34.35-4.95 8.75 1.12-2.75.24-6.44 1.18-8.75-1.12zM279.97 577c-9.3-20.26 16.46.62 3.2 1.34l-3.2-1.35zm43.83-3.38c-12.05-5.07 8.65-1 0 0zm-74-.56c-5.1 5.28-3.15-5.2 0 0zm19.3-9.48c-12.84-10.7 13.37-2.72 0 0zm7.26-11.93c8.92-5.8-9.27-4.5 0 0zm-82.25 5.74c-16.77-27.35 23.94-60.82 48.8-42.8 22.55 26.72-21.48 52.88-45.52 40.87l-3.27 1.92zm39.9-19.27c12.26-2.67-8.02-8.56 0 0zm-24.64 18.64c-10.7.1-1.35-5.37 0 0zm66.08-13.9c-6.26 7.05-1.7-8.12 0 0zm2.97-6.16c-8.1-1.8 5.74-4.06 0 0zm-10.04-22.05c-7.83.4.9-6.18 0 0zm-77-.44c-3.9-10.78 5.5 5.22 0 0zm72.87-.3c-31.1 15.1-30.36-54.3-.37-37.83 12.16 7.67 16.72 31.83.37 37.83zm-.44-9.32l.8-.58-.8.58zm9.56 9.07c-8.5 2.57 3.86-7.17 0 0zm-55.94-1.38c-17.23 3.14 8.8-12.22 0 0zm59.94-.85c-13.55-8.56 9.33-4.93 0 0zm-75.56-3.37c-13.25-8.27 8.07-6 0 0zm31.77-2.14c-14.6-1.78 1.7-9.78 0 0zm68.3-3.75c-12.13-3.25 4-4.13 0 0zm-93.5-14c-7.74-3.68 1.73-6.18 0 0zm8.8-1.1l-1.2.17 1.2-.16zm11.74-1.82c-12.6-1.16 10.06-3.9 0 0zm61.93-3.3c-12.72-14.04 13.38.4 0 0zm-97.22 1.52c-4.33-11.6 5.73 5.46 0 0zm16.76-5.3c-11.48-7.46 4.8-2.6 0 0zm-18.78-3c4.34 7.06-8.73 2.3 0 0zm40.78-2c-11.48-7.46 4.8-2.6 0 0zm-27.8-2.52c-8.57-2.7.63-6.52 0 0zm31.38-.35c-3.38 14.53-10.14-10.34 0 0zm9.4-3.28c-12.98 2.46 6.65-5.8 0 0zm-28.98-3.35c-7.3.77-.3-6.26 0 0zm9-.1c6.02-2.66-8.52 9.15 0 0zm-17-1.4c-7.73-3.68 1.74-6.18 0 0zm78.43-2.6c-11.76-4.46 5.5-9.2 0 0zm-61.56-1.15c-27.42 4.54 10.13-36.54 2.84-6.84-.66 2.4-1.84 4.58-2.84 6.84zm-8.88-1.63c-11.8-10.76 8.77-3.72 0 0zm48.57-6.2c-9.17-17.47 26.76.66 1.4-.3l-1.27.28-.13.03zm-24.98-1.73c-11.05-.1 7.14-3.88 0 0zm44.1-.48c-16.26 3.76 3.5-9.83 0 0zm35-5.9c-9.15-20.62 19.88-.25 0 0zm31.33-.4c-12.37-23.04 17 8.82 0 0zm7.98-4.9c17.34 5.2-1.97-17.53 0 0zm12.87 4.48c-20.36-32 30.2 2.28 0 0zm21.48.52c-14.46-7.56 12.52-4.84 1.92-.34l-1.28.22-.63.12zm45.32.32c-12.9-24.6 20.43 3.2 0 0zm23.04-1.35c-21.85-8.56 15.8-7.1 0 0zm7.8-13.97c6.7-14-5.88 3.2 0 0zm-59.65 14.06c-18.17-18.96 23.13-3.36 0 0zm21.58-.4c-17.84-.53 9.55-11.1 0 0zm-177.92-2.67c.33 6.72-4.32-4.4 0 0zm35.5 0c-4.97 5.58-2.97-5.4 0 0zm3.4-7.62c-9.16.24 4.98-5.25 0 0zm140-14.76c-7.55 5.58 1.03-8.04 0 0zM267 411.35c-7.73-7.74 7.58 3.63 0 0zm-22.62-5.2c-14.2-6.25 7.34-5.3 0 0zm-48.25-1.66c-6.85 1.15-1.5-5.96 0 0zm225.52-1.14c-18.63-23.64 23.07.78 0 0zm-146.76-1.38c-16.63-21.47 19.52.54 0 0zm18.2-1.4c-2.27-23.53 12.62 13.67 0 0zm10.35-1.46c15.97 4.8-1.75-13.9 0 0zm15.03 1.44c-28.1-12.48 13.13-11.65 0 0zm19.77-4.1c-15.02-16.68 18.25.56 0 0zm22.27 5.06c-17.5-2.88 6.73-12.7 0 0zm7.9-13.9c4.87-13.54-8.37 7.05 0 0zm9 5.6c-12.76-34.94 28.1 7.4 0 0zm22 7.93c-10.86-20.36 16.75 2.6 0 0zm40.22 0c-19.87-12.8 17.68-2.78 0 0zm19.45 1.3c-22.5-26.62 28.98-.47 0 0zm-235.2-6.42c-30.38 12.5-.37-43.3 7.23-13.13.35 5.16-1.7 11.5-7.22 13.13zm-26.5-15.44c-4.6 6.3 5.43-2.43 0 0zm35.16-16.95c7.3 3.03.26-6.7 0 0zm3.86-6.57c-.03-2.3-.02-1.2 0 0zm0 39.3c-3.3-21.24 14.53 4.4 0 0zm243.34-3.78c-.95-30.6 15.26 8.92 0 0zm-228.34-19.95c-12.66 1.96 5.32-10 0 0zm4.24-1.75l-.44-.45.44.45zm59.3-9.66c-5.4-22.18 23.3 12.72 0 0zm12.37-4.85c10.37-12.07-12.05 2.4 0 0zm12.25 5.5c-20.36-4.67 8.73-12.17 0 0zm10.5.12c-14.45-5.23 2.57-9.2 4.02-1.3l-4.03 1.3zm7.84-14.36c2.95-10.86-5.04 6.38 0 0zM199.5 337.28c-14.44-10.08 13.9-1.62 0 0zm139.86-1.63c-7.83.4.9-6.18 0 0zm-112.54-3.57c-9.96-5.8 4.22-3.45 0 0zm93.9-23.8c-19.16-.75 7.6-11.88 0 0zm11.37-.26c1.83 7.95-6.22.96 0 0zm23.76.48c-19.7-2.77 9.3-11.4 0 0zm17.1-.18c-16.5-5.74 11.62-7.6 0 0zm11 .1c-10.06-5.06 8.5.78 0 0zm9.34.3c-18.47-10.53 13.53-7.47 0 0zm-123.44-12.07c5.83-16.5 5.3 12.34 0 0zm22.97 1.75c.06-24.77 18.84 11.1 2.05 2.36-.68-.8-1.37-1.58-2.05-2.36zm46.5 7.8c-12.73 11.25-4.13-14.38 0 0zm25.78-18.13c-3.43 13.23-7.84-8.34 0 0zm18.4-.26c-7.9 2.9 3.46-6.72 0 0zm-43.68-.72c-7.36 2.07 2.05-6.05 0 0zm6.54.04c-8.1-10.83 7.3 3.63 0 0z" transform="matrix(2.558 0 0 2.307 -508.052 -651.252)" filter="url(#d)"/><path fill="#bd683a" d="M205.1 754.4c3.22-4.22-.07 6.65 0 0zm126.96-.24c23.34 6.47 47.4-7.86 70.34-1.74-16 7.64-48.23-.97-70.34 1.74zm149.3-19.6c-27.3 4.52 7.37-14.9 0 0zm-90-.76c-28.9 5.06 7.52-41.23 9.06-11.9 1.4 5.13-2.15 15.2-9.07 11.9zm-61-17.6c-19.02 3.26 5.36-20.6 0 0zm133.36-1.97c-6.78 14.76-6.6-8.83 0 0zm24.08-2.78c-10.8 1.77 4.37-8.93 0 0zm-50.94-7.3c.33 6.72-4.32-4.4 0 0zm52.73-.2c-8.1 6.42-.48-6.9 0 0zm-63.24-3.93c-29.02 13.92-56.8-32.9-33.3-53.17 31.1-15.2 35.5 32.1 20.87 46.9 2.06 4.6 7.48 7.4 12.43 6.27zm31.5.13c3.42 6.54-6.48-2.56 0 0zm-141-15c-6.86-3.66 2.08-6.06 0 0zm147.62-6.52c-23.97-7.82-4.24-51.8 16.22-42.92 12.62 15.44-12.15 29.14-16.22 42.93zm15.26-35.48c3.07 6.66 4.7-3.54 0 0zm-155.38 41.52c-5.6-15.16 10.6 1.84 0 0zm26.06-2.4c-12.2 14.17-6.34-15.95 0 0zm-37.65-3.5c-5.85 5.8-.76-7.92 0 0zm16.1-4.62c-7.88 1.55 2.95-7.17 0 0zm-20.87-1.7c-5.4 7.5-5-3.7 0 0zm29.1-1.38c-4.18 16.16-1.56-10.83 0 0zm-16.2-1.85c-3.8-10.06 4.07 4 0 0zm119.46-1.57c-9.34 3.45 3.48-8.26 0 0zm-151-1.5c.05 8.7-8.77-3.14 0 0zm15.2-.2c-4.8 5.76-.45-6.67 0 0zm-16.3-5.55c-7.84-1 5.68-4.2 0 0zm10.27 1.2c-8.8 2.94.22-8.9 0 0zm17.5.88c.5 13.43-11.3-6.85 0 0zm11.9-2.98c-9.4 1.8 4.38-7.97 0 0zm-34.32-3.6c-8.76-.08.58-6.04 0 0zm19.42-.42c.5 13.43-11.3-6.85 0 0zm-14.66-2.06c-4.05-10.94 6.16 5.27 0 0zm107-11.27c-14.82 2.48 5.9-12.2 0 0zm43.65.17c-5.9 2.3 1.2-6.44 0 0zm-131.64-4.17c-11.48-7.46 4.8-2.6 0 0zm108-1.3c-18.55-10.57 24.4-12.9 1.2-.9l-1.03.78-.17.13zm-226.5-12.77c10.03-4.38-5.64 7.43 0 0zm9.58-1.5c-18.67-15.57-.07-44 20-46.94 32.43-6.6 33.3 42.07 2.36 44.35-7.3 3.7-15.23-.43-22.36 2.6zM232 608.7c11.5-8.38-13-4.34 0 0zm8.36-5.03c23.6 4.05-12.3-13.6 0 0zm39.6 21.64c-1.67-16.82 9.78 10.17 0 0zm74.4-1.27c-8.43-.26 3.48-6.4 0 0zm-45.15-2.38c-12.28 7.25.94-12.92 0 0zm-41.54-.6c-.4 15.84-12.1-8.77 0 0zm-11.5-5.6c-8.06 1.6 4.42-6.2 0 0zm48.12-3.92c-12.68-12.74 16.18-11.6 0 0zm-37.42.62c3.1 6.16-5.9-1.88 0 0zm-3.84-3.67c7.67 1.68-5.97 3.82 0 0zm52.34-3.4c-3.24 7.56-7.68-5.7 0 0zm3-2.48c-13.82-12.2 10.97-2.1 1.35.2l-1.26-.2h-.08zm51 .1l-.46-1.08.46 1.1zm71.3-1.56c-11.25-24.23 34.36-4.95 8.76 1.12-2.75.24-6.44 1.18-8.75-1.12zM220.7 596.9c-19.43.56 8.1-9.6 0 0zm148.66-2.7c-19.1-4.77 11.7-9.74 0 0zm21.25 2.14c-7.17-15.57 19.5 2.47.27-.1l-.26.1zm21.5-11.75c2.46-8.1 2.33-4.1-.05.85l.06-.86zm-99.74 10.6c4.55-25.5 17.73 13.6 0 0zm18.82-9.88c11-4.06-9.3-6.22 0 0zm51.18 8.9c-6.63 4.32-.47-7.7 0 0zM280 577c-4.4 7.9-2.68-7.08 0 0zm9.03-1c-4.68-4.46 5.85 0 0 0zm34.77-2.4c-12.05-5.07 8.65-1 0 0zm-29.38-4.9c-13.94-8.3 8.26-5.2 0 0zm-5.48-1.44c-3.38 14.53-10.14-10.34 0 0zm-19.9-3.74c-10.1 8.18-2.26-12.06 0 0zm19.05-1c4.02 6.36-5.82 1.27 0 0zm-92.7-9.84c-19.6-26.46 36.8-56.3 45.3-23.95 1.77 22.23-28.43 31.12-45.3 23.95zm82.48.1c-9.47 9.6 1.5-6.24 0 0zm-22.5-2.9c-12.86 5.08 5.3-6.08 0 0zm12.6-1.5c-13.02 5.67 2.77-5.32 0 0zm4.38-8.25c-11.48-7.46 4.8-2.6 0 0zm10-1.88c-4.57 5.54-.26-6.2 0 0zm-5.5-4.12c-7.18 2.74-.36-6.1 0 0zm-8.5-19.5c-7.83.4.9-6.18 0 0zm-4.13-.75c-18.08-18.87 18.46-2.67 0 0zm9.13-.25c-8.5 2.57 3.86-7.17 0 0zm4-2.23c-13.55-8.56 9.33-4.93 0 0zm-59.4-.85c-18.7 4.33 6.05-11 0 0zm38.06-3.1c7.67 1.7-5.97 3.83 0 0zm-1.46-7.52c-23.02-14.3 22.66-8.75 0 0zm1.8-6.8c11.47-7.46-4.8-2.6 0 0zm7.58-.74c-16.3-5.62 11.76-4.4 0 0zm26.83-11c-12.75-12.1 13.84.03 0 0zm-9.4 2.37c-8.2 8.18-2.52-10.53 0 0zm-18.47-4.55c-6.76 5.85.85-8.18 0 0zm15.46-.13c-3.24 7.54-7.68-5.7 0 0zm3.4-.33c-7.55 5.58 1.03-8.04 0 0zM272.6 476c-6.56 2.8-1.02-5.9 0 0zm-48.4-1.54c-8.08 1.6 4.4-6.2 0 0zm24.18-6.9c-15.84-12.5 11-2.44 0 0zm17.2-3.1c-17.95-2.9 9.45-7.42 0 0zm-26.58-3.14c-8.75 7.15-1.1-9.52 0 0zm47.8-1.76c-11.74-4.47 5.53-9.2 0 0zm-45.83-3.26c-8.44 4.25-5.37-7.86 0 0zm23.98-5.72c-8.03-15.34 12.66 4.8 0 0zm-41.88-.22c-4.33 8.6-3.74-8.6 0 0zm61.06-2c-4.96 7-3.27-6.36 0 0zm-44.44-1.86c-8.48-13.83 9.7-.9 0 0zm-27.3-3.4c-3.24 7.54-7.68-5.7 0 0zm106.7-.65c-22.24-27.3 28.56-1.56 0 0zm31.32-.4c-12.37-23.03 17 8.83 0 0zm7.98-4.9c17.34 5.2-1.97-17.52 0 0zm12.87 4.5c-20.36-32 30.2 2.27 0 0zm21.48.5c-14.46-7.55 12.52-4.83 1.92-.33l-1.28.22-.63.12zm45.32.33c-11.8-24.08 20.94 3.3 0 0zm23.04-1.35c-18.44-12.9 17.65-2.5 0 0zm7.8-13.97c6.7-14-5.88 3.2 0 0zm-59.65 14.06c-13.64-22.57 19.8 2.1 0 0zm21.58-.4c-17.84-.53 9.55-11.1 0 0zm-142.42-2.67c-4.97 5.58-2.97-5.4 0 0zm3.4-7.62c-9.16.24 4.98-5.25 0 0zm-28.15-.73c6.23-2.64-3.02 4.78 0 0zm168.17-14.03c-7.56 5.58 1.02-8.04 0 0zm-164.8-4.42c-7.72-7.74 7.6 3.63 0 0zm154.65-8c-18.63-23.63 23.07.8 0 0zM274.86 402c-16.68-21.52 19.55.56 0 0zm18.2-1.4c-2.27-23.53 12.62 13.67 0 0zm10.35-1.46c15.97 4.8-1.75-13.9 0 0zm15.03 1.44c-28.1-12.48 13.13-11.65 0 0zm19.77-4.1c-15.02-16.68 18.25.56 0 0zm22.27 5.06c-17.5-2.88 6.73-12.7 0 0zm7.9-13.9c4.87-13.54-8.37 7.05 0 0zm9 5.6c-12.76-34.94 28.1 7.4 0 0zm22 7.93c-13.47-21.4 17.6 1.8 0 0zm40.22 0c-19.87-12.8 17.68-2.78 0 0zm19.45 1.3c-7.27-15.2 14.5 3.77 0 0zm-211.6-6.9c2.05 7.4-4.63-4.24 0 0zm232.25-2.95c-.95-30.6 15.26 8.92 0 0zm-273.68-2.12c3.5-16.32 22.6 2.86 0 0zm26.34-20.33c3 7.46 6.68-5.06 0 0zm.15-6.5c7.3 3.03.26-6.7 0 0zm13.42 22.8c-8.83-1.03 5.97-4.86 0 0zm-54.56-1.27c-3.48-9.78 4.54-2.8 0 0zm6.36-2.95c-19.08-9.94 17.1-5 0 0zm36.72-3.67c2.06 7.4-4.62-4.25 0 0zm21.16-7.66l-.44-.45.44.45zm59.3-9.66c-5.4-22.18 23.3 12.72 0 0zm12.37-4.85c10.37-12.07-12.05 2.4 0 0zm12.25 5.5c-20.36-4.67 8.73-12.17 0 0zm10.5.12c-14.45-5.23 2.57-9.2 4.02-1.3l-4.03 1.3zm7.84-14.36c2.95-10.86-5.04 6.38 0 0zm-128.5 5.5c-7.73-3.7 1.74-6.2 0 0zm-29.85-15.88c-14.44-10.08 13.9-1.62 0 0zm139.86-1.63c-7.83.4.9-6.18 0 0zm-112.54-3.57c-9.96-5.8 4.22-3.45 0 0zm93.9-23.8c-19.16-.75 7.6-11.88 0 0zm11.37-.26c1.83 7.95-6.22.96 0 0zm23.76.48c-19.7-2.77 9.3-11.4 0 0zm17.1-.18c-16.5-5.74 11.62-7.6 0 0zm11 .1c-10.06-5.06 8.5.78 0 0zm9.34.3c-18.42-10.53 13.53-7.43 0 0zm-123.44-12.07c5.83-16.5 5.3 12.34 0 0zm22.97 1.75c.06-24.77 18.84 11.1 2.05 2.36-.68-.8-1.37-1.58-2.05-2.36zm46.5 7.8c-12.73 11.25-4.13-14.38 0 0zm25.78-18.13c-3.43 13.23-7.84-8.34 0 0zm18.4-.26c-7.9 2.9 3.46-6.72 0 0zm-43.68-.72c-7.36 2.07 2.05-6.05 0 0zm6.54.04c-8.1-10.83 7.3 3.63 0 0z" transform="matrix(2.558 0 0 2.307 -508.052 -651.252)" filter="url(#e)"/><path fill="#56573f" d="M397.68 753.6c-17.6 7.05 2.64-13.48 0 0zm83.6-19.85c-18.48 4.97 9.32-9.84 0 0zm-81.92-6.13c-12.8-9.47 9.47-4.43 0 0zm-71-13.6c-12.75 12.6.03-15.43 0 0zm135.5-.7c-6.6-4.74 1.8-4.77 1.67-.18l-1.67.17zm23.94-2.64c9.74-9.27-1.73 6.23 0 0zm-33.25-4.57c-9.44 6.54 4.06-7 0 0zm35.04-2.14c-8.1 6.4-.48-6.9 0 0zm-71.77-6.75c-29.1 9.73-47.7-41.02-20.4-53.58 32.86-5.65 18.1 35.83 16.23 50.65l1.9 1.74 2.27 1.2zm-92.47-13.45c.15-8.37 2.53 5.58 0 0zm26.48-1.62c-5.7 15.55-5.87-12.95 0 0zm-38.48-3.98c-11.48-7.46 4.8-2.6 0 0zm-5-7.5c-9.34 3.45 3.48-8.26 0 0zm28.75.42c-4.18 16.16-1.56-10.83 0 0zm-16.24-1.92c-6.86-3.66 2.08-6.06 0 0zm-16.3-4.2c-12.85 8.37.55-13.92 0 0zm-6.03-3.35c-8.8 2.94.22-8.9 0 0zm-8.17-1.45c-11.48-7.46 4.8-2.6 0 0zm38.66.33c-.55 13.6-10.55-7.45 0 0zm-25.16-8.33c3.42 6.54-6.48-2.56 0 0zm159.5-2.55c-12.37.97 4.5-3.5 0 0zm-14.54-7.52c-8.34 3.75 3.08-7.3 0 0zm-23.7-6c-13.57-10.56 12.33-6.53 0 0zM309.6 621.8c-6.95 9.4 1.08-7.06 0 0zm-111.2-5.02c-22.2-21 36.83-17.07 10.54-3.6-3.43 1.44-7.04 2.36-10.55 3.6zm106.7-5.12c-15.44 4.43 2.68-10.4 0 0zm-68.76-.53c-8.98-14.46 14.52-2.5 0 0zm168.35-1.5c-10.83-19.8 14.75 3.95 0 0zm18.32.83c-6.5 7.2-1.62-8.44 0 0zm-107.66-5.4c-3.24 7.56-7.68-5.7 0 0zm3-2.43c-26.4-5.28 17.94-7.54 0 0zm52.16-.5c.66-6.2.66 6.2 0 0zm-105.86.3c-.1 9.45-6.1-6.4 0 0zm38.9-4.5c-18.34 5.93 5.4-12.05 0 0zm-83.8-1.57c-8.64 1.53-3.5-3.58 1-1.04l-1 1.04zm150.06-1.36c-10.14-13.48 11.6 1.3 0 0zm16.54.22c-4.28-23.56 15.34 6.33 0 0zm-4-1.03c-6.63 4.34-.47-7.67 0 0zM267 593.46c-11.85-1.64 7.58-3.05 0 0zm59.4-3.7c-13.24 5.1 3.07-12.7 0 0zm167.04-.2c2.06 7.4-4.62-4.24 0 0zm-191.58-1.4c3.42 6.54-6.48-2.56 0 0zm28.97-5.1c-7.72 9.93-2.25-5.42 0 0zm-50.27-6.1c.07 6.08-9.7 2.55 0 0zm9.06-1.5c-8.82-3.9 7.05-2.1 0 0zm166.74-3.3c-14.82 2.48 5.9-12.2 0 0zm-162-3.5c3.83 6.4-7.36-1.34 0 0zm-23-5.4c-12.04-3.4 3.16-4.82 0 0zm-3-3.04c-6.63 4.34-.47-7.67 0 0zm-73-7.55c-16.67-18.6 11.98-41.7 30.9-37.72 22.16 16.55-10.86 23.4-24.6 22.22-7.24 1.4-8.46 9.58-6.3 15.5zm13-1.5c-4.97 5.58-2.97-5.4 0 0zm61-3.97c-13.4 2.85 4.52-4.43 0 0zm-53.27-.16c-12.5-1.5 7.6-2.6 0 0zm1.86-36.45c-18.7 4.33 6.05-11 0 0zm36.6-10.62c-27.32-13.22 21.78-9.37 0 0zm1.8-6.8c11.47-7.46-4.8-2.6 0 0zm7.34 4.45c-7.15 1.64.02-6.26 0 0zm-.34-4.33c-4.57 5.54-.26-6.2 0 0zm9.4-1.7c-12.4-1.56 7.55-9.12 0 0zm5.6-12.48c-3.24 7.54-7.68-5.7 0 0zm22.5-.95c.33 6.72-4.32-4.4 0 0zm-76.7-3.7c-8.06 1.6 4.42-6.2 0 0zm29.7-1.3c3.42 6.54-6.48-2.56 0 0zm40.5-5c-11.48-7.46 4.8-2.6 0 0zm-55.38-6.83c-8.75 7.15-1.1-9.52 0 0zm1.97-5.02c-8.44 4.25-5.37-7.86 0 0zm-17.9-5.94c-4.33 8.6-3.74-8.6 0 0zm43.12-.9c-8.07 1.6 4.4-6.2 0 0zm-26.5-2.96c-8.5-13.83 9.7-.9 0 0zm-27.3-3.4c-3.25 7.54-7.7-5.7 0 0zm60-9.76c-12.52-.7 3.7-3.7 0 0zm-12-6.2c-4.98 5.6-2.98-5.4 0 0zm8-17c3.62-5.06-1.87 8.34 0 0zm-54-19.78c-6.6-15.63 10.3 3.56 0 0zm9.56-3.78c3.53-19.36 7.7 10.38 0 0zm-32.5-9.02c2.07 7.4-4.6-4.25 0 0zm1.93-.3l-.22-.42.22.4zm34.4-1.5c-10.6-11.36 9.43-2.42 0 0zm-34.04-7.4c-10.05-7.5 5.85.4 0 0zm34.64-.77c-1.1 6.87-3.3-5.32 0 0zm-.82-6.5c-10.4 2.76 5.6-5.47 0 0zm4.82-.95c-11.48-7.46 4.8-2.6 0 0zm-3-7c-7.73-3.68 1.74-6.18 0 0zm41.42-46.34c-8.5-13.64 13.7 2.86 0 0zm50.44.68c-14.3-9.97 14.42-2.68 0 0zm34.14-10.33c7 4.93-6.38-.52 0 0zm18 .07c5.05 6.74-7.67-1.33 0 0zm20.5-.07c5.66 3.83-5.42-.05 0 0zm12.32 9.93c-18.92 5.12 5.77-11.33 0 0zm-112.82-.93c-11.48-7.46 4.8-2.6 0 0zm10-7c-8.68 10.3-5.74-9.78 0 0zm37.1 3.23c-13.53 14.06-1.82-13.18 0 0zm62.65-10.94c-10.56-1.98 6.87-7.6 0 0zm-93.1-3.8c-6.28 4.35-1.72-6.36 0 0zm-27.14-.5c-11.15 1.7 4.33-9.3 0 0z" transform="matrix(2.558 0 0 2.307 -508.052 -651.252)" filter="url(#f)"/></g></svg>