<?xml version="1.0" encoding="UTF-8" standalone="no"?>
<svg
   xmlns:dc="http://purl.org/dc/elements/1.1/"
   xmlns:cc="http://creativecommons.org/ns#"
   xmlns:rdf="http://www.w3.org/1999/02/22-rdf-syntax-ns#"
   xmlns:svg="http://www.w3.org/2000/svg"
   xmlns="http://www.w3.org/2000/svg"
   xmlns:sodipodi="http://sodipodi.sourceforge.net/DTD/sodipodi-0.dtd"
   xmlns:inkscape="http://www.inkscape.org/namespaces/inkscape"
   width="958.75"
   height="496.25"
   viewBox="0 0 767.000000 397.000000"
   id="svg2985"
   version="1.1"
   inkscape:version="0.48.4 r9943 custom"
   sodipodi:docname="thumbnail_cleaned.svg">
  <metadata
     id="metadata3016">
    <rdf:RDF>
      <cc:Work
         rdf:about="">
        <dc:format>image/svg+xml</dc:format>
        <dc:type
           rdf:resource="http://purl.org/dc/dcmitype/StillImage" />
        <dc:title></dc:title>
      </cc:Work>
    </rdf:RDF>
  </metadata>
  <sodipodi:namedview
     pagecolor="#ffffff"
     bordercolor="#666666"
     borderopacity="1"
     objecttolerance="10"
     gridtolerance="10"
     guidetolerance="10"
     inkscape:pageopacity="0"
     inkscape:pageshadow="2"
     inkscape:window-width="640"
     inkscape:window-height="480"
     id="namedview3014"
     showgrid="false"
     inkscape:zoom="0.32750978"
     inkscape:cx="479.375"
     inkscape:cy="248.125"
     inkscape:window-x="0"
     inkscape:window-y="22"
     inkscape:window-maximized="0"
     inkscape:current-layer="svg2985" />
  <defs
     id="defs2987">
    <filter
       id="0">
      <feGaussianBlur
         stdDeviation="11.86383"
         id="feGaussianBlur2990" />
    </filter>
    <linearGradient
       gradientTransform="matrix(0,-1,1,0,0,0)"
       y2="195.277"
       x2="-141.172"
       y1="342.485"
       x1="-141.172"
       gradientUnits="userSpaceOnUse"
       id="Gradient_3">
      <stop
         id="stop3105"
         stop-color="#7A0606"
         offset="0" />
      <stop
         id="stop3107"
         stop-color="#EE0000"
         offset="1" />
    </linearGradient>
    <linearGradient
       gradientTransform="matrix(0,-1,1,0,0,0)"
       y2="260.053"
       x2="-206.869"
       y1="407.261"
       x1="-206.869"
       gradientUnits="userSpaceOnUse"
       id="Gradient_2">
      <stop
         id="stop3100"
         stop-color="#7A0606"
         offset="0" />
      <stop
         id="stop3102"
         stop-color="#EE0000"
         offset="1" />
    </linearGradient>
    <linearGradient
       gradientTransform="matrix(0,-1,1,0,0,0)"
       y2="194.357"
       x2="-271.644"
       y1="341.565"
       x1="-271.644"
       gradientUnits="userSpaceOnUse"
       id="Gradient_1">
      <stop
         id="stop3095"
         stop-color="#7A0606"
         offset="0" />
      <stop
         id="stop3097"
         stop-color="#EE0000"
         offset="1" />
    </linearGradient>
  </defs>
  <path
     d="m0 198c0-66 0-132 0-198 255.67 0 511.33 0 767 0 0 132.33 0 264.67 0 397-255.67 0-511.33 0-767 0 0-66.33 0-132.67 0-199"
     fill="#b7c2c3"
     filter="url(#0)"
     id="path2992" />
  <path
     d="m0 279c0-39 0-78 0-117 25.479 13.02 58.63-12.611 11.03-10.858-14.574-41.41-28.02-127.4 6.819-153.14 76.67 4.588 154.16.724 231.15 2 57.754 34.529 126.97-19.986 190.62 4.04 109.06-5.984 218.21-3.74 327.38-4.04 3.599 55.729-120.67-2.983-81.29 60.13 78.967-19.18 89.94 46.588 81.29 104.16 0 77.57 0 155.14 0 232.71-95.74-.961-191.49-.844-287.24-1.434-63.63 2.781 10.09-106.3 61.785-90.88 57.787 14.163 124.82-8.974 175.19-41.24 66.11-34.636-.709-63.53-43.17-45.49-89.19-9.681-177.69 15.955-265.73 1.491-93.58-20.18-189.29-12.05-284.11-12.12-45.41 28.573 95.95 8.473 125.39 34.472 39.22 13.279 43.37 132.32 45.09 46.42 51.06-27.832 31.26 74.49 82.26 77.904-16.315 52.2-102.15 10.894-149.37 31.883-75.62-1.8-151.39-.687-227.1-1.01 0-39.33 0-78.67 0-118m38-11c14.359-16.702-16.547-13.355 0 0m7-7c-.806-5.654-2.936 4.405 0 0m9-21c16.216-27.405-22.685 6.24 0 0m327 151c9.334-57.894 126.41-129.1 91.23-35.964-20.362 27.14-59.32 39.1-91.23 35.964m46 4c-.398-8.975 5.366 5.511 0 0m5 0c-9.357-14.827 10.568 1.999 0 0m5 0c-7.67-13.12 10.648.261 0 0m-69-42c-45.11 8.08-34.985-96.03-21.366-36.972 10.605-51.673 25.618 30.741 65.37-2.136-59.746 47.09 59.64-29.613 9.586 24.25-12.785 11.12-37.21 30.734-53.59 14.853m-8-17c1.736-13.526-16.793.346 0 0m2-5c.216-9.779-7.859.667 0 0m16 5c69.46-44.525 31.393-1.046 0 0m-35-13c-25.599-29.965 16.281-.352 0 0m35 0c-53.42-50.05 89.83-28.26 0 0m14-4c-9.578-13.577-16.269 13.745 0 0m0-9c6.925-37.36-39.32 14.705 0 0m-41 5c-9.471-14.936 7.104 3.731 0 0m71-1c-6.887-7.183 8.778-1.922 0 0m6-12c-11.986-35.584 10.504 11.538 0 0m-84 6c-4.068-3.741 4.401-1.202 0 0m77-5c2.416-15.83 7.279 12.363 0 0m-71-4c11.03-24.673 8.132-21.401 0 0m-65-7c9.811-40.902 25.379 19.02 0 0m279 4c-27.13-7.496 38.19 3.521 0 0m37-7c14.934-8.224 21.09 9.512 0 0m-183-6c-30.887-25.516 16.268 2.456 0 0m-10-6c-43.21-18.49 1.119-9.277 0 0m-55 0c-1.548-9.149 9.775 3.142 0 0m63-5c-28.734-4.833 10.175-10.372 0 0m-48-13c11.01-13.894 25.626 11.04 0 0m99-26c4.804-7.393 6.674 6.727 0 0m-47-3c25.285-7.743 24.899 3.328 0 0m91-1c8.57-4.515 5.297 4.876 0 0m192-178c1.214-12.872 15.648-1.863 0 0m34 0c-8.832-16.16 12.963.445 0 0m12 0c-13.75-13.721 11.734-3.535 0 0m-57-5c-8.873-9.199 9.626-2.615 0 0m22 0c5.222-8.266-3.101 28.17 0 0m11 0c5.784-9.926-1.991 13.974 0 0m34 0c5.826-18.49 6.04 15.422 0 0m5-2c-2.861-8.996-4.03 8.183 0 0m-385 261c2.646-26.807 23.21 16.778 0 0"
     fill="#9ca4a7"
     filter="url(#0)"
     id="path2994" />
  <path
     d="m0 279c0-39 0-78 0-117 34.498-3.268 120.73 26.562 119.81-7.279-47.857-7.668-149.13 18.18-118.73-68.68-16.752-57.32 6.58-101.84 67.97-86.04 59.985 0 119.97 0 179.95 0 33.784 87.11 148.12 36.912 208.24 9.195 90.7-20.22 184.66-3.612 276.76-9.437 102.48 15.06-130.73 52.885-58.24 34.633 16.685 50.33 128.44 12.29 91.56 108.72-1.238 84.63.293 169.26-.323 253.89-95.65-.772-191.36 1.996-286.95-2.403-69.32 1.904 24.48-117.51 75.51-88.42 59.723 14.953 122.49-19.356 172.53-50.706 45.42-73.39-95.39-25.09-133.66-38.554-86.9 7.198-172.17 12.729-258.18-9.141-79.81.481-163.42-11.02-241.24 6.955 61.15 25.24 169.59-11.301 186.88 76.865.946 55.607 20.443 30.963 13.12-4.367 45.909-13.977 50.46 71.835 78.6 90.37-54.17 23.23-127.25 14.565-189.77 18.759-60.14-10.675-136.12 19.549-184.8-13.11 1.687-34.543.705-69.5.957-104.24m231 24c-27.416-41.44-84.61 9.413-14.605 4.431l7.568-1.216 7.04-3.215m-76-11c70.964-60.36-64.51-14.06 0 0m89-7c-39.22-7.686 30.26-26.999-25.748-25.11-62.07 19.14-1.226 42.82 25.748 25.11m-207-16c20.11-23.69-20.21-19.948 0 0m6-5c-5.148-2.184 1.469 5.783 0 0m154-2c12.511-16.502 81.02 1.64 33.565-32.631-16.351-6.709-71.06 17.409-33.565 32.631m-153-2c-6.465 1.054 6.657 4.167 0 0m54-7c-5.697.154 3.822 4.987 0 0m84-8c27.496-9.996-17.486-8.86 0 0m-126-6c7.601-19.917-18.875 7.01 0 0m325 138c29.444-33.61 100.21-113.54 96.99-36.553-12.535 34.392-68.799 69.4-96.99 36.553m46 18c4.655-7.189.893 8.332 0 0m6-1c-1.071-19.478 4.506 5.524 0 0m5-1c-.531-26.295 5.575 8.686 0 0m-64-39c-46.659 6.613-45.46-95.57-24.61-35.16 10.114-44.807 22.667 29.633 62.757-4.879-69.56 52.04 51.41-28.17 12.413 23.07-12.447 13.686-32.2 21.416-50.56 16.966m-14-19c.626-13.682-14.879 4.327 0 0m19 1c53.3-32.23 31.13 1.387 0 0m-36-14c-10.227-11.139 4.165-19.431 0 0m35 0c-35.696.137 12.538-59.38 1.54-16.15 39-22.319 30.459 24.562-1.54 16.15m11-2c-5.125-11.626-12.539 11.697 0 0m-38-5c-9.471-14.936 7.104 3.731 0 0m72-3c-6.069-6.288 5.317-1.508 0 0m5-8c-8.8-18.569 8.519-12.773 0 0m-84 4c.261-5.671 2.919 3.904 0 0m35-3c5.04-25.07 19.856 13.774 0 0m42-2c4.992-10.791 3.102 10.529 0 0m-71-3c-6.481-20.659 3.934-4.642 0 0m-65-6c-2.318-36.1 32.892 2.865 0 0m279 1h2.132-2.132m-212-5l9.306-11.923-9.306 11.923m253-2h3.571-3.571m17 0h3.571-3.571m-203-5c-23.446-8.108 4.85-9.536 0 0m-10-6c-26.606-14.09-33.63-17.517 0 0m-56 0c-1.548-9.149 9.775 3.142 0 0m15-18c17.439-10.749 16.334 6.799 0 0m63-30c10.874-.4 17.391-.64 0 0m-13 0h3.571-3.571m96 0h3.766-3.766m10-2h2.132-2.132m168-181c-14.01-20.256 11.455 1.035 0 0m10 4c-2.932-13.432 19.64-1.428 0 0m12-4c5.222-8.266-3.101 28.17 0 0m12 0c4.382-10.254-.91 34.05 0 0m10 5c-8.456-16.404 12.922-.386 0 0m12-1c-9.194-11.12 9.87-6.03 0 0m11-4c8.348-15.448 1.898 14.275 0 0m5-2c-2.861-8.996-4.03 8.183 0 0m-575 233c1.311-4.972 2.351 4.851 0 0m4 0c2.61-6.778 2.892 6.631 0 0m8 0c4.524-7.21 4.222 8.447 0 0m-2-23c-.231-9.758 11.612-3.83 0 0m11-12c-6.696-6.956 8.144-1.153 0 0"
     fill="#758b95"
     filter="url(#0)"
     id="path2996" />
  <path
     d="m0 280c0-39 0-78 0-117 76.03-12.98 207.23 51.32 248.02-3.387-68.941 10.388-134.27-15.172-204.07-6.02-64.44.107-61.29-132-15.15-153.6 73.4 0 146.8 0 220.2 0 23.669 74.07 125.51 50.08 177.52 20.952 75.69-39.24 161.62-14.48 242.65-20.942 38.05-8.758 146.95 5.401 61.18 26.717-51.13-20.253-80.58 44.841-11.652 33.739 69.817-4.514 44.513 67.46 48.3 110.7 0 75.28 0 150.56 0 225.84-95.73-.415-191.48 1.283-287.18-1.872-2.958-21.698-51.09 10.07-16.7-31.66 22.926-92.02 112.86-37.34 174.61-64.22 46.736-4.637 167.54-85.66 55.45-85.05-83.81-4-166.96 12.165-250.67 9.573-80.47-16.18-161.93-21.459-243.76-18.14-43.926-1.046-162.76.3-61.2 18.34 57.22 8.218 131.52-1.423 147.66 72.57 20.461 81.58-8.776-42.943 42.22-4.488-7.968 36.475 95.72 96.59 13.262 97.74-95.53 8.495-192.11 8.125-288.73 7.134-63.919 23.334-52.34-28.84-51.952-69.886 0-15.681 0-31.362 0-47.04m233 21c-32.921-38.445-84.68 12.11-14.775 6.291l7.882-1.777 6.893-4.514m-80-7c68.21-52.05-51.918-23.526 0 0m82-2c25.713-12.98-39.871-20.367 9.886-23.433-50.54-27.379-83.34 26.447-9.886 23.433m-160-13c28.336-18.314 13.924-65.21 0 0m-2-7c38.643-48.935-65.37-54.4 0 0m-35-4c18.241-22.654-21.21-16.07 0 0m7-7c-9.782-6.066 4.392 13.212 0 0m154 1c8.625-22.877 76.81 8.661 30.06-29.18-22.477-22.427-67.37 21.22-30.06 29.18m-101-9c-6.173-.027 3.879 5.415 0 0m-14-9c11.134-33.76-16.46 15.19 0 0m98 1c43.28-10.375-29.831-6.52 0 0m-127-5c11.965-18.438-18.578 1.382 0 0m327 137c23.536-39.05 112.82-112.08 90.56-27.335-12.418 29.404-65.809 55.05-90.56 27.335m46 18c4.557-3.379-2.201 6.775 0 0m5 0c-11.854-15.778 9.22.49 0 0m5-2c-2.31-27.561 6.322 5.291 0 0m-63-39c-45.4 17.17-45.817-100.83-26.636-36.16 8.528-50.03 21.461 22.524 60.19.492-62.87 43.689 70.37-32.3 6.711 26.21-11.456 7.833-26.16 14.302-40.27 9.455m-16-21c2.427-21.982-16.552 6.776 0 0m16 3c37.519-14.468 43.934-6.63 0 0m-32-14c-10.227-11.139 4.165-19.431 0 0m80-10c-6.069-6.288 5.317-1.508 0 0m5-8c-8.8-18.569 8.519-12.773 0 0m-84 4l.632-.978-.632.978m77-5c5.36-10.403 2.802 10.932 0 0m-135-9c-9.566-33.04 36.977-2.093 0 0m133-11c-23.446-8.108 4.85-9.536 0 0m-10-6c-26.606-14.09-33.63-17.517 0 0m9-48h3.571-3.571m14 0h2.084-2.084m81 0h2.132-2.132m-75-1h3.118-3.118m254-182c-14.01-20.256 11.455 1.035 0 0m14 5c-3.192-5.71 5.603-.288 0 0m8-5c4.382-10.254-.91 34.05 0 0m13 5h2.132-2.132m9 0c4.59-3.633-.293 7.358 0 0m4 0c-10.487-1.364 5.88-7.546 0 0m8-1c-9.205-8.461 9.908-9.203 0 0m11-4c4.97-16.13 4.66 14.262 0 0m-57-1v-.555.555m34-3c2.988-9.09 1.834 5.874 0 0m-534 235c1.721-5.862 2.916 5.161 0 0m-134-25c-4.061-9.797 5.173 1.549 0 0m2-6c-3.361-6.607 7.466.551 0 0m-2-9c-1.073-7.568 6.577 5.688 0 0m-5-2c.006-7.293 5.946 7.263 0 0m139 14c13.827-25.61-.412 9.235 0 0m8-8c-3.501-7.085 7.403.95 0 0"
     fill="#636b6e"
     filter="url(#0)"
     id="path2998" />
  <path
     d="m289 396c2.095-5.02 1.747 5.673 0 0m5-1c-.493-6.938 4.243 6.225 0 0m6 0c-11.559-2.01 1.435-6.408 0 0m5-1c-14.74-10.299 5.096-6.313 0 0m68 1v-.043.043m5-2v.055-.055m5-3v1.273-1.273m5 2v.826-.826m5 2v-.806.806m5 0v-.806.806m5 0c-7.701-10.408 4.508-5.382 0 0m5 1v-.806.806m78 0c-7.56-21.1-53.14-8.388-11.931-45.904 59.47-21.06 122.85-24.716 180.17-54.596 54.34 1.139 137.23-93.64 34.574-80.07-71.28 5.505-143.32-2.69-214.12 12-89.57-11.04-178.74-29.12-269.39-21.81-66.37-15.305-175.3 44.27-206.07-26.305 69.12-31.426 160.6 4.346 236.29 11.36 55.16-.139 158.39 38.802 182.56-18.243-58.786-24.766-133.82-6.94-199.28-11.574-68.74-1.374-138.59-4.188-206.03-13.865-25.698-34.06-26.18-127.37 13.05-149.46 72.07 13.866 165.81-11.304 225.79 13.541 38.07 66.41 131.43 34.43 186.21 6.891 72.877-33.561 154.11-10.468 231.17-16.962 39.68-8.323 147.32 5.322 58.722 26.355-53.57-19.08-74.51 50.651-9.391 35.508 66.28-11.255 46.16 58.894 48.674 99 0 78.71 0 157.43 0 236.14-93.62-7.736-187.4 3.964-281-2m108-2c11.125-1.402-5.522-7.872 0 0m51-5c-9.123-8.423-.738 10.696 0 0m-63 2c-2.236-10.51-4.343 8.49 0 0m80 0c-7.271-5.807.844 19.451 0 0m-153 0c22.503-3.676-8.329-5.072 0 0m92 0h-1.759 1.759m56-2c-2.077 3.694-5.931-3.677 0 0m-68-3c20.19-6.609-9.56-5.212 0 0m27-1c-1.507-6.169-3.941 4.603 0 0m2-1c-.024-9.143-4.474 3.99 0 0m-131-3c-4.922 1.696 4.567 3.446 0 0m41 0c14.688-21.651-16.729 1.186 0 0m68-1c10.11-15.504-9.818 3.921 0 0m58-2c-5.925.607 9.139 9.251 0 0m-141 0c-13.326-11.253-17.508 10.1 0 0m34-5c3.572-18.07-7.169 9.182 0 0m-5 1v1.835-1.835m103-4c-.319-14.662-9.948 10.547 0 0m-154-1c21.71 3.229-1.217-20.881 0 0m219 0c5.325-8.496-9.162 5.738 0 0m-183-7c21.11-15.831-46.826 10.805 0 0m42 0c-9.808-11.968-11.846 11.45 0 0m12 0c-3.884-12.79-9.457 10.571 0 0m75-1c15.938-1.755-4.95-5.184 0 0m-68-4h-1.759 1.759m34-1c30.33-18.51-11.462-5.04 0 0m40-1c-2.983-10.567-6.942 9.201 0 0m-74-1c-3.992-5.945-5.823 20.451 0 0m14-1c-.591-14.03-11.762 8.618 0 0m-114-3c16.15 8.27 3.545-7.456 0 0m134-6c2.979-23.776-12.172 14.08 0 0m-109-3c-6.32-3.454-.888 7.465 0 0m196-2c11.556-16.08-12.144 2.872 0 0m-205-145c38.41-40.798-52.49-1.623 0 0m-195 198c.376-13.648 3.894 6.665 0 0m48 0c-7.495-7.372 4.762-2.8 0 0m5-1c-6.799-10.07 5.516-.214 0 0m5-3c-3.397-21.268 4.95 4.363 0 0m-54 0c-.714-8.332 5.807 5.081 0 0m85-2c-5.899-18.15 5.03 2.715 0 0m-79 0c23.14-11.837 14.13 5.252 0 0m11 1c1.999-4.483 1.53 5.556 0 0m84-1c4.02 1.842-6.995 5.543 0 0m21 1l.632-.978-.632.978m-63-3c4.557-3.379-2.201 6.775 0 0m-21-1c-2.741-6.04 3.782 2.316 0 0m52 1c.845-5.425 2.229 4.02 0 0m6-1c-.01-6.569 3.174 4.438 0 0m21 0c-101.84-7.37 97.68-64.85 11.528-2.342l-11.528 2.342m12-13c3.474-19.416-15.96 12.506 0 0m-41-2h-1.759 1.759m27-5h-2.132 2.132m15-4c3.762-13.478-9.648 7.6 0 0m11 0h-2.132 2.132m0-2c26.26.153-12.764-11.761 0 0m4-10h-1.759 1.759m-103 34c10.887-18.314 24.575 7.14 0 0m22-3c-5.796-2.956 3.827.494 0 0m1-36c-49.44-15.288 39.984-.97 0 0m51 0c-7.078-8.611 24.489 12.224 0 0m-9-1c-.271-6.335 3.594 3.427 0 0m47-2c2.132-5.502 2.457 5.582 0 0m-124-16c-10.227-11.139 4.165-19.431 0 0m-6 3c-4.556-6.942 9.808 2.186 0 0m-10-1c4.45-6.865 4.149 8.219 0 0m-87-5c-37.852-24.11-144.81-9.451-79.8-62.31-23.287-37.79 15.841-30.351 30.669-11.72-7.04 20.741 53.21 8.19-.415 19.74-14.903 9.252-36.24 42.824-16.236 33.705 46.18 36.06 82.48-22.612 83.958-47.52 16.77 24.06 13.802 58.59-18.18 68.1m-86-24c80.5-73.39-67.3-19.328 0 0m-149 25c9.211-12.829 10.989 12.44 0 0m567-4c4.182-5.317 1.588 8.113 0 0m-4-1c4.182-5.317 1.588 8.113 0 0m-265-1c1.999-4.483 1.53 5.556 0 0m187-3c-1.238-8.194 14.877 25.966 0 0m67 1l-6.848-2.406 6.848 2.406m-134 0c-6.069-6.288 5.317-1.508 0 0m-136-1c7.106-6.86-.268 9.681 0 0m141-7c-8.8-18.569 8.519-12.773 0 0m98 3c7.761-6.79 6.956 5.359 0 0m-43-1c1.999-4.483 1.53 5.556 0 0m24 0c-19.11-5.996 27.384 3.464 0 0m-220-1c6.255-4.933 10.444 4.133 0 0m123-1c-3.666-8.06 17.978 18.23 0 0m79 1h3.571-3.571m-55-2h2.132-2.132m10 0h5-5m15-1c10.704-4.964 20.481 6.891 0 0m-51-4c7.501-6.01 2.348 9.513 0 0m-292 1c3.384-7.694 4.567 7.238 0 0m-39-2c4.663-7.457 4.353 8.941 0 0m215-2c4-8.388 4.864 6.391 0 0m67-4c-1.047-8.67 16.08 21.02 0 0m-139 0c6.129-3.43 5.312 16.07 0 0m-176-1c1.311-4.972 2.351 4.851 0 0m168-1h2.084-2.084m-170-3c-47.99-68.905 92.65-82.8 46.69-11.432-11.758 12.337-30.67 16.783-46.69 11.432m34-8c31.911-17.72 5.233-62.787 0 0m-4-6c36.39-72.21-74.31-44.53 0 0m-29-7c19.01-14.681-9.05-2.491 0 0m55-10c-5.39-6.624-.955 16.912 0 0m-17-6c18.624-29.739-18.98 9.189 0 0m-1 37h1.759-1.759m339-3c-23.446-8.108 4.85-9.536 0 0m-58 2h3.571-3.571m-263-2c6.492-6.984 4.918 10.244 0 0m243-1h1.759-1.759m-5-1h1.759-1.759m73-4c-26.606-14.09-33.63-17.517 0 0m-99 2c9.984.634 22.2 1.41 0 0m-198-1h3.766-3.766m104 0c14.296-7.455 12.274 1.622 0 0m-14-1h1.759-1.759m8 0h2.132-2.132m90 0c1.427-6.085 22.18 15.14 0 0m-65-2h1.759-1.759m56 0h2.084-2.084m-8-2c6.764 3.836 3.424 1.942 0 0m-160-1c4.45-6.865 4.149 8.219 0 0m153-1c6.727-3.342 3.497 13.575 0 0m-6-2h2.132-2.132m-132-2c1.311-4.972 2.351 4.851 0 0m105-5c-24.569-17.514 10.477 1.231 0 0m-41-12c12.507-16.03-6.611 11.397 0 0m25-6c4.422-4.419 6.188 5.059 0 0m-11-11c-.94-13.629 12.487 6.902 0 0m20-3c-5.796-2.956 3.827.494 0 0m196-1h1.759-1.759m-202-1h2.132-2.132m-125-10c7.895-7.45 6.181 10.966 0 0m-15-2c7.279-6.706 6.496 8.875 0 0m-59-3c7.083-7.519 4.524 10.609 0 0m676-163c3.957-3.585-1.959 6.185 0 0m41 0c-8.679-3.387 1.31-5.059 0 0m11 0v-.044.044m-19-3c4.653-3.03 4.344 15.483 0 0m-38-3v.055-.055m61-2c-5.796-2.956 3.827.494 0 0m-228 316c5.475-1.289-.458 10.189 0 0m-12-2h3.571-3.571m-432-111v-.044.044m-20-1c2.852 5.631-15.77 7.084 0 0m-2-9c5.946-2.548-2.588 5.945 0 0"
     fill="#65625b"
     filter="url(#0)"
     id="path3000" />
  <path
     d="m289 396c2.095-5.02 1.747 5.673 0 0m220-1c.219-12.954 9.01 4.02 0 0m10-2c44.12-32.01-67.35-15.559 7.925-31.521-23.749-12.953-42.769.049-23.535-23.1 27.797 9.01 107.02-32.04 153.74-44.489 48.04-.212 139.97-94.99 36.03-78.914-71.65 4.776-144.21-4.781-214.32 11-66.91 8.803-118.29-44.768-184.49-20.995-40.43 4.541 29.866-7.239-21.725-10.05 46.642-2.136 152.08 32.964 150.51-37.897-20.576-30.987-129.04-14.01-101.7-46.952 34.37.565 144.72 6.628 117.1-29.728-47.38 3.393-110.52-37.489-29.558-51.675 91.1-47.53 194.69-23.17 292.52-28.669 43.13-14.466 96.25 18.01 28.843 26.688-46.4-21.769-85.26 43.26-18.531 36.536 69.06-18.258 54.819 51.821 55.19 94.13 0 79.879 0 159.76 0 239.64-52.713 13.313-60.26-12.299-58.895-57.23-49.26-12.966-47.523 89.92-53.56 15.251-11.01 21.542-89.3 39.592-35.23 4.469 32.493-56.932-100.05 18.609-100.32 33.508m-17-200c42.07-29.31-56.48-17.15 0 0m-208 202c2.095-5.02 1.747 5.673 0 0m5-2c.845-5.425 2.229 4.02 0 0m5-1c1.999-4.483 1.53 5.556 0 0m5-3c.845-5.425 2.229 4.02 0 0m5-2l.632-.978-.632.978m5-2c13.465-7.134 16.817 1.708 0 0m31-7c13.419-9.666 26.342 1.583 0 0m35-7c29.499-17.639 89.96-29.23 26.26-8.432-8.613 3.222-17.33 6.211-26.26 8.432m51-8c21.614-16.574 29.16 5.124 0 0m71-3h1.759-1.759m-20-18c2.035-5.082 1.875 5.337 0 0m6-1c7.473-10.435 8.43 10.583 0 0m-66-1c7.326-10.427 7.147 7.582 0 0m-99-16c3.524-6.816 3.512 6.654 0 0m10-1c2.78 4.691-10.14 1.518 0 0m-98-5c-10.734-35.18 30.622-110.67 26.22-33.3-2.297 14.467-11.533 28.958-26.22 33.3m7-5c.443-36.886-30.909 18.928 0 0m7-9c39.726-36.647-36.645-26.521 0 0m8-43c-.153-9.767-7.402-.835 0 0m-17-22l1.67 1.948-1.67-1.948m-245 80c17.847-5.428 10.02 6.329 0 0m578-2h1.759-1.759m-88-5c-15.793-14.92 8.04 1.709 0 0m-203 0c1.721-5.862 2.916 5.161 0 0m269-1h1.759-1.759m-347-3c-8.569-6.804 11.379 5.615 0 0m6 1h1.759-1.759m334 0h1.759-1.759m-4-1h1.759-1.759m-20-1h2.084-2.084m16 0h1.759-1.759m-58-1c1.999-4.483 1.53 5.556 0 0m28 0h3.571-3.571m21 0h3.118-3.118m-335-2c-26.05-1.654-20.818-6.963 0 0m93 1h1.639-1.639m120-1c6.693-1.586 7.05 13.678 0 0m80 1h2.132-2.132m13 0c-20.442 3.528 4.134-4.326 0 0m-51-2h1.759-1.759m6 0h1.759-1.759m11 0c-8.836-5.775 29.04 7.148 0 0m-324-3c10.792.256 17.509.415 0 0m263-1c6.904-5.46 3.791 9.612 0 0m-290-1h2.084-2.084m-40-1h2.084-2.084m78-1c-3.839-14.13 15.283 2.295 0 0m138 0c3.783-4.648 5.224 11.261 0 0m-173-5c5.869-11.952 11.273 11.121 0 0m238 0c-3.174-8.634 11.923 13.429 0 0m-165-4c-28.402 5.942-14.945-67.33-44.47-20.06 35.543-17.294-16.885-57.932 32.673-26.617.086 29.858 55.02 7.604 7.323 31.599-27.744 13.23 31.883 18.999 4.475 15.07m7 1c-.806-5.654-2.936 4.405 0 0m-28-11c13.628-9.142-7.744-5.445 0 0m11-11c-5.264-2.01.582 5.771 0 0m-3-8c-8.915-14.664 3.878 9.846 0 0m-139 28c-17.836-58.55 46.37 6.809 36.503-50.32 38.3-.913 9.185 1.603 8.548 13.07-7.081 18.826-18.893 48.4-45.05 37.26m29-8c-2.966-9.901-3.824 22.683 0 0m-28-13c17.531-17.03-9.991-.608 0 0m38-5c.359-13.13-5.098 5.944 0 0m19 23h2.084-2.084m226-3h3.766-3.766m-16-1c6.469-5.609 1.546 10.969 0 0m-226-2c14.12-13.659 18.623 14.548 0 0m28 1h3.766-3.766m104 0h2.132-2.132m-6-1h2.132-2.132m29-1c5.056-5.985 4.633 4.048 0 0m60 0h1.759-1.759m-73-1h1.759-1.759m56-2c-5.796-2.956 3.827.494 0 0m-158-1h2.132-2.132m119-9c-18.417-6.768 6.54-4.991 0 0m-213-5c-4.986-6.786 5.503.505 0 0m197 0h2.084-2.084m10-3c5.808-14.02 6.492-.219 0 0m-197-5c-15.832-11.683 10.322-4.587 0 0m160 3c.863-9.718 7.922-1.624 0 0m-109-8v-.043.043m-20 0l.632-.978-.632.978m-26-5c-5.38-14.236 4.409 1.841 0 0m6 1c5.946-2.548-2.588 5.945 0 0m5 0c.845-5.425 2.229 4.02 0 0m1-8c.977-9.995 8.474 6.556 0 0m107-1h1.759-1.759m28 0c-1.636-4.75 6.504 5.402 0 0m12 0c3.934-6.03 2.534 8.701 0 0m12-1c4.157-8.733 8.761 10.454 0 0m216-2h1.759-1.759m-209-1h2.132-2.132m7 0h2.132-2.132m-177-2c1.173-13.524 10.729 2.73 0 0m17-5h2.132-2.132m56-1h1.759-1.759m-14-1h1.759-1.759m-112-4c36.582-14.404 77.56-4.232 15.241-3.287l-15.241 3.287m31-2c4.355-7.595 5.198 8.05 0 0m46-5c6.115-5.447 10.114 5.095 0 0m15 0h1.759-1.759m7 0h1.639-1.639m14 0h3.766-3.766m14-1h3.571-3.571m226 0c-40.549-.232 13.786-2.777 0 0m-217-1h2.132-2.132m87 0h6.709-6.709m-81-2c64.21-2.851 39.722 2.985 0 0m69 1h3.118-3.118m32 0h1.639-1.639m-243-24c57.23-36.37 130.23 4.599 193.07-.226 40.03 28.17-75.64 2.334-97.85 14.279-27.27-1.699-82.24 12.841-95.22-14.05m191-19c7.93 0 4.885 0 0 0m155 0c54.32-7.904 47.16 1.468 0 0m-177-1h3.118-3.118m34 0c12.326-.805 9.11-.595 0 0m-41-1h2.132-2.132m163 0c-37.32-5.698-104.03-4.07-30.11-4.893 10.144.819 20.24 2.382 30.11 4.893m-170-2c1.685-4.714 5.912 8.564 0 0m-14-2c-11.835-9 10.01 2.748 0 0m-35-3h3.766-3.766m-88-1h3.766-3.766m25 0h5-5m57 0h1.759-1.759m-100-1c5.841-7.754 7.106 7.746 0 0m58 0h2.132-2.132m38 0c4.59-3.633-.293 7.358 0 0m-28-1h3.571-3.571m9-1h2.132-2.132m281-6c6.389-8.803 8.589 17.797 0 0m-103-26c-25.852 9.268 22.552-20.437 0 0m-35-29c23.725-30.386 51.951 1.944 0 0m127-1c5.411-6.921.74 12.65 0 0m-16-6c8.05-5.503 3.985 11.11 0 0m-3-31c-24.308-.552 20.519-1.624 0 0m-21-3c-37.25-1.839 8.594-2.979 0 0m-25-4h2.084-2.084m-19-1h1.639-1.639m500 0c-5.796-2.956 3.827.494 0 0m-500-7l1.653-.447-1.653.447m4-13l1.449 1.46-1.449-1.46m-18-5h2.132-2.132m-11-1c-.978-7.191 6.235 4.456 0 0m9-6c1.189-4.816 2.883 4.38 0 0m4-4v.911-.911m-3-5c4.653-3.03 4.344 15.483 0 0m11 288c1.577-7.335 4.877 12.06 0 0"
     fill="#2d5c69"
     filter="url(#0)"
     id="path3002" />
  <path
     d="m289 396c2.095-5.02 1.747 5.673 0 0m220-1c2.362-15.18 10.884 3.145 0 0m10-2c-2.472-19.552 8.109 5.336 0 0m124 0c43.823-35.402 8.731-61.47-20.03-16.325-59.941 8.619 118.87-89.01 94.05-85.24 71.848-38.39 69.66 103.93 10.215 104.35-25.812-18.772-13.719-101.94-50.888-39.08-9.956 12.948-18.04 28.729-33.34 36.29m104-30c1.173-30.543-30.924 14.163 0 0m4-26c-13.218-16.732-21.952 12.366 0 0m-457 58c2.095-5.02 1.747 5.673 0 0m5-2c.845-5.425 2.229 4.02 0 0m5-1c1.999-4.483 1.53 5.556 0 0m5-3c.845-5.425 2.229 4.02 0 0m5-2l.632-.978-.632.978m5-2c13.465-7.134 16.817 1.708 0 0m213-4c10.595-18.829 5.469 5.881 0 0m-48-1c59.816-33.823 118.91-71.54 188.74-71.75-52.775 44.686-126.13 49.12-188.74 71.75m-134-2c13.419-9.666 26.342 1.583 0 0m35-7c29.499-17.639 89.96-29.23 26.26-8.432-8.613 3.222-17.33 6.211-26.26 8.432m225-9c8.392-16.226 5.057 3.287 0 0m-174 1c15.713-8.608 12.299 4.096 0 0m25-1l2.01-1.158-2.01 1.158m-1-5c3.616-9.02 10.417 4.103 0 0m28-1c-19.338-5.167 36.714 4.253 0 0m133 0c.731-8.127 6.77 3.02 0 0m-139-5c12.846-3.909 5.754 5.106 0 0m20 0c.315-10.657 8.566.187 0 0m132-5c-1.268-6.397 6.987-1.826 0 0m-147-4c2.035-5.082 1.875 5.337 0 0m6-1c7.473-10.435 8.43 10.583 0 0m-66-1c7.326-10.427 7.147 7.582 0 0m53-1c32.467-9.565 37.907 2.903 0 0m61-4h2.132-2.132m27-4h2.132-2.132m-240-7c3.524-6.816 3.512 6.654 0 0m10-1c2.78 4.691-10.14 1.518 0 0m-98-5c-10.734-35.18 30.622-110.67 26.22-33.3-2.297 14.467-11.533 28.958-26.22 33.3m7-5c.443-36.886-30.909 18.928 0 0m7-9c39.726-36.647-36.645-26.521 0 0m8-43c-.153-9.767-7.402-.835 0 0m-17-22l1.67 1.948-1.67-1.948m-245 80c17.847-5.428 10.02 6.329 0 0m578-2h1.759-1.759m-88-5c-15.793-14.92 8.04 1.709 0 0m-203 0c1.721-5.862 2.916 5.161 0 0m269-1h1.759-1.759m-347-3c-8.569-6.804 11.379 5.615 0 0m6 1h1.759-1.759m334 0h1.759-1.759m-4-1h1.759-1.759m-20-1h2.084-2.084m16 0h1.759-1.759m-58-1c1.999-4.483 1.53 5.556 0 0m28 0h3.571-3.571m21 0h3.118-3.118m-335-2c-26.05-1.654-20.818-6.963 0 0m93 1h1.639-1.639m120-1c6.693-1.586 7.05 13.678 0 0m80 1h2.132-2.132m13 0c-20.442 3.528 4.134-4.326 0 0m-51-2h1.759-1.759m6 0h1.759-1.759m11 0c-8.836-5.775 29.04 7.148 0 0m-324-3c10.792.256 17.509.415 0 0m263-1c6.904-5.46 3.791 9.612 0 0m-290-1h2.084-2.084m-40-1h2.084-2.084m78-1c-3.839-14.13 15.283 2.295 0 0m138 0c3.783-4.648 5.224 11.261 0 0m-173-5c5.869-11.952 11.273 11.121 0 0m238 0c-3.174-8.634 11.923 13.429 0 0m-165-4c-28.402 5.942-14.945-67.33-44.47-20.06 35.543-17.294-16.885-57.932 32.673-26.617.086 29.858 55.02 7.604 7.323 31.599-27.744 13.23 31.883 18.999 4.475 15.07m7 1c-.806-5.654-2.936 4.405 0 0m-28-11c13.628-9.142-7.744-5.445 0 0m11-11c-5.264-2.01.582 5.771 0 0m-3-8c-8.915-14.664 3.878 9.846 0 0m579 27c-46.837-8.806 22.58-30.769 0 0m-718 1c-17.836-58.55 46.37 6.809 36.503-50.32 38.3-.913 9.185 1.603 8.548 13.07-7.081 18.826-18.893 48.4-45.05 37.26m29-8c-2.966-9.901-3.824 22.683 0 0m-28-13c17.531-17.03-9.991-.608 0 0m38-5c.359-13.13-5.098 5.944 0 0m19 23h2.084-2.084m226-3h3.766-3.766m-16-1c6.469-5.609 1.546 10.969 0 0m-226-2c14.12-13.659 18.623 14.548 0 0m28 1h3.766-3.766m104 0h2.132-2.132m-6-1h2.132-2.132m29-1c5.056-5.985 4.633 4.048 0 0m60 0h1.759-1.759m-73-1h1.759-1.759m56-2c-5.796-2.956 3.827.494 0 0m-158-1h2.132-2.132m641-3c-43.03 2.335 15.998-43.09 0 0m-522-6c-18.417-6.768 6.54-4.991 0 0m-213-5c-4.986-6.786 5.503.505 0 0m197 0h2.084-2.084m10-3c5.808-14.02 6.492-.219 0 0m-197-5c-15.832-11.683 10.322-4.587 0 0m160 3c.863-9.718 7.922-1.624 0 0m533-4l1.653-.447-1.653.447m-642-4v-.043.043m-20 0l.632-.978-.632.978m-26-5c-5.38-14.236 4.409 1.841 0 0m6 1c5.946-2.548-2.588 5.945 0 0m5 0c.845-5.425 2.229 4.02 0 0m693-1c3.368-11 1.379 4.616 0 0m-692-7c.977-9.995 8.474 6.556 0 0m107-1h1.759-1.759m28 0c-1.636-4.75 6.504 5.402 0 0m12 0c3.934-6.03 2.534 8.701 0 0m12-1c4.157-8.733 8.761 10.454 0 0m216-2h1.759-1.759m-209-1h2.132-2.132m7 0h2.132-2.132m-177-2c1.173-13.524 10.729 2.73 0 0m426 0c-69.18 8.94-134.68-49.07-203.07-21.785 36.593-17.3 123.65 8.05 180.11-19.972 39.556-48.924-34.417 4.096-52.584-41.37-37.549 7.257-142.6-40.66-50.04-32.529 40.12 20.634 145.44-34.34 54.25-33.17-100.96-32.02 49.896-68.43 89.61-76.39 89.71-3.082 179.83.6 269.72-.781-5.222 48.08-147.74 10.617-67.18 73.08 73.39-50.37 92.96 77.992 45.19 111.46-65.53-19.373-13.439 1.092 13.298 24.922-87.82 17.863-183.31-5.204-272.41 16.958l-4.364-.261-2.534-.152m23-33c42.07-29.31-56.48-17.15 0 0m256 29c-2.269-18.456 3.361 4.673 0 0m7 3c2.095-5.02 1.747 5.673 0 0m-695-4h2.132-2.132m56-1h1.759-1.759m-14-1h1.759-1.759m-112-4c36.582-14.404 77.56-4.232 15.241-3.287l-15.241 3.287m31-2c4.355-7.595 5.198 8.05 0 0m46-5c6.115-5.447 10.114 5.095 0 0m15 0h1.759-1.759m7 0h1.639-1.639m14 0h3.766-3.766m14-1h3.571-3.571m226 0c-40.549-.232 13.786-2.777 0 0m-217-1h2.132-2.132m87 0h6.709-6.709m-81-2c64.21-2.851 39.722 2.985 0 0m69 1h3.118-3.118m32 0h1.639-1.639m-243-24c57.23-36.37 130.23 4.599 193.07-.226 40.03 28.17-75.64 2.334-97.85 14.279-27.27-1.699-82.24 12.841-95.22-14.05m448 0c6.927-8.233 5 11.137 0 0m-257-19c7.93 0 4.885 0 0 0m155 0c54.32-7.904 47.16 1.468 0 0m-177-1h3.118-3.118m34 0c12.326-.805 9.11-.595 0 0m-41-1h2.132-2.132m163 0c-37.32-5.698-104.03-4.07-30.11-4.893 10.144.819 20.24 2.382 30.11 4.893m-170-2c1.685-4.714 5.912 8.564 0 0m-14-2c-11.835-9 10.01 2.748 0 0m-35-3h3.766-3.766m-88-1h3.766-3.766m25 0h5-5m57 0h1.759-1.759m-100-1c5.841-7.754 7.106 7.746 0 0m58 0h2.132-2.132m38 0c4.59-3.633-.293 7.358 0 0m-28-1h3.571-3.571m9-1h2.132-2.132m281-6c6.389-8.803 8.589 17.797 0 0m-103-26c-25.852 9.268 22.552-20.437 0 0m-35-29c23.725-30.386 51.951 1.944 0 0m127-1c5.411-6.921.74 12.65 0 0m-16-6c8.05-5.503 3.985 11.11 0 0m-3-31c-24.308-.552 20.519-1.624 0 0m-21-3c-37.25-1.839 8.594-2.979 0 0m-25-4h2.084-2.084m-19-1h1.639-1.639m500 0c-5.796-2.956 3.827.494 0 0m-500-7l1.653-.447-1.653.447m4-13l1.449 1.46-1.449-1.46m-18-5h2.132-2.132m-11-1c-.978-7.191 6.235 4.456 0 0m9-6c1.189-4.816 2.883 4.38 0 0m4-4v.911-.911m-3-5c4.653-3.03 4.344 15.483 0 0m11 288c1.577-7.335 4.877 12.06 0 0"
     fill="#4c4948"
     filter="url(#0)"
     id="path3004" />
  <path
     d="m710 390c41.09-54.14-42.971-48.48-45.503-40.32-22.264 3.864-88.05 57.29-35.428 8.252 40.761-30.937 129.18-128.42 139.8-26.81 1.842 30.675-19.409 89.54-58.871 58.883m39-28c-7.137-31.636-31.16 19.564 0 0m2-25c-13.218-16.732-21.952 12.366 0 0m-95 48c8.264-14.383 4.779 3.799 0 0m-171-5c47.1-32.718 97.06-47.689 155.9-72.37 60.34 14.205-89.71 53.643-127.16 62.29-10.04 1.612-20.277 4.12-28.734 10.08m-40-19c4.938-6.202 2.967 8.713 0 0m15-4c1.189-4.816 2.883 4.38 0 0m38-1h1.639-1.639m-11-1h1.759-1.759m-21-1h1.759-1.759m9 0h1.759-1.759m10-2h2.132-2.132m-46-1c-2.329-5.831 5.832 1.528 0 0m148-27c-2.083-8.959 7.556 1.463 0 0m-362-11c5.02-4.369 1.98 13.309 0 0m-49-11c4.148.878-2.108 10.04 0 0m233-3c1.685-4.714 5.912 8.564 0 0m351-14c-46.837-8.806 22.58-30.769 0 0m-705-2c4.557-3.379-2.201 6.775 0 0m5 1c1.189-4.816 2.883 4.38 0 0m5-6c3.399-20.922 8.6 15.705 0 0m5 2c-4.239-17.535 9.8 3.148 0 0m108 0l2.991 5.717-2.991-5.717m-123-2v-.043.043m194 1c.208-8.285 8.916.925 0 0m-76-4v-.043.043m-139-2c1.312-15.486 11.429 7.574 0 0m19-1c-2.286-8.154 7.999 1.323 0 0m11-4c2.676-5.264-1.656 11.663 0 0m701 1c-43.03 2.335 15.998-43.09 0 0m-722-5c-5.895-20.13 7.767-3.402 0 0m-3 0l-.008-1.59.008 1.59m153 2c1.189-4.816 2.883 4.38 0 0m-135-1c-3.272-10.151 11.871.313 0 0m29-4c-.368-23.964 20.27-.631 0 0m5 0c12.179-10.309-12.46-.376 0 0m170 3v-.043.043m-109 0l4.79-4.787-4.79 4.787m66-2c2.048-7.229 13.454-3.046 0 0m-170-2c2.829-6.965 3.668 5.529 0 0m133-1c-12.664-5.377 4.311-3.038 0 0m78-1c-12.664-5.377 4.311-3.038 0 0m-220 1c-6.369-7.451 8.321.435 0 0m15 0h1.759-1.759m21-1c-2.741-6.04 3.782 2.316 0 0m179-2c-18.882-5.861 6.875-9.952 0 0m0-3c4.773-9.679-12.641-2.727 0 0m-174 5c-16.381-12.499 5.624-15.723 0 0m153-1c1.721-5.862 2.916 5.161 0 0m-74-1c.73-5.917 5.281 3.723 0 0m17-1v-.806.806m-136-4v.911-.911m57 2c1.999-4.483 1.53 5.556 0 0m106-5c7.81-4.315-12.974 10.467 0 0m14 2c-3.546-7.866 8.488.726 0 0m-39-1c-2.329-5.831 5.832 1.528 0 0m554 0l1.653-.447-1.653.447m-693-5c2.78 4.691-10.14 1.518 0 0m46-5c-2.329-5.831 5.832 1.528 0 0m8-3c-7.629-12.168 7.539 1.565 0 0m-4-1c2.988-9.09 1.834 5.874 0 0m9-2l.571.937-.571-.937m-19-4c2.248-9.761 5.313-.403 0 0m396-3c-49.774-9.677 25.4-96.51-37.625-58.19 32.19-41.622 111.04-14.176 162.62-37.39 93.01-8.219-97.1-78.83-32.22-127.15 61.06-4.101 152.29-10.713 196.62 5.612-24.744 31.01-140.35-2.504-73.14 64.52 57.775-21.705 96.68 7.949 74.71 71.14 12.02 40.447-81.12 62.39-52.659 34.29 35.97 15.174 65.44 45.692 4.789 36.565-40.807-7.376-133.75 18.473-97.61-23.746-37.26-28.27-160.04-22.428-153.2 18.582 25.25 5.172 62.95 16.221 7.729 15.767m-422-1c-.271-6.335 3.594 3.427 0 0m711 0c2.095-5.02 1.747 5.673 0 0m-7-3c-5.897-15.11 5.795-.319 0 0m-354 0h3.571-3.571m8-3c6.297-3.11-6.963 18.328 0 0m20 3c-15.16-26.6 27.717 7.979 0 0m17 0c6.264-10.92 8.105 6.662 0 0m-52-2c-57.4-18.874 50.15-32.11 0 0m8-3v-.043.043m148 0h3.766-3.766m-33-1h3.571-3.571m54 0h5-5m-498-8h2.132-2.132m10-1h1.759-1.759m272 0h1.759-1.759m-135-1c7.93 0 4.885 0 0 0m123 0h3.571-3.571m-32-1c-11.96-4.566 9.235-.729 0 0m-137-1h6.64-6.64m26 0h2.132-2.132m60 0h3.259-3.259m-114-1h1.759-1.759m232-1h3.118-3.118m152-1c7.627-5.985 5.646 6.258 0 0m-227 0c1.999-4.483 1.53 5.556 0 0m45-1h2.132-2.132m224-1h1.759-1.759m6-2c3.457-9.765 4.278 3.145 0 0m-84-2c9.909-10.509 14.605 3.056 0 0m-66-1c15.654-5.628 9.54 4.728 0 0m-221-1c-47.875-5.434 32.995-14.06 0 0m212 0c1.492-6.074 3.586 5.973 0 0m26-12c6.927-8.233 5 11.137 0 0m-344-10h2.132-2.132m-50-2h1.639-1.639m-18-1h2.132-2.132m-7-1h2.084-2.084m245-10h2.132-2.132m154-4c-13.173-1.07 5.31-5.927 0 0m-425-2h2.132-2.132m418-3h2.132-2.132m-10-1h2.132-2.132m-53-15h1.759-1.759m-6-1h2.132-2.132m-10-1h2.084-2.084m-9-1h2.084-2.084m-12-1c6.382-5.761 7.891 11.458 0 0m162-2c4.09-8.06 4.478 8.453 0 0m-172-5c4.745-15.732 8.401 1.105 0 0m202-2c4.352-10.808 8.806 9.758 0 0m-220-3c3.328-5.129 6.753 16.342 0 0m130-5c3.509-7.161 4.88 6.961 0 0m8-9h1.759-1.759m9-1c4.913-7.385 6.838 7.536 0 0m59-10c-39.595.762 42.07-16.741 0 0m-34-2h3.118-3.118m-242-3c31.618-35.499 42.44 10.629 0 0m124 1c1.999-4.483 1.53 5.556 0 0m107-4h1.759-1.759m-10-2c-26.871-7.529 10.874-1.525 0 0m115-4c8.08-6.531 19.779 1.546 0 0m-145-2c15.246-6.04 10.09 5.135 0 0m-29-4h1.759-1.759m-21-12c2.785-7.338 5.104 5.742 0 0m116-9c15.01-4.962 45.834-4.766 12.751-.932l-12.751.932m-136 1h1.759-1.759m5-1c-.309-8.845 5.608 1.714 0 0m-18-1h2.132-2.132m23-1h1.759-1.759m4-1h1.759-1.759m6-1h3.571-3.571m9-2c.902-15.14 9.578 4.84 0 0m58-3c6.683-7.05 8.04 7.19 0 0m-30-5c-1.268-6.397 6.987-1.826 0 0m11-8h1.759-1.759m5-1h1.759-1.759m5-1h2.084-2.084m5-1h2.132-2.132m3-3c8.485-4.979 2.643 15.988 0 0m-2-4c1.325-9.117 6.679 5.137 0 0m19-4h2.132-2.132m14-4c2.449-8.489 14.68-4.958 0 0m13-8c2.288-7.228 5.286 2.748 0 0m7-2h2.132-2.132"
     fill="#232a2d"
     filter="url(#0)"
     id="path3006" />
  <g
     id="Layer_1"
     transform="matrix(0.39690304,0,0,0.39690304,252.22658,119.13032)">
    <g
       id="g3110">
      <g
         id="g3112">
        <path
           id="path3114"
           d="m 446.694,64.099 c 74.972,80.958 70.202,207.342 -10.659,282.419 -80.861,75.077 -207.251,70.47 -282.432,-10.294 C 78.422,255.461 82.865,129.065 163.531,53.779 244.198,-21.506 370.6,-17.227 445.989,63.342"
           inkscape:connector-curvature="0"
           style="opacity:0.5;fill:#ffffff" />
      </g>
      <g
         id="g124152"
         style="opacity:0.5">
        <path
           id="rect124154"
           d="m 342.274,265.921 c 0.007,-0.007 0.007,-0.018 0,-0.025 l -64.751,-65.672 c -0.007,-0.007 -0.018,-0.007 -0.025,-10e-4 l -65.672,64.752 c -0.007,0.007 -0.007,0.018 0,0.025 l 64.751,65.672 c 0.007,0.007 0.018,0.007 0.025,0 l 65.672,-64.751 z"
           inkscape:connector-curvature="0"
           style="fill:url(#Gradient_1)" />
        <path
           id="rect124156"
           d="m 407.971,201.145 c 0.006,-0.006 0.006,-0.018 0,-0.025 l -64.752,-65.672 c -0.007,-0.007 -0.018,-0.007 -0.025,0 L 277.522,200.2 c -0.007,0.006 -0.007,0.018 0,0.025 l 64.752,65.672 c 0.006,0.007 0.017,0.007 0.024,0 l 65.673,-64.752 z"
           inkscape:connector-curvature="0"
           style="fill:url(#Gradient_2)" />
        <path
           id="rect124158"
           d="m 343.194,135.448 c 0.007,-0.007 0.007,-0.018 0,-0.025 L 278.443,69.751 c -0.007,-0.007 -0.018,-0.007 -0.025,0 l -65.672,64.751 c -0.007,0.007 -0.007,0.018 0,0.025 l 64.751,65.672 c 0.007,0.007 0.018,0.007 0.025,10e-4 l 65.672,-64.752 z"
           inkscape:connector-curvature="0"
           style="fill:url(#Gradient_3)" />
      </g>
    </g>
  </g>
</svg>
