<?xml version="1.0" encoding="UTF-8"?>
<!DOCTYPE svg PUBLIC "-//W3C//DTD SVG 1.1//EN" "http://www.w3.org/Graphics/SVG/1.1/DTD/svg11.dtd">
<svg version="1.1" xmlns="http://www.w3.org/2000/svg" xmlns:xlink="http://www.w3.org/1999/xlink" x="0" y="0" width="33.92" height="32.833" viewBox="0, 0, 33.92, 32.833">
  <g id="text-grow-icon" transform="translate(-198.392, -148.367)">
    <g>
      <path d="M203.183,163.015 L198.937,158.769 L205.518,152.613 L201.06,148.367 L213.584,148.367 L213.584,160.892 L209.339,156.434 L203.183,163.015 z" fill="#959595"/>
      <g>
        <path d="M224.567,172.818 L221.742,164.861 L221.682,164.861 L218.948,172.818 z M224.111,159.515 L232.312,181.2 L227.513,181.2 L225.812,176.371 L217.703,176.371 L216.063,181.2 L211.113,181.2 L219.222,159.515 z" fill="#959595"/>
        <path d="M206.671,176.042 L204.933,171.145 L204.896,171.145 L203.214,176.042 z M206.391,167.856 L211.437,181.2 L208.484,181.2 L207.438,178.229 L202.447,178.229 L201.438,181.2 L198.392,181.2 L203.382,167.856 z" fill="#959595"/>
      </g>
    </g>
  </g>
</svg>
