<?xml version="1.0" encoding="UTF-8"?>
<!DOCTYPE svg PUBLIC "-//W3C//DTD SVG 1.1//EN" "http://www.w3.org/Graphics/SVG/1.1/DTD/svg11.dtd">
<svg version="1.1" xmlns="http://www.w3.org/2000/svg" xmlns:xlink="http://www.w3.org/1999/xlink" x="0" y="0" width="280.762" height="73.261" viewBox="0, 0, 280.762, 73.261">
  <defs>
    <linearGradient id="Gradient_1" gradientUnits="userSpaceOnUse" x1="854.633" y1="494.359" x2="969.826" y2="545.994" gradientTransform="matrix(1.07, 0, 0, 1.07, -716.849, -5.661)">
      <stop offset="0" stop-color="#E9E9E9"/>
      <stop offset="0.5" stop-color="#F6F6F6"/>
      <stop offset="1" stop-color="#E2E2E2"/>
    </linearGradient>
    <linearGradient id="Gradient_2" gradientUnits="userSpaceOnUse" x1="970.606" y1="546.486" x2="1085.248" y2="495.343" gradientTransform="matrix(1.07, 0, 0, 1.07, -716.849, -5.661)">
      <stop offset="0" stop-color="#E9E9E9"/>
      <stop offset="0.5" stop-color="#F6F6F6"/>
      <stop offset="1" stop-color="#E2E2E2"/>
    </linearGradient>
  </defs>
  <g id="book" transform="translate(-180.238, -523.739)">
    <g>
      <path d="M277.856,528.185 L243.664,530.956 L180.238,597 L306.758,591.778 C306.758,591.778 308.089,593.263 312.361,593.855 C316.634,594.446 324.851,594.399 328.895,593.855 C332.939,593.31 334.48,591.778 334.48,591.778 L461,597 L397.593,530.956 L363.382,528.185 L320.619,544.847 z" fill="#808080" id="path3065"/>
      <path d="M288.495,524.465 C275.006,521.949 242.008,526.78 242.008,526.78 L196.075,574.011 C196.075,574.011 197.975,576.861 198.342,579.421 C198.709,581.981 197.199,589.108 197.199,589.108 C197.199,589.108 239.189,585.552 257.879,585.345 C276.568,585.138 308.918,587.171 308.918,587.171 C307.567,584.694 315.083,580.289 320.498,580.506 C326.736,580.429 333.208,585.117 332.014,587.171 C332.014,587.171 364.364,585.138 383.053,585.345 C401.742,585.552 443.732,589.108 443.732,589.108 C443.732,589.108 442.222,581.981 442.589,579.421 C442.956,576.861 444.857,574.011 444.857,574.011 L398.923,526.78 C398.923,526.78 365.91,521.948 352.418,524.465 C338.927,526.981 320.456,538.996 320.456,538.996 C320.456,538.996 301.983,526.981 288.495,524.465 z" fill="#CCCCCC" id="path3082"/>
      <path d="M271.664,523.743 C256.421,523.833 242.377,526.783 242.377,526.783 L196.444,574.009 C196.444,574.009 196.542,574.164 196.591,574.241 C236.917,569.492 279.12,570.424 320.644,578.785 L320.705,538.937 C317.453,536.884 300.93,526.722 288.864,524.472 C285.913,523.921 275.932,523.717 271.664,523.743 z" fill="url(#Gradient_1)" id="path3772"/>
      <path d="M370.733,523.743 C385.976,523.833 398.584,526.783 398.584,526.783 L444.517,574.009 C444.517,574.009 444.419,574.164 444.37,574.241 C404.044,569.492 361.841,570.424 320.317,578.785 L320.256,538.937 C323.508,536.884 340.031,526.722 352.097,524.472 C355.048,523.921 366.465,523.717 370.733,523.743 z" fill="url(#Gradient_2)" id="path3775"/>
      <path d="M320.232,538.931 L320.232,577.546 C320.041,578.247 319.805,578.983 319.237,579.764 C320.047,579.72 320.858,579.724 321.688,579.764 C321.024,578.687 320.894,578.054 320.693,577.422 L320.693,538.931 L320.232,538.931 z" fill="#B3B3B3" id="rect3777"/>
      <path d="M244.73,574.816 C229.447,574.85 213.022,577.019 198.115,577.897 L198.433,578.526 C238.704,574.01 279.891,574.651 320.918,579.453 L320.918,578.832 C295.155,576.168 270.404,574.758 244.73,574.816 z" fill="#B3B3B3" id="path3791"/>
      <path d="M395.348,576.724 C410.533,576.759 427.01,579.596 441.822,580.475 L441.506,581.104 C401.493,576.587 361.111,574.819 320.346,579.622 L320.346,579 C345.944,576.336 369.838,576.667 395.348,576.724 z" fill="#B3B3B3" id="path3900"/>
    </g>
  </g>
</svg>
