<?xml version="1.0" encoding="UTF-8"?>
<!DOCTYPE svg PUBLIC "-//W3C//DTD SVG 1.1//EN" "http://www.w3.org/Graphics/SVG/1.1/DTD/svg11.dtd">
<svg version="1.1" xmlns="http://www.w3.org/2000/svg" xmlns:xlink="http://www.w3.org/1999/xlink" x="0" y="0" width="280.038" height="74.195" viewBox="0, 0, 280.038, 74.195">
  <defs>
    <linearGradient id="Gradient_1" gradientUnits="userSpaceOnUse" x1="1595.997" y1="547.394" x2="1607.792" y2="557.287">
      <stop offset="0" stop-color="#909090"/>
      <stop offset="1" stop-color="#828282"/>
    </linearGradient>
    <linearGradient id="Gradient_2" gradientUnits="userSpaceOnUse" x1="1589.909" y1="546.253" x2="1597.9" y2="557.287">
      <stop offset="0" stop-color="#838383"/>
      <stop offset="1" stop-color="#8A8A8A"/>
    </linearGradient>
    <linearGradient id="Gradient_3" gradientUnits="userSpaceOnUse" x1="1597.9" y1="550.438" x2="1623.773" y2="557.287">
      <stop offset="0" stop-color="#909090"/>
      <stop offset="1" stop-color="#888888"/>
    </linearGradient>
    <linearGradient id="Gradient_4" gradientUnits="userSpaceOnUse" x1="1451.032" y1="541.687" x2="1468.535" y2="561.092">
      <stop offset="0" stop-color="#A4A4A4"/>
      <stop offset="1" stop-color="#A7A7A7"/>
    </linearGradient>
    <linearGradient id="Gradient_5" gradientUnits="userSpaceOnUse" x1="1467.013" y1="505.541" x2="1512.671" y2="537.882">
      <stop offset="0" stop-color="#E8E8E8"/>
      <stop offset="1" stop-color="#F2F2F2"/>
    </linearGradient>
    <linearGradient id="Gradient_6" gradientUnits="userSpaceOnUse" x1="1505.822" y1="505.541" x2="1551.1" y2="536.741">
      <stop offset="0" stop-color="#F4F4F4"/>
      <stop offset="1" stop-color="#EEEEEE"/>
    </linearGradient>
    <linearGradient id="Gradient_7" gradientUnits="userSpaceOnUse" x1="1505.822" y1="534.077" x2="1551.1" y2="548.916">
      <stop offset="0" stop-color="#DCDCDC"/>
      <stop offset="1" stop-color="#CDCDCD"/>
    </linearGradient>
    <linearGradient id="Gradient_8" gradientUnits="userSpaceOnUse" x1="1623.773" y1="534.838" x2="1648.124" y2="550.438">
      <stop offset="0" stop-color="#B3B3B3"/>
      <stop offset="1" stop-color="#D5D5D5"/>
    </linearGradient>
    <linearGradient id="Gradient_9" gradientUnits="userSpaceOnUse" x1="1633.285" y1="534.838" x2="1658.016" y2="548.536">
      <stop offset="0" stop-color="#DEDEDE"/>
      <stop offset="1" stop-color="#D5D5D5"/>
    </linearGradient>
    <linearGradient id="Gradient_10" gradientUnits="userSpaceOnUse" x1="1633.285" y1="496.79" x2="1658.016" y2="534.838">
      <stop offset="0" stop-color="#F3F3F3"/>
      <stop offset="1" stop-color="#F2F2F2"/>
    </linearGradient>
    <linearGradient id="Gradient_11" gradientUnits="userSpaceOnUse" x1="1648.124" y1="534.838" x2="1658.016" y2="548.536">
      <stop offset="0" stop-color="#C8C8C8"/>
      <stop offset="1" stop-color="#D7D7D7"/>
    </linearGradient>
    <linearGradient id="Gradient_12" gradientUnits="userSpaceOnUse" x1="1685.792" y1="535.219" x2="1702.914" y2="550.058">
      <stop offset="0" stop-color="#C9C9C9"/>
      <stop offset="1" stop-color="#D2D2D2"/>
    </linearGradient>
    <linearGradient id="Gradient_13" gradientUnits="userSpaceOnUse" x1="1685.792" y1="535.219" x2="1713.567" y2="543.59">
      <stop offset="0" stop-color="#C9C9C9"/>
      <stop offset="1" stop-color="#E6E6E6"/>
    </linearGradient>
    <linearGradient id="Gradient_14" gradientUnits="userSpaceOnUse" x1="1654.212" y1="490.702" x2="1668.29" y2="534.838">
      <stop offset="0" stop-color="#F2F2F2"/>
      <stop offset="1" stop-color="#F4F4F4"/>
    </linearGradient>
    <linearGradient id="Gradient_15" gradientUnits="userSpaceOnUse" x1="1658.016" y1="490.702" x2="1685.792" y2="535.219">
      <stop offset="0" stop-color="#F0F0F0"/>
      <stop offset="1" stop-color="#F3F3F3"/>
    </linearGradient>
    <linearGradient id="Gradient_16" gradientUnits="userSpaceOnUse" x1="1668.29" y1="490.702" x2="1713.567" y2="537.502">
      <stop offset="0" stop-color="#EBEBEB"/>
      <stop offset="1" stop-color="#F7F7F7"/>
    </linearGradient>
    <linearGradient id="Gradient_17" gradientUnits="userSpaceOnUse" x1="1611.217" y1="487.278" x2="1643.177" y2="534.838">
      <stop offset="0" stop-color="#F4F4F4"/>
      <stop offset="1" stop-color="#F5F5F5"/>
    </linearGradient>
    <linearGradient id="Gradient_18" gradientUnits="userSpaceOnUse" x1="1633.285" y1="487.278" x2="1654.212" y2="534.838">
      <stop offset="0" stop-color="#F3F3F3"/>
      <stop offset="1" stop-color="#F7F7F7"/>
    </linearGradient>
    <linearGradient id="Gradient_19" gradientUnits="userSpaceOnUse" x1="1643.177" y1="487.278" x2="1668.29" y2="496.79">
      <stop offset="0" stop-color="#F1F1F1"/>
      <stop offset="1" stop-color="#F9F9F9"/>
    </linearGradient>
    <linearGradient id="Gradient_20" gradientUnits="userSpaceOnUse" x1="1551.1" y1="488.039" x2="1575.071" y2="536.741">
      <stop offset="0" stop-color="#E9E9E9"/>
      <stop offset="1" stop-color="#F6F6F6"/>
    </linearGradient>
    <linearGradient id="Gradient_21" gradientUnits="userSpaceOnUse" x1="1512.671" y1="488.419" x2="1551.1" y2="536.741">
      <stop offset="0" stop-color="#F3F3F3"/>
      <stop offset="1" stop-color="#F1F1F1"/>
    </linearGradient>
    <linearGradient id="Gradient_22" gradientUnits="userSpaceOnUse" x1="1528.651" y1="488.039" x2="1554.905" y2="536.741">
      <stop offset="0" stop-color="#EBEBEB"/>
      <stop offset="1" stop-color="#F7F7F7"/>
    </linearGradient>
    <linearGradient id="Gradient_23" gradientUnits="userSpaceOnUse" x1="1467.013" y1="490.702" x2="1512.671" y2="537.882">
      <stop offset="0" stop-color="#E8E8E8"/>
      <stop offset="1" stop-color="#F3F3F3"/>
    </linearGradient>
    <linearGradient id="Gradient_24" gradientUnits="userSpaceOnUse" x1="1511.91" y1="488.419" x2="1528.651" y2="505.541">
      <stop offset="0" stop-color="#F2F2F2"/>
      <stop offset="1" stop-color="#F6F6F6"/>
    </linearGradient>
    <linearGradient id="Gradient_25" gradientUnits="userSpaceOnUse" x1="1597.9" y1="550.438" x2="1667.529" y2="558.428">
      <stop offset="0" stop-color="#909090"/>
      <stop offset="1" stop-color="#9B9B9B"/>
    </linearGradient>
    <linearGradient id="Gradient_26" gradientUnits="userSpaceOnUse" x1="1597.9" y1="557.287" x2="1731.07" y2="561.472">
      <stop offset="0" stop-color="#B9B9B9"/>
      <stop offset="1" stop-color="#D9D9D9"/>
    </linearGradient>
    <linearGradient id="Gradient_27" gradientUnits="userSpaceOnUse" x1="1623.773" y1="548.536" x2="1667.529" y2="558.428">
      <stop offset="0" stop-color="#8D8D8D"/>
      <stop offset="1" stop-color="#A9A9A9"/>
    </linearGradient>
    <linearGradient id="Gradient_28" gradientUnits="userSpaceOnUse" x1="1648.124" y1="548.155" x2="1667.529" y2="558.428">
      <stop offset="0" stop-color="#A2A2A2"/>
      <stop offset="1" stop-color="#ACACAC"/>
    </linearGradient>
    <linearGradient id="Gradient_29" gradientUnits="userSpaceOnUse" x1="1667.529" y1="550.058" x2="1731.07" y2="561.472">
      <stop offset="0" stop-color="#A6A6A6"/>
      <stop offset="1" stop-color="#BDBDBD"/>
    </linearGradient>
    <linearGradient id="Gradient_30" gradientUnits="userSpaceOnUse" x1="1467.013" y1="537.882" x2="1490.603" y2="550.438">
      <stop offset="0" stop-color="#D6D6D6"/>
      <stop offset="1" stop-color="#C7C7C7"/>
    </linearGradient>
    <linearGradient id="Gradient_31" gradientUnits="userSpaceOnUse" x1="1467.013" y1="534.077" x2="1505.822" y2="550.438">
      <stop offset="0" stop-color="#D3D3D3"/>
      <stop offset="1" stop-color="#D4D4D4"/>
    </linearGradient>
    <linearGradient id="Gradient_32" gradientUnits="userSpaceOnUse" x1="1467.774" y1="541.687" x2="1490.603" y2="552.721">
      <stop offset="0" stop-color="#BFBFBF"/>
      <stop offset="1" stop-color="#C7C7C7"/>
    </linearGradient>
    <linearGradient id="Gradient_33" gradientUnits="userSpaceOnUse" x1="1700.631" y1="543.59" x2="1712.806" y2="551.58">
      <stop offset="0" stop-color="#EAEAEA"/>
      <stop offset="1" stop-color="#B0B0B0"/>
    </linearGradient>
    <linearGradient id="Gradient_34" gradientUnits="userSpaceOnUse" x1="1700.631" y1="550.058" x2="1731.07" y2="561.472">
      <stop offset="0" stop-color="#A6A6A6"/>
      <stop offset="1" stop-color="#AAAAAA"/>
    </linearGradient>
    <linearGradient id="Gradient_35" gradientUnits="userSpaceOnUse" x1="1551.1" y1="536.741" x2="1579.636" y2="551.58">
      <stop offset="0" stop-color="#D8D8D8"/>
      <stop offset="1" stop-color="#BBBBBB"/>
    </linearGradient>
    <linearGradient id="Gradient_36" gradientUnits="userSpaceOnUse" x1="1551.1" y1="494.507" x2="1579.636" y2="539.024">
      <stop offset="0" stop-color="#E7E7E7"/>
      <stop offset="1" stop-color="#EEEEEE"/>
    </linearGradient>
    <linearGradient id="Gradient_37" gradientUnits="userSpaceOnUse" x1="1560.993" y1="539.024" x2="1579.636" y2="553.102">
      <stop offset="0" stop-color="#A6A6A6"/>
      <stop offset="1" stop-color="#BBBBBB"/>
    </linearGradient>
    <linearGradient id="Gradient_38" gradientUnits="userSpaceOnUse" x1="1572.027" y1="539.024" x2="1582.3" y2="553.102">
      <stop offset="0" stop-color="#A6A6A6"/>
      <stop offset="1" stop-color="#BBBBBB"/>
    </linearGradient>
    <linearGradient id="Gradient_39" gradientUnits="userSpaceOnUse" x1="1575.071" y1="494.507" x2="1590.67" y2="539.024">
      <stop offset="0" stop-color="#F1F1F1"/>
      <stop offset="1" stop-color="#E8E8E8"/>
    </linearGradient>
    <linearGradient id="Gradient_40" gradientUnits="userSpaceOnUse" x1="1590.67" y1="491.843" x2="1611.217" y2="539.404">
      <stop offset="0" stop-color="#EDEDED"/>
      <stop offset="1" stop-color="#EFEFEF"/>
    </linearGradient>
    <linearGradient id="Gradient_41" gradientUnits="userSpaceOnUse" x1="1595.997" y1="539.404" x2="1607.792" y2="552.341">
      <stop offset="0" stop-color="#A9A9A9"/>
      <stop offset="1" stop-color="#BCBCBC"/>
    </linearGradient>
    <linearGradient id="Gradient_42" gradientUnits="userSpaceOnUse" x1="1602.085" y1="539.404" x2="1623.773" y2="552.341">
      <stop offset="0" stop-color="#A6A6A6"/>
      <stop offset="1" stop-color="#C5C5C5"/>
    </linearGradient>
    <linearGradient id="Gradient_43" gradientUnits="userSpaceOnUse" x1="1602.085" y1="491.843" x2="1633.285" y2="539.404">
      <stop offset="0" stop-color="#F2F2F2"/>
      <stop offset="1" stop-color="#EEEEEE"/>
    </linearGradient>
    <linearGradient id="Gradient_44" gradientUnits="userSpaceOnUse" x1="1602.085" y1="534.838" x2="1633.285" y2="550.438">
      <stop offset="0" stop-color="#B2B2B2"/>
      <stop offset="1" stop-color="#E1E1E1"/>
    </linearGradient>
    <linearGradient id="Gradient_45" gradientUnits="userSpaceOnUse" x1="1490.603" y1="534.077" x2="1506.203" y2="550.438">
      <stop offset="0" stop-color="#C8C8C8"/>
      <stop offset="1" stop-color="#D7D7D7"/>
    </linearGradient>
    <linearGradient id="Gradient_46" gradientUnits="userSpaceOnUse" x1="1505.822" y1="534.077" x2="1518.759" y2="549.297">
      <stop offset="0" stop-color="#DFDFDF"/>
      <stop offset="1" stop-color="#C6C6C6"/>
    </linearGradient>
    <linearGradient id="Gradient_47" gradientUnits="userSpaceOnUse" x1="1467.774" y1="550.438" x2="1490.603" y2="559.189">
      <stop offset="0" stop-color="#999999"/>
      <stop offset="1" stop-color="#A3A3A3"/>
    </linearGradient>
    <linearGradient id="Gradient_48" gradientUnits="userSpaceOnUse" x1="1483.754" y1="549.297" x2="1506.203" y2="559.189">
      <stop offset="0" stop-color="#A2A2A2"/>
      <stop offset="1" stop-color="#A4A4A4"/>
    </linearGradient>
    <linearGradient id="Gradient_49" gradientUnits="userSpaceOnUse" x1="1483.754" y1="548.916" x2="1518.759" y2="559.189">
      <stop offset="0" stop-color="#A4A4A4"/>
      <stop offset="1" stop-color="#A1A1A1"/>
    </linearGradient>
    <linearGradient id="Gradient_50" gradientUnits="userSpaceOnUse" x1="1451.032" y1="552.721" x2="1483.754" y2="561.092">
      <stop offset="0" stop-color="#A4A4A4"/>
      <stop offset="1" stop-color="#9D9D9D"/>
    </linearGradient>
    <linearGradient id="Gradient_51" gradientUnits="userSpaceOnUse" x1="1654.973" y1="534.838" x2="1681.607" y2="548.916">
      <stop offset="0" stop-color="#CCCCCC"/>
      <stop offset="1" stop-color="#D7D7D7"/>
    </linearGradient>
    <linearGradient id="Gradient_52" gradientUnits="userSpaceOnUse" x1="1654.973" y1="548.155" x2="1681.607" y2="558.428">
      <stop offset="0" stop-color="#A6A6A6"/>
      <stop offset="1" stop-color="#ACACAC"/>
    </linearGradient>
    <linearGradient id="Gradient_53" gradientUnits="userSpaceOnUse" x1="1658.016" y1="534.838" x2="1685.792" y2="548.916">
      <stop offset="0" stop-color="#DDDDDD"/>
      <stop offset="1" stop-color="#D6D6D6"/>
    </linearGradient>
    <linearGradient id="Gradient_54" gradientUnits="userSpaceOnUse" x1="1667.529" y1="548.916" x2="1700.631" y2="558.428">
      <stop offset="0" stop-color="#9C9C9C"/>
      <stop offset="1" stop-color="#B2B2B2"/>
    </linearGradient>
    <linearGradient id="Gradient_55" gradientUnits="userSpaceOnUse" x1="1681.607" y1="535.219" x2="1700.631" y2="550.058">
      <stop offset="0" stop-color="#DBDBDB"/>
      <stop offset="1" stop-color="#CCCCCC"/>
    </linearGradient>
    <linearGradient id="Gradient_56" gradientUnits="userSpaceOnUse" x1="1702.914" y1="541.687" x2="1712.806" y2="551.58">
      <stop offset="0" stop-color="#EAEAEA"/>
      <stop offset="1" stop-color="#C2C2C2"/>
    </linearGradient>
    <linearGradient id="Gradient_57" gradientUnits="userSpaceOnUse" x1="1702.914" y1="537.502" x2="1713.567" y2="543.59">
      <stop offset="0" stop-color="#C9C9C9"/>
      <stop offset="1" stop-color="#EDEDED"/>
    </linearGradient>
    <linearGradient id="Gradient_58" gradientUnits="userSpaceOnUse" x1="1712.806" y1="541.687" x2="1731.07" y2="561.472">
      <stop offset="0" stop-color="#8B8B8B"/>
      <stop offset="1" stop-color="#DCDCDC"/>
    </linearGradient>
    <linearGradient id="Gradient_59" gradientUnits="userSpaceOnUse" x1="1579.636" y1="539.024" x2="1590.29" y2="547.775">
      <stop offset="0" stop-color="#D8D8D8"/>
      <stop offset="1" stop-color="#BBBBBB"/>
    </linearGradient>
    <linearGradient id="Gradient_60" gradientUnits="userSpaceOnUse" x1="1579.636" y1="503.258" x2="1590.67" y2="541.307">
      <stop offset="0" stop-color="#E4E4E4"/>
      <stop offset="1" stop-color="#E7E7E7"/>
    </linearGradient>
    <linearGradient id="Gradient_61" gradientUnits="userSpaceOnUse" x1="1582.3" y1="541.307" x2="1590.29" y2="547.775">
      <stop offset="0" stop-color="#8D8D8D"/>
      <stop offset="1" stop-color="#AAAAAA"/>
    </linearGradient>
    <linearGradient id="Gradient_62" gradientUnits="userSpaceOnUse" x1="1589.909" y1="541.307" x2="1595.997" y2="547.394">
      <stop offset="0" stop-color="#969696"/>
      <stop offset="1" stop-color="#B2B2B2"/>
    </linearGradient>
    <linearGradient id="Gradient_63" gradientUnits="userSpaceOnUse" x1="1590.29" y1="503.258" x2="1602.085" y2="541.307">
      <stop offset="0" stop-color="#EBEBEB"/>
      <stop offset="1" stop-color="#E8E8E8"/>
    </linearGradient>
    <linearGradient id="Gradient_64" gradientUnits="userSpaceOnUse" x1="1590.29" y1="539.404" x2="1602.085" y2="547.394">
      <stop offset="0" stop-color="#A7A7A7"/>
      <stop offset="1" stop-color="#DDDDDD"/>
    </linearGradient>
    <linearGradient id="Gradient_65" gradientUnits="userSpaceOnUse" x1="1483.754" y1="548.916" x2="1539.685" y2="559.189">
      <stop offset="0" stop-color="#929292"/>
      <stop offset="1" stop-color="#A9A9A9"/>
    </linearGradient>
    <linearGradient id="Gradient_66" gradientUnits="userSpaceOnUse" x1="1483.754" y1="548.916" x2="1560.993" y2="559.189">
      <stop offset="0" stop-color="#929292"/>
      <stop offset="1" stop-color="#949494"/>
    </linearGradient>
    <linearGradient id="Gradient_67" gradientUnits="userSpaceOnUse" x1="1518.759" y1="536.741" x2="1551.1" y2="548.916">
      <stop offset="0" stop-color="#C5C5C5"/>
      <stop offset="1" stop-color="#CFCFCF"/>
    </linearGradient>
    <linearGradient id="Gradient_68" gradientUnits="userSpaceOnUse" x1="1539.685" y1="536.741" x2="1560.993" y2="551.58">
      <stop offset="0" stop-color="#D8D8D8"/>
      <stop offset="1" stop-color="#ADADAD"/>
    </linearGradient>
    <linearGradient id="Gradient_69" gradientUnits="userSpaceOnUse" x1="1483.754" y1="551.58" x2="1581.539" y2="559.189">
      <stop offset="0" stop-color="#929292"/>
      <stop offset="1" stop-color="#878787"/>
    </linearGradient>
    <linearGradient id="Gradient_70" gradientUnits="userSpaceOnUse" x1="1560.993" y1="551.58" x2="1581.539" y2="557.287">
      <stop offset="0" stop-color="#808080"/>
      <stop offset="1" stop-color="#878787"/>
    </linearGradient>
    <linearGradient id="Gradient_71" gradientUnits="userSpaceOnUse" x1="1572.027" y1="547.775" x2="1582.3" y2="557.287">
      <stop offset="0" stop-color="#808080"/>
      <stop offset="1" stop-color="#878787"/>
    </linearGradient>
    <linearGradient id="Gradient_72" gradientUnits="userSpaceOnUse" x1="1581.539" y1="546.253" x2="1589.909" y2="557.287">
      <stop offset="0" stop-color="#808080"/>
      <stop offset="1" stop-color="#878787"/>
    </linearGradient>
    <linearGradient id="Gradient_73" gradientUnits="userSpaceOnUse" x1="1581.539" y1="546.253" x2="1597.9" y2="557.287">
      <stop offset="0" stop-color="#808080"/>
      <stop offset="1" stop-color="#929292"/>
    </linearGradient>
    <linearGradient id="Gradient_74" gradientUnits="userSpaceOnUse" x1="1581.539" y1="557.287" x2="1731.07" y2="561.472">
      <stop offset="0" stop-color="#CFCFCF"/>
      <stop offset="1" stop-color="#DCDCDC"/>
    </linearGradient>
    <linearGradient id="Gradient_75" gradientUnits="userSpaceOnUse" x1="1451.032" y1="557.287" x2="1581.539" y2="561.092">
      <stop offset="0" stop-color="#CFCFCF"/>
      <stop offset="1" stop-color="#B1B1B1"/>
    </linearGradient>
  </defs>
  <g id="polygon-book" transform="translate(-1451.032, -487.278)">
    <g>
      <path d="M1597.9,557.287 L1607.792,552.341 L1595.997,547.394 z" fill="url(#Gradient_1)" id="triangle36"/>
      <path d="M1595.997,547.394 L1597.9,557.287 L1589.909,546.253 z" fill="url(#Gradient_2)" id="triangle36"/>
      <path d="M1597.9,557.287 L1607.792,552.341 L1623.773,550.438 z" fill="url(#Gradient_3)" id="triangle36"/>
      <path d="M1451.032,561.092 L1468.535,541.687 L1467.774,552.721 z" fill="url(#Gradient_4)" id="triangle36"/>
      <path d="M1467.013,537.882 L1512.671,505.541 L1505.822,534.077 z" fill="url(#Gradient_5)" id="triangle36"/>
      <path d="M1505.822,534.077 L1512.671,505.541 L1551.1,536.741 z" fill="url(#Gradient_6)" id="triangle36"/>
      <path d="M1505.822,534.077 L1551.1,536.741 L1518.759,548.916 z" fill="url(#Gradient_7)" id="triangle36"/>
      <path d="M1623.773,550.438 L1648.124,548.536 L1633.285,534.838 z" fill="url(#Gradient_8)" id="triangle36"/>
      <path d="M1633.285,534.838 L1648.124,548.536 L1658.016,534.838 z" fill="url(#Gradient_9)" id="triangle36"/>
      <path d="M1633.285,534.838 L1654.212,496.79 L1658.016,534.838 z" fill="url(#Gradient_10)" id="triangle36"/>
      <path d="M1648.124,548.536 L1654.973,548.155 L1658.016,534.838 z" fill="url(#Gradient_11)" id="triangle36"/>
      <path d="M1700.631,550.058 L1702.914,543.59 L1685.792,535.219 z" fill="url(#Gradient_12)" id="triangle36"/>
      <path d="M1702.914,543.59 L1713.567,537.502 L1685.792,535.219 z" fill="url(#Gradient_13)" id="triangle36"/>
      <path d="M1654.212,496.79 L1658.016,534.838 L1668.29,490.702 z" fill="url(#Gradient_14)" id="triangle36"/>
      <path d="M1658.016,534.838 L1685.792,535.219 L1668.29,490.702 z" fill="url(#Gradient_15)" id="triangle36"/>
      <path d="M1685.792,535.219 L1713.567,537.502 L1668.29,490.702 z" fill="url(#Gradient_16)" id="triangle36"/>
      <path d="M1611.217,491.843 L1633.285,534.838 L1643.177,487.278 z" fill="url(#Gradient_17)" id="triangle36"/>
      <path d="M1633.285,534.838 L1654.212,496.79 L1643.177,487.278 z" fill="url(#Gradient_18)" id="triangle36"/>
      <path d="M1654.212,496.79 L1668.29,490.702 L1643.177,487.278 z" fill="url(#Gradient_19)" id="triangle36"/>
      <path d="M1551.1,536.741 L1575.071,494.507 L1554.905,488.039 z" fill="url(#Gradient_20)" id="triangle36"/>
      <path d="M1512.671,505.541 L1551.1,536.741 L1528.651,488.419 z" fill="url(#Gradient_21)" id="triangle36"/>
      <path d="M1551.1,536.741 L1554.905,488.039 L1528.651,488.419 z" fill="url(#Gradient_22)" id="triangle36"/>
      <path d="M1467.013,537.882 L1512.671,505.541 L1511.91,490.702 z" fill="url(#Gradient_23)" id="triangle36"/>
      <path d="M1512.671,505.541 L1528.651,488.419 L1511.91,490.702 z" fill="url(#Gradient_24)" id="triangle36"/>
      <path d="M1597.9,557.287 L1623.773,550.438 L1667.529,558.428 z" fill="url(#Gradient_25)" id="triangle36"/>
      <path d="M1597.9,557.287 L1731.07,561.472 L1667.529,558.428 z" fill="url(#Gradient_26)" id="triangle36"/>
      <path d="M1623.773,550.438 L1648.124,548.536 L1667.529,558.428 z" fill="url(#Gradient_27)" id="triangle36"/>
      <path d="M1648.124,548.536 L1654.973,548.155 L1667.529,558.428 z" fill="url(#Gradient_28)" id="triangle36"/>
      <path d="M1700.631,550.058 L1731.07,561.472 L1667.529,558.428 z" fill="url(#Gradient_29)" id="triangle36"/>
      <path d="M1467.013,537.882 L1468.534,541.687 L1490.603,550.438 z" fill="url(#Gradient_30)" id="triangle36"/>
      <path d="M1467.013,537.882 L1505.822,534.077 L1490.603,550.438 z" fill="url(#Gradient_31)" id="triangle36"/>
      <path d="M1467.774,552.721 L1468.535,541.687 L1490.603,550.438 z" fill="url(#Gradient_32)" id="triangle36"/>
      <path d="M1700.631,550.058 L1702.914,543.59 L1712.806,551.58 z" fill="url(#Gradient_33)" id="triangle36"/>
      <path d="M1700.631,550.058 L1731.07,561.472 L1712.806,551.58 z" fill="url(#Gradient_34)" id="triangle36"/>
      <path d="M1551.1,536.741 L1560.993,551.58 L1579.636,539.024 z" fill="url(#Gradient_35)" id="triangle36"/>
      <path d="M1551.1,536.741 L1575.071,494.507 L1579.636,539.024 z" fill="url(#Gradient_36)" id="triangle36"/>
      <path d="M1560.993,551.58 L1572.027,553.102 L1579.636,539.024 z" fill="url(#Gradient_37)" id="triangle36"/>
      <path d="M1572.027,553.102 L1582.3,547.775 L1579.636,539.024 z" fill="url(#Gradient_38)" id="triangle36"/>
      <path d="M1575.071,494.507 L1590.67,503.258 L1579.636,539.024 z" fill="url(#Gradient_39)" id="triangle36"/>
      <path d="M1590.67,503.258 L1611.217,491.843 L1602.085,539.404 z" fill="url(#Gradient_40)" id="triangle36"/>
      <path d="M1595.997,547.394 L1607.792,552.341 L1602.085,539.404 z" fill="url(#Gradient_41)" id="triangle36"/>
      <path d="M1607.792,552.341 L1623.773,550.438 L1602.085,539.404 z" fill="url(#Gradient_42)" id="triangle36"/>
      <path d="M1611.217,491.843 L1633.285,534.838 L1602.085,539.404 z" fill="url(#Gradient_43)" id="triangle36"/>
      <path d="M1623.773,550.438 L1633.285,534.838 L1602.085,539.404 z" fill="url(#Gradient_44)" id="triangle36"/>
      <path d="M1490.603,550.438 L1505.822,534.077 L1506.203,549.297 z" fill="url(#Gradient_45)" id="triangle36"/>
      <path d="M1505.822,534.077 L1518.759,548.916 L1506.203,549.297 z" fill="url(#Gradient_46)" id="triangle36"/>
      <path d="M1467.774,552.721 L1490.603,550.438 L1483.754,559.189 z" fill="url(#Gradient_47)" id="triangle36"/>
      <path d="M1490.603,550.438 L1506.203,549.297 L1483.754,559.189 z" fill="url(#Gradient_48)" id="triangle36"/>
      <path d="M1506.203,549.297 L1518.759,548.916 L1483.754,559.189 z" fill="url(#Gradient_49)" id="triangle36"/>
      <path d="M1451.032,561.092 L1467.774,552.721 L1483.754,559.189 z" fill="url(#Gradient_50)" id="triangle36"/>
      <path d="M1654.973,548.155 L1658.016,534.838 L1681.607,548.916 z" fill="url(#Gradient_51)" id="triangle36"/>
      <path d="M1654.973,548.155 L1667.529,558.428 L1681.607,548.916 z" fill="url(#Gradient_52)" id="triangle36"/>
      <path d="M1658.016,534.838 L1685.792,535.219 L1681.607,548.916 z" fill="url(#Gradient_53)" id="triangle36"/>
      <path d="M1667.529,558.428 L1700.631,550.058 L1681.607,548.916 z" fill="url(#Gradient_54)" id="triangle36"/>
      <path d="M1685.792,535.219 L1700.631,550.058 L1681.607,548.916 z" fill="url(#Gradient_55)" id="triangle36"/>
      <path d="M1702.914,543.59 L1712.806,551.58 L1712.806,541.687 z" fill="url(#Gradient_56)" id="triangle36"/>
      <path d="M1702.914,543.59 L1713.567,537.502 L1712.806,541.687 z" fill="url(#Gradient_57)" id="triangle36"/>
      <path d="M1712.806,551.58 L1731.07,561.472 L1712.806,541.687 z" fill="url(#Gradient_58)" id="triangle36"/>
      <path d="M1579.636,539.024 L1582.3,547.775 L1590.29,541.307 z" fill="url(#Gradient_59)" id="triangle36"/>
      <path d="M1579.636,539.024 L1590.67,503.258 L1590.29,541.307 z" fill="url(#Gradient_60)" id="triangle36"/>
      <path d="M1582.3,547.775 L1589.909,546.253 L1590.29,541.307 z" fill="url(#Gradient_61)" id="triangle36"/>
      <path d="M1589.909,546.253 L1595.997,547.394 L1590.29,541.307 z" fill="url(#Gradient_62)" id="triangle36"/>
      <path d="M1590.67,503.258 L1602.085,539.404 L1590.29,541.307 z" fill="url(#Gradient_63)" id="triangle36"/>
      <path d="M1595.997,547.394 L1602.085,539.404 L1590.29,541.307 z" fill="url(#Gradient_64)" id="triangle36"/>
      <path d="M1483.754,559.189 L1518.759,548.916 L1539.685,548.916 z" fill="url(#Gradient_65)" id="triangle36"/>
      <path d="M1483.754,559.189 L1560.993,551.58 L1539.685,548.916 z" fill="url(#Gradient_66)" id="triangle36"/>
      <path d="M1518.759,548.916 L1551.1,536.741 L1539.685,548.916 z" fill="url(#Gradient_67)" id="triangle36"/>
      <path d="M1551.1,536.741 L1560.993,551.58 L1539.685,548.916 z" fill="url(#Gradient_68)" id="triangle36"/>
      <path d="M1483.754,559.189 L1560.993,551.58 L1581.539,557.287 z" fill="url(#Gradient_69)" id="triangle36"/>
      <path d="M1560.993,551.58 L1572.027,553.102 L1581.539,557.287 z" fill="url(#Gradient_70)" id="triangle36"/>
      <path d="M1572.027,553.102 L1582.3,547.775 L1581.539,557.287 z" fill="url(#Gradient_71)" id="triangle36"/>
      <path d="M1582.3,547.775 L1589.909,546.253 L1581.539,557.287 z" fill="url(#Gradient_72)" id="triangle36"/>
      <path d="M1589.909,546.253 L1597.9,557.287 L1581.539,557.287 z" fill="url(#Gradient_73)" id="triangle36"/>
      <path d="M1597.9,557.287 L1731.07,561.472 L1581.539,557.287 z" fill="url(#Gradient_74)" id="triangle36"/>
      <path d="M1451.032,561.092 L1483.754,559.189 L1581.539,557.287 z" fill="url(#Gradient_75)" id="triangle36"/>
    </g>
  </g>
</svg>
