<?xml version="1.0" encoding="UTF-8"?>
<!DOCTYPE svg PUBLIC "-//W3C//DTD SVG 1.1//EN" "http://www.w3.org/Graphics/SVG/1.1/DTD/svg11.dtd">
<svg version="1.1" xmlns="http://www.w3.org/2000/svg" xmlns:xlink="http://www.w3.org/1999/xlink" x="0" y="0" width="46.003" height="34.583" viewBox="0, 0, 46.003, 34.583">
  <g id="pxheart" transform="translate(-136.998, -493.263)">
    <g id="g124152">
      <path d="M148.415,516.262 C148.416,516.263 148.418,516.263 148.42,516.262 L159.998,504.846 C159.999,504.845 159.999,504.843 159.998,504.842 L148.582,493.264 C148.581,493.262 148.579,493.262 148.578,493.264 L136.999,504.68 C136.998,504.681 136.998,504.683 136.999,504.684 L148.415,516.262 z" fill="#DC0000" id="rect124154"/>
      <path d="M159.835,527.845 C159.837,527.846 159.839,527.846 159.84,527.845 L171.418,516.429 C171.419,516.428 171.419,516.426 171.418,516.424 L160.002,504.846 C160.001,504.845 159.999,504.845 159.998,504.846 L148.419,516.262 C148.418,516.263 148.418,516.265 148.419,516.266 L159.835,527.845 z" fill="#DC0000" id="rect124156"/>
      <path d="M171.418,516.424 C171.419,516.426 171.421,516.426 171.422,516.424 L183.001,505.008 C183.002,505.007 183.002,505.005 183.001,505.004 L171.585,493.426 C171.584,493.425 171.582,493.425 171.58,493.426 L160.002,504.842 C160.001,504.843 160.001,504.845 160.002,504.846 L171.418,516.424 z" fill="#DC0000" id="rect124158"/>
    </g>
  </g>
</svg>
