<?xml version="1.0" encoding="UTF-8"?>
<!DOCTYPE svg PUBLIC "-//W3C//DTD SVG 1.1//EN" "http://www.w3.org/Graphics/SVG/1.1/DTD/svg11.dtd">
<svg version="1.1" xmlns="http://www.w3.org/2000/svg" xmlns:xlink="http://www.w3.org/1999/xlink" x="0" y="0" width="33.723" height="36.464" viewBox="0, 0, 33.723, 36.464">
  <g id="reading-mode-night-icon" transform="translate(-77.998, -296.431)">
    <g>
      <path d="M90.771,299.548 C91.618,299.356 92.455,299.144 93.331,299.103 C88.617,304.092 87.019,310.962 88.521,317.586 C90.283,324.353 95.055,329.2 101.559,331.542 C100.77,331.924 99.931,332.136 99.095,332.371 C90.032,334.67 80.821,329.186 78.522,320.122 C76.223,311.058 81.707,301.847 90.771,299.549 z" fill="#959595"/>
      <path d="M90.771,299.548 C91.618,299.356 92.455,299.144 93.331,299.103 C88.617,304.092 87.019,310.962 88.521,317.586 C90.283,324.353 95.055,329.2 101.559,331.542 C100.77,331.924 99.931,332.136 99.095,332.371 C90.032,334.67 80.821,329.186 78.522,320.122 C76.223,311.058 81.707,301.847 90.771,299.549 z" fill="#959595"/>
      <path d="M108.999,310.878 L108.81,309.532 L107.469,309.307 L108.54,308.469 L108.065,307.196 L109.326,307.704 L110.192,306.656 L110.381,308.002 L111.722,308.228 L110.651,309.065 L111.126,310.339 L109.865,309.831 z" fill="#959595"/>
      <path d="M103.554,305.104 L103.316,302.079 L100.689,300.56 L103.492,299.399 L104.125,296.431 L106.096,298.738 L109.114,298.423 L107.528,301.01 L108.761,303.783 L105.81,303.075 z" fill="#959595"/>
    </g>
  </g>
</svg>
